<svg width="69" height="69" viewBox="0 0 69 69" fill="none" xmlns="http://www.w3.org/2000/svg">
<g clip-path="url(#clip0_89_148)">
<path fill-rule="evenodd" clip-rule="evenodd" d="M8.05556 68.6416H60.9444C65.1173 68.6416 68.5 65.2589 68.5 61.086V8.19716C68.5 4.02434 65.1173 0.641602 60.9444 0.641602H8.05556C3.88274 0.641602 0.5 4.02434 0.5 8.19716V61.086C0.5 65.2589 3.88274 68.6416 8.05556 68.6416Z" fill="#136289"/>
<path fill-rule="evenodd" clip-rule="evenodd" d="M59.0556 59.197H48.9648V42.0102C48.9648 37.298 47.1743 34.6647 43.4446 34.6647C39.3871 34.6647 37.2673 37.405 37.2673 42.0102V59.197H27.5426V26.4563H37.2673V30.8665C37.2673 30.8665 40.1913 25.456 47.1391 25.456C54.0837 25.456 59.0556 29.6968 59.0556 38.4676V59.197ZM15.9411 22.1692C12.6286 22.1692 9.94446 19.4639 9.94446 16.1276C9.94446 12.7912 12.6286 10.0859 15.9411 10.0859C19.2535 10.0859 21.9361 12.7912 21.9361 16.1276C21.9361 19.4639 19.2535 22.1692 15.9411 22.1692ZM10.9196 59.197H21.06V26.4563H10.9196V59.197Z" fill="#F9F9F9"/>
</g>
<defs>
<clipPath id="clip0_89_148">
<rect width="68" height="68" fill="white" transform="translate(0.5 0.641602)"/>
</clipPath>
</defs>
</svg>
