<svg width="79" height="79" viewBox="0 0 79 79" fill="none" xmlns="http://www.w3.org/2000/svg">
<path d="M49.5375 48.1033V53.0579H47.0602V54.2874H44.6013V55.5352H42.124V56.7646H39.6468V58.0124H37.1695V59.2419H35.94V60.4897H33.4628V61.7192H30.9855V62.9487H28.5082V64.1964H24.8015V65.4259H22.3242V66.6737H19.8469V67.9032H14.5988V59.2419H15.8466V56.7646H17.076V54.3057H18.3238V51.8284H19.5533V49.3512H20.8011V46.8739H22.0306V44.3966H23.26V41.9193H24.5079V39.4421H25.7373V36.9831H26.9851V34.5058H28.2146V32.0286H29.4624V30.7808H33.1691V32.0286H34.3986V33.258H35.6464V34.5058H36.8759V35.7353H38.1237V36.9831H39.3532V38.2126H40.5826V39.4421H41.8304V40.6899H43.0599V41.9193H44.3077V43.1671H45.5372V44.3966H46.785V45.6444H48.0145V46.8739H49.2439V48.1033H49.5375Z" fill="#F19400"/>
<path d="M43.2066 12.834H41.9771V14.0634H43.2066V12.834Z" fill="#136289"/>
<path d="M43.2066 14.082H41.9771V15.3115H43.2066V14.082Z" fill="#136289"/>
<path d="M43.2066 15.3115H41.9771V16.541H43.2066V15.3115Z" fill="#136289"/>
<path d="M43.2066 16.5405H41.9771V17.77H43.2066V16.5405Z" fill="#136289"/>
<path d="M43.2066 17.7891H41.9771V19.0186H43.2066V17.7891Z" fill="#136289"/>
<path d="M43.2066 19.0181H41.9771V20.2476H43.2066V19.0181Z" fill="#136289"/>
<path d="M43.2066 20.2661H41.9771V21.4956H43.2066V20.2661Z" fill="#136289"/>
<path d="M43.2066 21.4956H41.9771V22.725H43.2066V21.4956Z" fill="#136289"/>
<path d="M43.2066 22.7427H41.9771V23.9722H43.2066V22.7427Z" fill="#136289"/>
<path d="M41.9589 23.9731H40.7294V25.2026H41.9589V23.9731Z" fill="#136289"/>
<path d="M43.2066 23.9731H41.9771V25.2026H43.2066V23.9731Z" fill="#136289"/>
<path d="M41.9589 25.2026H40.7294V26.4321H41.9589V25.2026Z" fill="#136289"/>
<path d="M40.7296 25.2026H39.5001V26.4321H40.7296V25.2026Z" fill="#136289"/>
<path d="M66.7133 17.7891H65.4838V19.0186H66.7133V17.7891Z" fill="#136289"/>
<path d="M66.7133 16.5405H65.4838V17.77H66.7133V16.5405Z" fill="#136289"/>
<path d="M66.7133 15.3115H65.4838V16.541H66.7133V15.3115Z" fill="#136289"/>
<path d="M66.7133 14.082H65.4838V15.3115H66.7133V14.082Z" fill="#136289"/>
<path d="M66.7133 12.834H65.4838V14.0634H66.7133V12.834Z" fill="#136289"/>
<path d="M66.7133 11.6045H65.4838V12.834H66.7133V11.6045Z" fill="#136289"/>
<path d="M65.4656 36.3408H64.2361V37.5703H65.4656V36.3408Z" fill="#136289"/>
<path d="M65.4656 28.9272H64.2361V30.1567H65.4656V28.9272Z" fill="#136289"/>
<path d="M65.4656 17.7891H64.2361V19.0186H65.4656V17.7891Z" fill="#136289"/>
<path d="M64.2358 36.3408H63.0063V37.5703H64.2358V36.3408Z" fill="#136289"/>
<path d="M64.2358 30.1562H63.0063V31.3857H64.2358V30.1562Z" fill="#136289"/>
<path d="M64.2358 28.9272H63.0063V30.1567H64.2358V28.9272Z" fill="#136289"/>
<path d="M64.2358 27.6792H63.0063V28.9087H64.2358V27.6792Z" fill="#136289"/>
<path d="M64.2358 17.7891H63.0063V19.0186H64.2358V17.7891Z" fill="#136289"/>
<path d="M62.9881 45.0024H61.7587V46.2319H62.9881V45.0024Z" fill="#136289"/>
<path d="M62.9881 36.3408H61.7587V37.5703H62.9881V36.3408Z" fill="#136289"/>
<path d="M62.9881 28.9272H61.7587V30.1567H62.9881V28.9272Z" fill="#136289"/>
<path d="M62.9881 17.7891H61.7587V19.0186H62.9881V17.7891Z" fill="#136289"/>
<path d="M61.7588 46.2495H60.5294V47.479H61.7588V46.2495Z" fill="#136289"/>
<path d="M61.7588 45.0024H60.5294V46.2319H61.7588V45.0024Z" fill="#136289"/>
<path d="M61.7588 43.772H60.5294V45.0015H61.7588V43.772Z" fill="#136289"/>
<path d="M61.7588 36.3408H60.5294V37.5703H61.7588V36.3408Z" fill="#136289"/>
<path d="M61.7588 22.7427H60.5294V23.9722H61.7588V22.7427Z" fill="#136289"/>
<path d="M61.7588 21.4956H60.5294V22.725H61.7588V21.4956Z" fill="#136289"/>
<path d="M61.7588 20.2661H60.5294V21.4956H61.7588V20.2661Z" fill="#136289"/>
<path d="M61.7588 19.0181H60.5294V20.2476H61.7588V19.0181Z" fill="#136289"/>
<path d="M61.7588 17.7891H60.5294V19.0186H61.7588V17.7891Z" fill="#136289"/>
<path d="M60.5291 45.0024H59.2996V46.2319H60.5291V45.0024Z" fill="#136289"/>
<path d="M60.5291 36.3408H59.2996V37.5703H60.5291V36.3408Z" fill="#136289"/>
<path d="M60.5291 22.7427H59.2996V23.9722H60.5291V22.7427Z" fill="#136289"/>
<path d="M59.2813 36.3408H58.0519V37.5703H59.2813V36.3408Z" fill="#136289"/>
<path d="M59.2813 22.7427H58.0519V23.9722H59.2813V22.7427Z" fill="#136289"/>
<path d="M58.052 36.3408H56.8226V37.5703H58.052V36.3408Z" fill="#136289"/>
<path d="M58.052 22.7427H56.8226V23.9722H58.052V22.7427Z" fill="#136289"/>
<path d="M56.8043 36.3408H55.5749V37.5703H56.8043V36.3408Z" fill="#136289"/>
<path d="M56.8043 22.7427H55.5749V23.9722H56.8043V22.7427Z" fill="#136289"/>
<path d="M55.5746 37.5889H54.3452V38.8184H55.5746V37.5889Z" fill="#136289"/>
<path d="M55.5746 36.3408H54.3452V37.5703H55.5746V36.3408Z" fill="#136289"/>
<path d="M55.5746 28.9272H54.3452V30.1567H55.5746V28.9272Z" fill="#136289"/>
<path d="M55.5746 27.6792H54.3452V28.9087H55.5746V27.6792Z" fill="#136289"/>
<path d="M55.5746 26.4497H54.3452V27.6792H55.5746V26.4497Z" fill="#136289"/>
<path d="M55.5746 25.2026H54.3452V26.4321H55.5746V25.2026Z" fill="#136289"/>
<path d="M55.5746 23.9731H54.3452V25.2026H55.5746V23.9731Z" fill="#136289"/>
<path d="M55.5746 22.7427H54.3452V23.9722H55.5746V22.7427Z" fill="#136289"/>
<path d="M54.3269 38.8184H53.0975V40.0478H54.3269V38.8184Z" fill="#136289"/>
<path d="M54.3269 37.5889H53.0975V38.8184H54.3269V37.5889Z" fill="#136289"/>
<path d="M54.3269 28.9272H53.0975V30.1567H54.3269V28.9272Z" fill="#136289"/>
<path d="M53.0976 40.0654H51.8681V41.2949H53.0976V40.0654Z" fill="#136289"/>
<path d="M53.0976 38.8184H51.8681V40.0478H53.0976V38.8184Z" fill="#136289"/>
<path d="M53.0976 28.9272H51.8681V30.1567H53.0976V28.9272Z" fill="#136289"/>
<path d="M53.0976 16.5405H51.8681V17.77H53.0976V16.5405Z" fill="#136289"/>
<path d="M51.8678 40.0654H50.6384V41.2949H51.8678V40.0654Z" fill="#136289"/>
<path d="M51.8678 28.9272H50.6384V30.1567H51.8678V28.9272Z" fill="#136289"/>
<path d="M51.8678 17.7891H50.6384V19.0186H51.8678V17.7891Z" fill="#136289"/>
<path d="M51.8678 16.5405H50.6384V17.77H51.8678V16.5405Z" fill="#136289"/>
<path d="M51.8678 15.3115H50.6384V16.541H51.8678V15.3115Z" fill="#136289"/>
<path d="M50.6202 33.8633H49.3907V35.0928H50.6202V33.8633Z" fill="#136289"/>
<path d="M50.6202 32.6338H49.3907V33.8632H50.6202V32.6338Z" fill="#136289"/>
<path d="M50.6202 31.4048H49.3907V32.6343H50.6202V31.4048Z" fill="#136289"/>
<path d="M50.6202 30.1562H49.3907V31.3857H50.6202V30.1562Z" fill="#136289"/>
<path d="M50.6202 28.9272H49.3907V30.1567H50.6202V28.9272Z" fill="#136289"/>
<path d="M50.6202 16.5405H49.3907V17.77H50.6202V16.5405Z" fill="#136289"/>
<path d="M49.3908 51.2046H48.1614V52.434H49.3908V51.2046Z" fill="#136289"/>
<path d="M49.3908 49.9565H48.1614V51.2044H49.3908V49.9565Z" fill="#136289"/>
<path d="M49.3908 48.7271H48.1614V49.9565H49.3908V48.7271Z" fill="#136289"/>
<path d="M49.3908 47.479H48.1614V48.7268H49.3908V47.479Z" fill="#136289"/>
<path d="M49.3908 33.8633H48.1614V35.0928H49.3908V33.8633Z" fill="#136289"/>
<path d="M48.161 51.2046H46.9132V52.434H48.161V51.2046Z" fill="#136289"/>
<path d="M48.1427 47.479H46.9132V48.7084H48.1427V47.479Z" fill="#136289"/>
<path d="M48.1427 46.2495H46.9132V47.479H48.1427V46.2495Z" fill="#136289"/>
<path d="M48.1427 33.8633H46.9132V35.0928H48.1427V33.8633Z" fill="#136289"/>
<path d="M46.9134 52.4341H45.6839V53.6636H46.9134V52.4341Z" fill="#136289"/>
<path d="M46.9134 51.1855H45.6839V52.415H46.9134V51.1855Z" fill="#136289"/>
<path d="M46.9134 46.2495H45.6839V47.479H46.9134V46.2495Z" fill="#136289"/>
<path d="M46.9134 45.0024H45.6839V46.2319H46.9134V45.0024Z" fill="#136289"/>
<path d="M46.9134 33.8633H45.6839V35.0928H46.9134V33.8633Z" fill="#136289"/>
<path d="M45.684 52.4341H44.4546V53.6636H45.684V52.4341Z" fill="#136289"/>
<path d="M45.6657 45.0024H44.4362V46.2319H45.6657V45.0024Z" fill="#136289"/>
<path d="M45.6657 43.772H44.4362V45.0015H45.6657V43.772Z" fill="#136289"/>
<path d="M45.6657 33.8633H44.4362V35.0928H45.6657V33.8633Z" fill="#136289"/>
<path d="M44.4547 53.6631H43.2069V54.9109H44.4547V53.6631Z" fill="#136289"/>
<path d="M44.4364 52.4341H43.2069V53.6636H44.4364V52.4341Z" fill="#136289"/>
<path d="M44.4364 43.772H43.2069V45.0015H44.4364V43.772Z" fill="#136289"/>
<path d="M44.4364 42.5249H43.2069V43.7544H44.4364V42.5249Z" fill="#136289"/>
<path d="M44.4364 33.8633H43.2069V35.0928H44.4364V33.8633Z" fill="#136289"/>
<path d="M43.2066 53.6631H41.9771V54.9109H43.2066V53.6631Z" fill="#136289"/>
<path d="M43.2066 51.1855H41.9771V52.415H43.2066V51.1855Z" fill="#136289"/>
<path d="M44.4364 51.1855H43.2069V52.415H44.4364V51.1855Z" fill="#136289"/>
<path d="M43.2066 49.9565H41.9771V51.186H43.2066V49.9565Z" fill="#136289"/>
<path d="M43.2066 42.5249H41.9771V43.7544H43.2066V42.5249Z" fill="#136289"/>
<path d="M43.2066 41.2954H41.9771V42.5248H43.2066V41.2954Z" fill="#136289"/>
<path d="M41.9772 54.9111H40.7294V56.1406H41.9772V54.9111Z" fill="#136289"/>
<path d="M41.9589 53.6631H40.7294V54.8925H41.9589V53.6631Z" fill="#136289"/>
<path d="M41.9589 49.9565H40.7294V51.186H41.9589V49.9565Z" fill="#136289"/>
<path d="M41.9589 48.7271H40.7294V49.9565H41.9589V48.7271Z" fill="#136289"/>
<path d="M41.9589 47.479H40.7294V48.7084H41.9589V47.479Z" fill="#136289"/>
<path d="M41.9589 41.2954H40.7294V42.5248H41.9589V41.2954Z" fill="#136289"/>
<path d="M41.9589 40.0654H40.7294V41.2949H41.9589V40.0654Z" fill="#136289"/>
<path d="M40.7296 54.9111H39.5001V56.1406H40.7296V54.9111Z" fill="#136289"/>
<path d="M40.7296 47.479H39.5001V48.7084H40.7296V47.479Z" fill="#136289"/>
<path d="M40.7296 46.2495H39.5001V47.479H40.7296V46.2495Z" fill="#136289"/>
<path d="M40.7296 45.0024H39.5001V46.2319H40.7296V45.0024Z" fill="#136289"/>
<path d="M40.7296 40.0654H39.5001V41.2949H40.7296V40.0654Z" fill="#136289"/>
<path d="M40.7296 38.8184H39.5001V40.0478H40.7296V38.8184Z" fill="#136289"/>
<path d="M40.7296 26.4497H39.5001V27.6792H40.7296V26.4497Z" fill="#136289"/>
<path d="M39.4998 56.1406H38.252V57.3884H39.4998V56.1406Z" fill="#136289"/>
<path d="M39.4814 54.9111H38.252V56.1406H39.4814V54.9111Z" fill="#136289"/>
<path d="M39.4814 45.0024H38.252V46.2319H39.4814V45.0024Z" fill="#136289"/>
<path d="M39.4814 43.772H38.252V45.0015H39.4814V43.772Z" fill="#136289"/>
<path d="M39.4814 42.5249H38.252V43.7544H39.4814V42.5249Z" fill="#136289"/>
<path d="M39.4814 38.8184H38.252V40.0478H39.4814V38.8184Z" fill="#136289"/>
<path d="M39.4814 37.5889H38.252V38.8184H39.4814V37.5889Z" fill="#136289"/>
<path d="M39.4814 27.6792H38.252V28.9087H39.4814V27.6792Z" fill="#136289"/>
<path d="M39.4814 26.4497H38.252V27.6792H39.4814V26.4497Z" fill="#136289"/>
<path d="M38.2521 56.1406H37.0226V57.3884H38.2521V56.1406Z" fill="#136289"/>
<path d="M38.2521 42.5249H37.0226V43.7544H38.2521V42.5249Z" fill="#136289"/>
<path d="M38.2521 41.2954H37.0226V42.5248H38.2521V41.2954Z" fill="#136289"/>
<path d="M38.2521 40.0654H37.0226V41.2949H38.2521V40.0654Z" fill="#136289"/>
<path d="M38.2521 37.5889H37.0226V38.8184H38.2521V37.5889Z" fill="#136289"/>
<path d="M38.2521 36.3408H37.0226V37.5703H38.2521V36.3408Z" fill="#136289"/>
<path d="M38.2521 27.6792H37.0226V28.9087H38.2521V27.6792Z" fill="#136289"/>
<path d="M37.0228 57.3887H35.7933V58.6181H37.0228V57.3887Z" fill="#136289"/>
<path d="M35.7747 57.3887H34.5452V58.6181H35.7747V57.3887Z" fill="#136289"/>
<path d="M37.0044 56.1406H35.775V57.3701H37.0044V56.1406Z" fill="#136289"/>
<path d="M37.0044 40.0654H35.775V41.2949H37.0044V40.0654Z" fill="#136289"/>
<path d="M37.0044 38.8184H35.775V40.0478H37.0044V38.8184Z" fill="#136289"/>
<path d="M37.0044 36.3408H35.775V37.5703H37.0044V36.3408Z" fill="#136289"/>
<path d="M35.7747 37.5889H34.5452V38.8184H35.7747V37.5889Z" fill="#136289"/>
<path d="M37.0044 35.1113H35.775V36.3408H37.0044V35.1113Z" fill="#136289"/>
<path d="M37.0044 19.0181H35.775V20.2476H37.0044V19.0181Z" fill="#136289"/>
<path d="M35.793 58.6182H34.5452V59.866H35.793V58.6182Z" fill="#136289"/>
<path d="M35.7747 38.8184H34.5452V40.0478H35.7747V38.8184Z" fill="#136289"/>
<path d="M35.7747 35.1113H34.5452V36.3408H35.7747V35.1113Z" fill="#136289"/>
<path d="M35.7747 33.8633H34.5452V35.0928H35.7747V33.8633Z" fill="#136289"/>
<path d="M35.7747 20.2661H34.5452V21.4956H35.7747V20.2661Z" fill="#136289"/>
<path d="M35.7747 19.0181H34.5452V20.2476H35.7747V19.0181Z" fill="#136289"/>
<path d="M35.7747 17.7891H34.5452V19.0186H35.7747V17.7891Z" fill="#136289"/>
<path d="M34.5453 58.6182H33.3159V59.866H34.5453V58.6182Z" fill="#136289"/>
<path d="M33.2976 56.1406H32.0682V57.3701H33.2976V56.1406Z" fill="#136289"/>
<path d="M34.5453 56.1406H33.3159V57.3701H34.5453V56.1406Z" fill="#136289"/>
<path d="M33.2976 54.9111H32.0682V56.1406H33.2976V54.9111Z" fill="#136289"/>
<path d="M34.5453 33.8633H33.3159V35.0928H34.5453V33.8633Z" fill="#136289"/>
<path d="M34.5453 32.6338H33.3159V33.8632H34.5453V32.6338Z" fill="#136289"/>
<path d="M34.5453 19.0181H33.3159V20.2476H34.5453V19.0181Z" fill="#136289"/>
<path d="M33.316 59.8652H32.0682V61.0947H33.316V59.8652Z" fill="#136289"/>
<path d="M33.2976 58.6182H32.0682V59.8477H33.2976V58.6182Z" fill="#136289"/>
<path d="M32.0683 54.9111H30.8389V56.1406H32.0683V54.9111Z" fill="#136289"/>
<path d="M33.2976 32.6338H32.0682V33.8632H33.2976V32.6338Z" fill="#136289"/>
<path d="M33.2976 31.4048H32.0682V32.6343H33.2976V31.4048Z" fill="#136289"/>
<path d="M32.0683 59.8652H30.8389V61.0947H32.0683V59.8652Z" fill="#136289"/>
<path d="M30.8202 59.8472H29.5908V61.0767H30.8202V59.8472Z" fill="#136289"/>
<path d="M32.0683 53.6631H30.8389V54.8925H32.0683V53.6631Z" fill="#136289"/>
<path d="M32.0683 52.4341H30.8389V53.6636H32.0683V52.4341Z" fill="#136289"/>
<path d="M32.0683 31.4048H30.8389V32.6343H32.0683V31.4048Z" fill="#136289"/>
<path d="M32.0683 30.1562H30.8389V31.3857H32.0683V30.1562Z" fill="#136289"/>
<path d="M30.8386 61.0957H29.5908V62.3252H30.8386V61.0957Z" fill="#136289"/>
<path d="M30.8202 52.4341H29.5908V53.6636H30.8202V52.4341Z" fill="#136289"/>
<path d="M30.8202 51.1855H29.5908V52.415H30.8202V51.1855Z" fill="#136289"/>
<path d="M30.8202 49.9565H29.5908V51.186H30.8202V49.9565Z" fill="#136289"/>
<path d="M30.8202 30.1562H29.5908V31.3857H30.8202V30.1562Z" fill="#136289"/>
<path d="M30.8202 28.9272H29.5908V30.1567H30.8202V28.9272Z" fill="#136289"/>
<path d="M29.5909 61.0957H28.3614V62.3252H29.5909V61.0957Z" fill="#136289"/>
<path d="M28.3432 61.0957H27.1137V62.3252H28.3432V61.0957Z" fill="#136289"/>
<path d="M29.5909 49.9565H28.3614V51.186H29.5909V49.9565Z" fill="#136289"/>
<path d="M29.5909 48.7271H28.3614V49.9565H29.5909V48.7271Z" fill="#136289"/>
<path d="M29.5909 47.479H28.3614V48.7084H29.5909V47.479Z" fill="#136289"/>
<path d="M29.5909 28.9272H28.3614V30.1567H29.5909V28.9272Z" fill="#136289"/>
<path d="M28.3615 62.3247H27.1321V63.5725H28.3615V62.3247Z" fill="#136289"/>
<path d="M28.3432 47.479H27.1137V48.7084H28.3432V47.479Z" fill="#136289"/>
<path d="M28.3432 46.2495H27.1137V47.479H28.3432V46.2495Z" fill="#136289"/>
<path d="M28.3432 45.0024H27.1137V46.2319H28.3432V45.0024Z" fill="#136289"/>
<path d="M28.3432 30.1562H27.1137V31.3857H28.3432V30.1562Z" fill="#136289"/>
<path d="M28.3432 28.9272H27.1137V30.1567H28.3432V28.9272Z" fill="#136289"/>
<path d="M27.1318 62.3247H25.884V63.5725H27.1318V62.3247Z" fill="#136289"/>
<path d="M27.1134 45.0024H25.884V46.2319H27.1134V45.0024Z" fill="#136289"/>
<path d="M27.1134 43.772H25.884V45.0015H27.1134V43.772Z" fill="#136289"/>
<path d="M27.1134 42.5249H25.884V43.7544H27.1134V42.5249Z" fill="#136289"/>
<path d="M27.1134 32.6338H25.884V33.8632H27.1134V32.6338Z" fill="#136289"/>
<path d="M27.1134 31.4048H25.884V32.6343H27.1134V31.4048Z" fill="#136289"/>
<path d="M27.1134 30.1562H25.884V31.3857H27.1134V30.1562Z" fill="#136289"/>
<path d="M25.8841 62.3247H24.6547V63.5725H25.8841V62.3247Z" fill="#136289"/>
<path d="M25.8841 42.5249H24.6547V43.7544H25.8841V42.5249Z" fill="#136289"/>
<path d="M25.8841 41.2954H24.6547V42.5248H25.8841V41.2954Z" fill="#136289"/>
<path d="M25.8841 40.0654H24.6547V41.2949H25.8841V40.0654Z" fill="#136289"/>
<path d="M25.8841 35.1113H24.6547V36.3408H25.8841V35.1113Z" fill="#136289"/>
<path d="M25.8841 33.8633H24.6547V35.0928H25.8841V33.8633Z" fill="#136289"/>
<path d="M25.8841 32.6338H24.6547V33.8632H25.8841V32.6338Z" fill="#136289"/>
<path d="M24.6548 63.5723H23.407V64.8018H24.6548V63.5723Z" fill="#136289"/>
<path d="M24.6364 62.3247H23.407V63.5541H24.6364V62.3247Z" fill="#136289"/>
<path d="M24.6364 40.0654H23.407V41.2949H24.6364V40.0654Z" fill="#136289"/>
<path d="M24.6364 37.5889H23.407V38.8184H24.6364V37.5889Z" fill="#136289"/>
<path d="M24.6364 36.3408H23.407V37.5703H24.6364V36.3408Z" fill="#136289"/>
<path d="M24.6364 35.1113H23.407V36.3408H24.6364V35.1113Z" fill="#136289"/>
<path d="M23.4066 63.5723H22.1772V64.8018H23.4066V63.5723Z" fill="#136289"/>
<path d="M23.4066 61.0957H22.1772V62.3252H23.4066V61.0957Z" fill="#136289"/>
<path d="M24.6364 61.0957H23.407V62.3252H24.6364V61.0957Z" fill="#136289"/>
<path d="M23.4066 59.8472H22.1772V61.0767H23.4066V59.8472Z" fill="#136289"/>
<path d="M23.4066 40.0654H22.1772V41.2949H23.4066V40.0654Z" fill="#136289"/>
<path d="M23.4066 38.8184H22.1772V40.0478H23.4066V38.8184Z" fill="#136289"/>
<path d="M23.4066 37.5889H22.1772V38.8184H23.4066V37.5889Z" fill="#136289"/>
<path d="M22.1773 64.8022H20.9295V66.05H22.1773V64.8022Z" fill="#136289"/>
<path d="M22.159 63.5723H20.9295V64.8018H22.159V63.5723Z" fill="#136289"/>
<path d="M22.159 59.8472H20.9295V61.0767H22.159V59.8472Z" fill="#136289"/>
<path d="M22.159 58.6182H20.9295V59.8477H22.159V58.6182Z" fill="#136289"/>
<path d="M22.159 57.3887H20.9295V58.6181H22.159V57.3887Z" fill="#136289"/>
<path d="M22.159 42.5249H20.9295V43.7544H22.159V42.5249Z" fill="#136289"/>
<path d="M22.159 41.2954H20.9295V42.5248H22.159V41.2954Z" fill="#136289"/>
<path d="M22.159 40.0654H20.9295V41.2949H22.159V40.0654Z" fill="#136289"/>
<path d="M20.9297 64.8022H19.7002V66.05H20.9297V64.8022Z" fill="#136289"/>
<path d="M20.9297 57.3887H19.7002V58.6181H20.9297V57.3887Z" fill="#136289"/>
<path d="M20.9297 56.1406H19.7002V57.3701H20.9297V56.1406Z" fill="#136289"/>
<path d="M20.9297 54.9111H19.7002V56.1406H20.9297V54.9111Z" fill="#136289"/>
<path d="M20.9297 45.0024H19.7002V46.2319H20.9297V45.0024Z" fill="#136289"/>
<path d="M20.9297 43.772H19.7002V45.0015H20.9297V43.772Z" fill="#136289"/>
<path d="M20.9297 42.5249H19.7002V43.7544H20.9297V42.5249Z" fill="#136289"/>
<path d="M19.6999 66.0493H18.4704V67.2787H19.6999V66.0493Z" fill="#136289"/>
<path d="M19.682 64.8022H18.4525V66.0317H19.682V64.8022Z" fill="#136289"/>
<path d="M19.682 54.9111H18.4525V56.1406H19.682V54.9111Z" fill="#136289"/>
<path d="M19.682 53.6631H18.4525V54.8925H19.682V53.6631Z" fill="#136289"/>
<path d="M19.682 52.4341H18.4525V53.6636H19.682V52.4341Z" fill="#136289"/>
<path d="M19.682 47.479H18.4525V48.7084H19.682V47.479Z" fill="#136289"/>
<path d="M19.682 46.2495H18.4525V47.479H19.682V46.2495Z" fill="#136289"/>
<path d="M19.682 45.0024H18.4525V46.2319H19.682V45.0024Z" fill="#136289"/>
<path d="M18.4705 66.0493H17.2227V67.2787H18.4705V66.0493Z" fill="#136289"/>
<path d="M18.4522 52.4341H17.2227V53.6636H18.4522V52.4341Z" fill="#136289"/>
<path d="M18.4522 49.9565H17.2227V51.186H18.4522V49.9565Z" fill="#136289"/>
<path d="M18.4522 48.7271H17.2227V49.9565H18.4522V48.7271Z" fill="#136289"/>
<path d="M18.4522 47.479H17.2227V48.7084H18.4522V47.479Z" fill="#136289"/>
<path d="M17.2229 66.0493H15.9934V67.2787H17.2229V66.0493Z" fill="#136289"/>
<path d="M17.2229 52.4341H15.9934V53.6636H17.2229V52.4341Z" fill="#136289"/>
<path d="M17.2229 51.1855H15.9934V52.415H17.2229V51.1855Z" fill="#136289"/>
<path d="M17.2229 49.9565H15.9934V51.186H17.2229V49.9565Z" fill="#136289"/>
<path d="M15.9935 66.0493H14.7457V67.2787H15.9935V66.0493Z" fill="#136289"/>
<path d="M15.9752 54.9111H14.7457V56.1406H15.9752V54.9111Z" fill="#136289"/>
<path d="M15.9752 53.6631H14.7457V54.8925H15.9752V53.6631Z" fill="#136289"/>
<path d="M15.9752 52.4341H14.7457V53.6636H15.9752V52.4341Z" fill="#136289"/>
<path d="M14.7454 66.0493H13.5159V67.2787H14.7454V66.0493Z" fill="#136289"/>
<path d="M13.4977 64.8022H12.2682V66.0317H13.4977V64.8022Z" fill="#136289"/>
<path d="M13.4977 63.5723H12.2682V64.8018H13.4977V63.5723Z" fill="#136289"/>
<path d="M14.7454 57.3887H13.5159V58.6181H14.7454V57.3887Z" fill="#136289"/>
<path d="M14.7454 56.1406H13.5159V57.3701H14.7454V56.1406Z" fill="#136289"/>
<path d="M14.7454 54.9111H13.5159V56.1406H14.7454V54.9111Z" fill="#136289"/>
<path d="M13.4977 62.3247H12.2682V63.5541H13.4977V62.3247Z" fill="#136289"/>
<path d="M13.4977 61.0957H12.2682V62.3252H13.4977V61.0957Z" fill="#136289"/>
<path d="M13.4977 59.8472H12.2682V61.0767H13.4977V59.8472Z" fill="#136289"/>
<path d="M13.4977 58.6182H12.2682V59.8477H13.4977V58.6182Z" fill="#136289"/>
<path d="M13.4977 57.3887H12.2682V58.6181H13.4977V57.3887Z" fill="#136289"/>
</svg>
