<svg width="58" height="49" viewBox="0 0 58 49" fill="none" xmlns="http://www.w3.org/2000/svg">
<path d="M56.3555 42.6254V41.3776V40.1482V38.9003V37.6709V36.4414H55.1076H53.8782H52.6304H51.4009H50.1714H48.9236H47.6942H46.4463H45.2169H43.9691H42.7396H41.5101H40.2623H39.0329H37.785H36.5556H35.3078H34.0783H32.8489H31.601H30.3716H29.1238H27.8943H26.6465H25.417H24.1876V37.6709V38.9003V40.1482V41.3776V42.6254H22.9397V43.8549H21.7103H20.4625H19.233V42.6254H17.9852V41.3776V40.1482V38.9003V37.6709V36.4414H16.7557H15.5263H14.2784H13.049V37.6709V38.9003V40.1482H11.8012V41.3776H10.5717H9.3239H8.09444V40.1482H6.86498V38.9003V37.6709V36.4414H5.61717H4.3877V37.6709V38.9003V40.1482V41.3776V42.6254V43.8549V45.1027H5.61717V46.3322H6.86498V47.5616H8.09444V48.8094H9.3239H10.5717H11.8012H13.049H14.2784H15.5263H16.7557H17.9852H19.233H20.4625H21.7103H22.9397H24.1876H25.417H26.6465H27.8943H29.1238H30.3716H31.601H32.8489H34.0783H35.3078H36.5556H37.785H39.0329H40.2623H41.5101H42.7396H43.9691H45.2169H46.4463H47.6942H48.9236H50.1714H51.4009H52.6304V47.5616H53.8782V46.3322H55.1076V45.1027H56.3555V43.8549V42.6254Z" fill="#F19400"/>
<path d="M6.86498 20.3485H8.09444H9.3239H10.5717H11.8012H13.049H14.2784H15.5263H16.7557H17.9852H19.233H20.4625H21.7103H22.9397H24.1876H25.417H26.6465H27.8943H29.1238H30.3716H31.601H32.8489H34.0783H35.3078H36.5556H37.785H39.0329H40.2623H41.5101H42.7396H43.9691H45.2169H46.4463H47.6942H48.9236H50.1714H51.4009H52.6304H53.8782H55.1076H56.3555V19.119V17.8712V16.6417V15.3939V14.1644V12.9166V11.6872H55.1076V10.4577H53.8782H52.6304V9.2099H51.4009H50.1714V7.98044H48.9236H47.6942V6.73263H46.4463H45.2169V5.50315H43.9691H42.7396V4.25534H41.5101H40.2623V3.02588H39.0329H37.785H36.5556H35.3078H34.0783H32.8489H31.601H30.3716H29.1238H27.8943H26.6465H25.417H24.1876H22.9397H21.7103H20.4625V4.25534H19.233H17.9852V5.50315H16.7557H15.5263V6.73263H14.2784H13.049V7.98044H11.8012H10.5717V9.2099H9.3239H8.09444V10.4577H6.86498H5.61717V11.6872H4.3877V12.9166V14.1644V15.3939V16.6417V17.8712V19.119V20.3485H5.61717H6.86498Z" fill="#F19400"/>
<path d="M56.3553 27.7805V26.5327V25.3032H55.1075H53.878H52.6302H51.4008H50.1713H48.9235H47.694H46.4462H45.2167H43.9689H42.7395H41.51H40.2622H39.0327H37.7849H36.5554H35.3076H34.0782H32.8487H31.6009H30.3714H29.1236H27.8941H26.6463H25.4169H24.1874H22.9396H21.7101H20.4623H19.2329H17.9851H16.7556H15.5261H14.2783H13.0488H11.801H10.5716H9.32376H8.0943H6.86484H5.61703H4.38755H3.13974H1.91028V26.5327V27.7805V29.01V30.2394H3.13974H4.38755H5.61703H6.86484H8.0943H9.32376H10.5716H11.801H13.0488H14.2783H15.5261H16.7556H17.9851H19.2329H20.4623H21.7101H22.9396H24.1874H25.4169H26.6463H27.8941H29.1236H30.3714H31.6009H32.8487H34.0782H35.3076H36.5554H37.7849H39.0327H40.2622H41.51H42.7395H43.9689H45.2167H46.4462H47.694H48.9235H50.1713H51.4008H52.6302H53.878H55.1075H56.3553V29.01V27.7805Z" fill="#136289"/>
<path d="M6.84653 46.3325H5.61707V47.562H6.84653V46.3325Z" fill="#136289"/>
<path d="M5.61717 45.1021H4.3877V46.3315H5.61717V45.1021Z" fill="#136289"/>
<path d="M4.36949 43.855H3.14001V45.0844H4.36949V43.855Z" fill="#136289"/>
<path d="M35.3077 47.562H34.0782V48.7915H35.3077V47.562Z" fill="#136289"/>
<path d="M50.1532 47.562H48.9237V48.7915H50.1532V47.562Z" fill="#136289"/>
<path d="M48.9238 47.562H47.6943V48.7915H48.9238V47.562Z" fill="#136289"/>
<path d="M46.4464 47.562H45.2169V48.7915H46.4464V47.562Z" fill="#136289"/>
<path d="M47.6756 47.562H46.4462V48.7915H47.6756V47.562Z" fill="#136289"/>
<path d="M45.1987 47.562H43.9692V48.7915H45.1987V47.562Z" fill="#136289"/>
<path d="M43.969 47.562H42.7395V48.7915H43.969V47.562Z" fill="#136289"/>
<path d="M42.7396 47.562H41.5101V48.7915H42.7396V47.562Z" fill="#136289"/>
<path d="M41.4919 47.562H40.2625V48.7915H41.4919V47.562Z" fill="#136289"/>
<path d="M40.2622 47.562H39.0327V48.7915H40.2622V47.562Z" fill="#136289"/>
<path d="M39.0145 47.562H37.785V48.7915H39.0145V47.562Z" fill="#136289"/>
<path d="M36.5374 47.562H35.308V48.7915H36.5374V47.562Z" fill="#136289"/>
<path d="M37.7851 47.562H36.5557V48.7915H37.7851V47.562Z" fill="#136289"/>
<path d="M9.32394 47.562H8.09448V48.7915H9.32394V47.562Z" fill="#136289"/>
<path d="M8.09469 47.562H6.86523V48.7915H8.09469V47.562Z" fill="#136289"/>
<path d="M17.9852 47.562H16.7557V48.7915H17.9852V47.562Z" fill="#136289"/>
<path d="M16.7558 47.562H15.5264V48.7915H16.7558V47.562Z" fill="#136289"/>
<path d="M15.5078 47.562H14.2783V48.7915H15.5078V47.562Z" fill="#136289"/>
<path d="M14.2784 47.562H13.049V48.7915H14.2784V47.562Z" fill="#136289"/>
<path d="M13.0307 47.562H11.8013V48.7915H13.0307V47.562Z" fill="#136289"/>
<path d="M11.801 47.562H10.5715V48.7915H11.801V47.562Z" fill="#136289"/>
<path d="M10.5533 47.562H9.32385V48.7915H10.5533V47.562Z" fill="#136289"/>
<path d="M34.0783 47.562H32.8489V48.7915H34.0783V47.562Z" fill="#136289"/>
<path d="M32.8307 47.562H31.6012V48.7915H32.8307V47.562Z" fill="#136289"/>
<path d="M31.6009 47.562H30.3715V48.7915H31.6009V47.562Z" fill="#136289"/>
<path d="M30.3533 47.562H29.1238V48.7915H30.3533V47.562Z" fill="#136289"/>
<path d="M29.1239 47.562H27.8944V48.7915H29.1239V47.562Z" fill="#136289"/>
<path d="M27.8757 47.562H26.6462V48.7915H27.8757V47.562Z" fill="#136289"/>
<path d="M26.6465 47.562H25.417V48.7915H26.6465V47.562Z" fill="#136289"/>
<path d="M25.4171 47.562H24.1876V48.7915H25.4171V47.562Z" fill="#136289"/>
<path d="M24.169 47.562H22.9396V48.7915H24.169V47.562Z" fill="#136289"/>
<path d="M21.692 47.562H20.4625V48.7915H21.692V47.562Z" fill="#136289"/>
<path d="M22.9397 47.562H21.7102V48.7915H22.9397V47.562Z" fill="#136289"/>
<path d="M20.4623 47.562H19.2328V48.7915H20.4623V47.562Z" fill="#136289"/>
<path d="M19.2146 47.562H17.9851V48.7915H19.2146V47.562Z" fill="#136289"/>
<path d="M57.5851 29.0093H56.3556V30.2387H57.5851V29.0093Z" fill="#136289"/>
<path d="M57.5851 27.7798H56.3556V29.0092H57.5851V27.7798Z" fill="#136289"/>
<path d="M57.5851 26.5327H56.3556V27.7622H57.5851V26.5327Z" fill="#136289"/>
<path d="M57.5851 25.3032H56.3556V26.5327H57.5851V25.3032Z" fill="#136289"/>
<path d="M56.3369 42.6255H55.1074V43.8549H56.3369V42.6255Z" fill="#136289"/>
<path d="M56.3369 41.3774H55.1074V42.6069H56.3369V41.3774Z" fill="#136289"/>
<path d="M56.3369 40.1484H55.1074V41.3779H56.3369V40.1484Z" fill="#136289"/>
<path d="M56.3369 38.8999H55.1074V40.1294H56.3369V38.8999Z" fill="#136289"/>
<path d="M56.3369 37.6709H55.1074V38.9004H56.3369V37.6709Z" fill="#136289"/>
<path d="M56.3369 36.4414H55.1074V37.6709H56.3369V36.4414Z" fill="#136289"/>
<path d="M56.3369 35.1934H55.1074V36.4228H56.3369V35.1934Z" fill="#136289"/>
<path d="M56.3369 33.9639H55.1074V35.1933H56.3369V33.9639Z" fill="#136289"/>
<path d="M56.3369 30.2393H55.1074V31.4687H56.3369V30.2393Z" fill="#136289"/>
<path d="M56.3369 24.0552H55.1074V25.2846H56.3369V24.0552Z" fill="#136289"/>
<path d="M56.3369 19.1191H55.1074V20.3486H56.3369V19.1191Z" fill="#136289"/>
<path d="M56.3369 17.8711H55.1074V19.1006H56.3369V17.8711Z" fill="#136289"/>
<path d="M56.3369 16.6416H55.1074V17.8711H56.3369V16.6416Z" fill="#136289"/>
<path d="M56.3369 15.3936H55.1074V16.623H56.3369V15.3936Z" fill="#136289"/>
<path d="M56.3369 14.1641H55.1074V15.3935H56.3369V14.1641Z" fill="#136289"/>
<path d="M56.3369 12.917H55.1074V14.1465H56.3369V12.917Z" fill="#136289"/>
<path d="M56.3369 11.6865H55.1074V12.916H56.3369V11.6865Z" fill="#136289"/>
<path d="M56.3369 10.4575H55.1074V11.687H56.3369V10.4575Z" fill="#136289"/>
<path d="M56.3369 9.20996H55.1074V10.4394H56.3369V9.20996Z" fill="#136289"/>
<path d="M55.1076 43.855H53.8782V45.0844H55.1076V43.855Z" fill="#136289"/>
<path d="M55.1076 33.9639H53.8782V35.1933H55.1076V33.9639Z" fill="#136289"/>
<path d="M55.1076 30.2393H53.8782V31.4687H55.1076V30.2393Z" fill="#136289"/>
<path d="M55.1076 24.0552H53.8782V25.2846H55.1076V24.0552Z" fill="#136289"/>
<path d="M55.1076 19.1191H53.8782V20.3486H55.1076V19.1191Z" fill="#136289"/>
<path d="M55.1076 9.20996H53.8782V10.4394H55.1076V9.20996Z" fill="#136289"/>
<path d="M55.1076 7.97998H53.8782V9.20944H55.1076V7.97998Z" fill="#136289"/>
<path d="M53.86 45.1021H52.6305V46.3315H53.86V45.1021Z" fill="#136289"/>
<path d="M53.86 33.9639H52.6305V35.1933H53.86V33.9639Z" fill="#136289"/>
<path d="M53.86 30.2393H52.6305V31.4687H53.86V30.2393Z" fill="#136289"/>
<path d="M53.86 24.0552H52.6305V25.2846H53.86V24.0552Z" fill="#136289"/>
<path d="M53.86 19.1191H52.6305V20.3486H53.86V19.1191Z" fill="#136289"/>
<path d="M53.86 7.97998H52.6305V9.20944H53.86V7.97998Z" fill="#136289"/>
<path d="M52.6301 46.3325H51.4006V47.562H52.6301V46.3325Z" fill="#136289"/>
<path d="M52.6301 33.9639H51.4006V35.1933H52.6301V33.9639Z" fill="#136289"/>
<path d="M52.6301 30.2393H51.4006V31.4687H52.6301V30.2393Z" fill="#136289"/>
<path d="M52.6301 24.0552H51.4006V25.2846H52.6301V24.0552Z" fill="#136289"/>
<path d="M52.6301 19.1191H51.4006V20.3486H52.6301V19.1191Z" fill="#136289"/>
<path d="M52.6301 7.97998H51.4006V9.20944H52.6301V7.97998Z" fill="#136289"/>
<path d="M52.6301 6.73242H51.4006V7.96188H52.6301V6.73242Z" fill="#136289"/>
<path d="M51.4009 47.562H50.1714V48.7915H51.4009V47.562Z" fill="#136289"/>
<path d="M51.4009 33.9639H50.1714V35.1933H51.4009V33.9639Z" fill="#136289"/>
<path d="M51.4009 30.2393H50.1714V31.4687H51.4009V30.2393Z" fill="#136289"/>
<path d="M51.4009 24.0552H50.1714V25.2846H51.4009V24.0552Z" fill="#136289"/>
<path d="M51.4009 19.1191H50.1714V20.3486H51.4009V19.1191Z" fill="#136289"/>
<path d="M51.4009 6.73242H50.1714V7.96188H51.4009V6.73242Z" fill="#136289"/>
<path d="M50.1532 33.9639H48.9237V35.1933H50.1532V33.9639Z" fill="#136289"/>
<path d="M50.1532 30.2393H48.9237V31.4687H50.1532V30.2393Z" fill="#136289"/>
<path d="M50.1532 24.0552H48.9237V25.2846H50.1532V24.0552Z" fill="#136289"/>
<path d="M50.1532 19.1191H48.9237V20.3486H50.1532V19.1191Z" fill="#136289"/>
<path d="M50.1532 6.73242H48.9237V7.96188H50.1532V6.73242Z" fill="#136289"/>
<path d="M50.1532 5.50342H48.9237V6.73289H50.1532V5.50342Z" fill="#136289"/>
<path d="M48.9238 33.9639H47.6943V35.1933H48.9238V33.9639Z" fill="#136289"/>
<path d="M48.9238 30.2393H47.6943V31.4687H48.9238V30.2393Z" fill="#136289"/>
<path d="M48.9238 24.0552H47.6943V25.2846H48.9238V24.0552Z" fill="#136289"/>
<path d="M48.9238 19.1191H47.6943V20.3486H48.9238V19.1191Z" fill="#136289"/>
<path d="M48.9238 5.50342H47.6943V6.73289H48.9238V5.50342Z" fill="#136289"/>
<path d="M47.6756 33.9639H46.4462V35.1933H47.6756V33.9639Z" fill="#136289"/>
<path d="M47.6756 30.2393H46.4462V31.4687H47.6756V30.2393Z" fill="#136289"/>
<path d="M47.6756 24.0552H46.4462V25.2846H47.6756V24.0552Z" fill="#136289"/>
<path d="M47.6756 19.1191H46.4462V20.3486H47.6756V19.1191Z" fill="#136289"/>
<path d="M47.6756 5.50342H46.4462V6.73289H47.6756V5.50342Z" fill="#136289"/>
<path d="M47.6756 4.25537H46.4462V5.48484H47.6756V4.25537Z" fill="#136289"/>
<path d="M46.4464 33.9639H45.2169V35.1933H46.4464V33.9639Z" fill="#136289"/>
<path d="M46.4464 30.2393H45.2169V31.4687H46.4464V30.2393Z" fill="#136289"/>
<path d="M46.4464 24.0552H45.2169V25.2846H46.4464V24.0552Z" fill="#136289"/>
<path d="M46.4464 19.1191H45.2169V20.3486H46.4464V19.1191Z" fill="#136289"/>
<path d="M46.4464 4.25537H45.2169V5.48484H46.4464V4.25537Z" fill="#136289"/>
<path d="M45.1987 33.9639H43.9692V35.1933H45.1987V33.9639Z" fill="#136289"/>
<path d="M45.1987 30.2393H43.9692V31.4687H45.1987V30.2393Z" fill="#136289"/>
<path d="M45.1987 24.0552H43.9692V25.2846H45.1987V24.0552Z" fill="#136289"/>
<path d="M45.1987 19.1191H43.9692V20.3486H45.1987V19.1191Z" fill="#136289"/>
<path d="M45.1987 4.25537H43.9692V5.48484H45.1987V4.25537Z" fill="#136289"/>
<path d="M45.1987 3.02588H43.9692V4.25534H45.1987V3.02588Z" fill="#136289"/>
<path d="M43.969 33.9639H42.7395V35.1933H43.969V33.9639Z" fill="#136289"/>
<path d="M43.969 30.2393H42.7395V31.4687H43.969V30.2393Z" fill="#136289"/>
<path d="M43.969 24.0552H42.7395V25.2846H43.969V24.0552Z" fill="#136289"/>
<path d="M43.969 19.1191H42.7395V20.3486H43.969V19.1191Z" fill="#136289"/>
<path d="M43.969 3.02588H42.7395V4.25534H43.969V3.02588Z" fill="#136289"/>
<path d="M42.7396 33.9639H41.5101V35.1933H42.7396V33.9639Z" fill="#136289"/>
<path d="M42.7396 30.2393H41.5101V31.4687H42.7396V30.2393Z" fill="#136289"/>
<path d="M42.7396 24.0552H41.5101V25.2846H42.7396V24.0552Z" fill="#136289"/>
<path d="M42.7396 19.1191H41.5101V20.3486H42.7396V19.1191Z" fill="#136289"/>
<path d="M42.7396 3.02588H41.5101V4.25534H42.7396V3.02588Z" fill="#136289"/>
<path d="M42.7396 1.79639H41.5101V3.02585H42.7396V1.79639Z" fill="#136289"/>
<path d="M41.4919 33.9639H40.2625V35.1933H41.4919V33.9639Z" fill="#136289"/>
<path d="M41.4919 30.2393H40.2625V31.4687H41.4919V30.2393Z" fill="#136289"/>
<path d="M41.4919 24.0552H40.2625V25.2846H41.4919V24.0552Z" fill="#136289"/>
<path d="M41.4919 19.1191H40.2625V20.3486H41.4919V19.1191Z" fill="#136289"/>
<path d="M41.4919 1.79639H40.2625V3.02585H41.4919V1.79639Z" fill="#136289"/>
<path d="M40.2622 33.9639H39.0327V35.1933H40.2622V33.9639Z" fill="#136289"/>
<path d="M40.2622 30.2393H39.0327V31.4687H40.2622V30.2393Z" fill="#136289"/>
<path d="M40.2622 24.0552H39.0327V25.2846H40.2622V24.0552Z" fill="#136289"/>
<path d="M40.2622 19.1191H39.0327V20.3486H40.2622V19.1191Z" fill="#136289"/>
<path d="M40.2622 1.79639H39.0327V3.02585H40.2622V1.79639Z" fill="#136289"/>
<path d="M40.2622 0.54834H39.0327V1.7778H40.2622V0.54834Z" fill="#136289"/>
<path d="M39.0145 33.9639H37.785V35.1933H39.0145V33.9639Z" fill="#136289"/>
<path d="M39.0145 30.2393H37.785V31.4687H39.0145V30.2393Z" fill="#136289"/>
<path d="M39.0145 24.0552H37.785V25.2846H39.0145V24.0552Z" fill="#136289"/>
<path d="M39.0145 19.1191H37.785V20.3486H39.0145V19.1191Z" fill="#136289"/>
<path d="M39.0145 0.54834H37.785V1.7778H39.0145V0.54834Z" fill="#136289"/>
<path d="M37.7851 33.9639H36.5557V35.1933H37.7851V33.9639Z" fill="#136289"/>
<path d="M37.7851 30.2393H36.5557V31.4687H37.7851V30.2393Z" fill="#136289"/>
<path d="M37.7851 24.0552H36.5557V25.2846H37.7851V24.0552Z" fill="#136289"/>
<path d="M37.7851 19.1191H36.5557V20.3486H37.7851V19.1191Z" fill="#136289"/>
<path d="M37.7851 0.54834H36.5557V1.7778H37.7851V0.54834Z" fill="#136289"/>
<path d="M36.5374 33.9639H35.308V35.1933H36.5374V33.9639Z" fill="#136289"/>
<path d="M36.5374 30.2393H35.308V31.4687H36.5374V30.2393Z" fill="#136289"/>
<path d="M36.5374 24.0552H35.308V25.2846H36.5374V24.0552Z" fill="#136289"/>
<path d="M36.5374 19.1191H35.308V20.3486H36.5374V19.1191Z" fill="#136289"/>
<path d="M36.5374 0.54834H35.308V1.7778H36.5374V0.54834Z" fill="#136289"/>
<path d="M35.3077 33.9639H34.0782V35.1933H35.3077V33.9639Z" fill="#136289"/>
<path d="M35.3077 30.2393H34.0782V31.4687H35.3077V30.2393Z" fill="#136289"/>
<path d="M35.3077 24.0552H34.0782V25.2846H35.3077V24.0552Z" fill="#136289"/>
<path d="M35.3077 19.1191H34.0782V20.3486H35.3077V19.1191Z" fill="#136289"/>
<path d="M35.3077 0.54834H34.0782V1.7778H35.3077V0.54834Z" fill="#136289"/>
<path d="M34.0783 33.9639H32.8489V35.1933H34.0783V33.9639Z" fill="#136289"/>
<path d="M34.0783 30.2393H32.8489V31.4687H34.0783V30.2393Z" fill="#136289"/>
<path d="M34.0783 24.0552H32.8489V25.2846H34.0783V24.0552Z" fill="#136289"/>
<path d="M34.0783 19.1191H32.8489V20.3486H34.0783V19.1191Z" fill="#136289"/>
<path d="M34.0783 0.54834H32.8489V1.7778H34.0783V0.54834Z" fill="#136289"/>
<path d="M32.8307 33.9639H31.6012V35.1933H32.8307V33.9639Z" fill="#136289"/>
<path d="M32.8307 30.2393H31.6012V31.4687H32.8307V30.2393Z" fill="#136289"/>
<path d="M32.8307 24.0552H31.6012V25.2846H32.8307V24.0552Z" fill="#136289"/>
<path d="M32.8307 19.1191H31.6012V20.3486H32.8307V19.1191Z" fill="#136289"/>
<path d="M32.8307 0.54834H31.6012V1.7778H32.8307V0.54834Z" fill="#136289"/>
<path d="M31.6009 33.9639H30.3715V35.1933H31.6009V33.9639Z" fill="#136289"/>
<path d="M31.6009 30.2393H30.3715V31.4687H31.6009V30.2393Z" fill="#136289"/>
<path d="M31.6009 24.0552H30.3715V25.2846H31.6009V24.0552Z" fill="#136289"/>
<path d="M31.6009 19.1191H30.3715V20.3486H31.6009V19.1191Z" fill="#136289"/>
<path d="M31.6009 0.54834H30.3715V1.7778H31.6009V0.54834Z" fill="#136289"/>
<path d="M30.3533 33.9639H29.1238V35.1933H30.3533V33.9639Z" fill="#136289"/>
<path d="M30.3533 30.2393H29.1238V31.4687H30.3533V30.2393Z" fill="#136289"/>
<path d="M30.3533 24.0552H29.1238V25.2846H30.3533V24.0552Z" fill="#136289"/>
<path d="M30.3533 19.1191H29.1238V20.3486H30.3533V19.1191Z" fill="#136289"/>
<path d="M30.3533 0.54834H29.1238V1.7778H30.3533V0.54834Z" fill="#136289"/>
<path d="M29.1239 33.9639H27.8944V35.1933H29.1239V33.9639Z" fill="#136289"/>
<path d="M29.1239 30.2393H27.8944V31.4687H29.1239V30.2393Z" fill="#136289"/>
<path d="M29.1239 24.0552H27.8944V25.2846H29.1239V24.0552Z" fill="#136289"/>
<path d="M29.1239 19.1191H27.8944V20.3486H29.1239V19.1191Z" fill="#136289"/>
<path d="M29.1239 0.54834H27.8944V1.7778H29.1239V0.54834Z" fill="#136289"/>
<path d="M27.8757 33.9639H26.6462V35.1933H27.8757V33.9639Z" fill="#136289"/>
<path d="M27.8757 30.2393H26.6462V31.4687H27.8757V30.2393Z" fill="#136289"/>
<path d="M27.8757 24.0552H26.6462V25.2846H27.8757V24.0552Z" fill="#136289"/>
<path d="M27.8757 19.1191H26.6462V20.3486H27.8757V19.1191Z" fill="#136289"/>
<path d="M27.8757 0.54834H26.6462V1.7778H27.8757V0.54834Z" fill="#136289"/>
<path d="M26.6465 33.9639H25.417V35.1933H26.6465V33.9639Z" fill="#136289"/>
<path d="M26.6465 30.2393H25.417V31.4687H26.6465V30.2393Z" fill="#136289"/>
<path d="M26.6465 24.0552H25.417V25.2846H26.6465V24.0552Z" fill="#136289"/>
<path d="M26.6465 19.1191H25.417V20.3486H26.6465V19.1191Z" fill="#136289"/>
<path d="M26.6465 0.54834H25.417V1.7778H26.6465V0.54834Z" fill="#136289"/>
<path d="M25.4171 33.9639H24.1876V35.1933H25.4171V33.9639Z" fill="#136289"/>
<path d="M25.4171 30.2393H24.1876V31.4687H25.4171V30.2393Z" fill="#136289"/>
<path d="M25.4171 24.0552H24.1876V25.2846H25.4171V24.0552Z" fill="#136289"/>
<path d="M25.4171 19.1191H24.1876V20.3486H25.4171V19.1191Z" fill="#136289"/>
<path d="M25.4171 0.54834H24.1876V1.7778H25.4171V0.54834Z" fill="#136289"/>
<path d="M24.169 33.9639H22.9396V35.1933H24.169V33.9639Z" fill="#136289"/>
<path d="M24.169 30.2393H22.9396V31.4687H24.169V30.2393Z" fill="#136289"/>
<path d="M24.169 24.0552H22.9396V25.2846H24.169V24.0552Z" fill="#136289"/>
<path d="M24.169 19.1191H22.9396V20.3486H24.169V19.1191Z" fill="#136289"/>
<path d="M24.169 0.54834H22.9396V1.7778H24.169V0.54834Z" fill="#136289"/>
<path d="M22.9397 40.1484H21.7102V41.3779H22.9397V40.1484Z" fill="#136289"/>
<path d="M22.9397 38.8999H21.7102V40.1294H22.9397V38.8999Z" fill="#136289"/>
<path d="M22.9397 37.6709H21.7102V38.9004H22.9397V37.6709Z" fill="#136289"/>
<path d="M22.9397 36.4414H21.7102V37.6709H22.9397V36.4414Z" fill="#136289"/>
<path d="M22.9397 35.1934H21.7102V36.4228H22.9397V35.1934Z" fill="#136289"/>
<path d="M22.9397 33.9639H21.7102V35.1933H22.9397V33.9639Z" fill="#136289"/>
<path d="M22.9397 30.2393H21.7102V31.4687H22.9397V30.2393Z" fill="#136289"/>
<path d="M22.9397 24.0552H21.7102V25.2846H22.9397V24.0552Z" fill="#136289"/>
<path d="M22.9397 19.1191H21.7102V20.3486H22.9397V19.1191Z" fill="#136289"/>
<path d="M22.9397 0.54834H21.7102V1.7778H22.9397V0.54834Z" fill="#136289"/>
<path d="M21.692 41.3774H20.4625V42.6069H21.692V41.3774Z" fill="#136289"/>
<path d="M21.692 40.1484H20.4625V41.3779H21.692V40.1484Z" fill="#136289"/>
<path d="M21.692 30.2393H20.4625V31.4687H21.692V30.2393Z" fill="#136289"/>
<path d="M21.692 24.0552H20.4625V25.2846H21.692V24.0552Z" fill="#136289"/>
<path d="M21.692 19.1191H20.4625V20.3486H21.692V19.1191Z" fill="#136289"/>
<path d="M21.692 0.54834H20.4625V1.7778H21.692V0.54834Z" fill="#136289"/>
<path d="M20.4623 41.3774H19.2328V42.6069H20.4623V41.3774Z" fill="#136289"/>
<path d="M20.4623 30.2393H19.2328V31.4687H20.4623V30.2393Z" fill="#136289"/>
<path d="M20.4623 24.0552H19.2328V25.2846H20.4623V24.0552Z" fill="#136289"/>
<path d="M20.4623 19.1191H19.2328V20.3486H20.4623V19.1191Z" fill="#136289"/>
<path d="M20.4623 0.54834H19.2328V1.7778H20.4623V0.54834Z" fill="#136289"/>
<path d="M19.2146 41.3774H17.9851V42.6069H19.2146V41.3774Z" fill="#136289"/>
<path d="M19.2146 40.1484H17.9851V41.3779H19.2146V40.1484Z" fill="#136289"/>
<path d="M19.2146 30.2393H17.9851V31.4687H19.2146V30.2393Z" fill="#136289"/>
<path d="M19.2146 24.0552H17.9851V25.2846H19.2146V24.0552Z" fill="#136289"/>
<path d="M19.2146 19.1191H17.9851V20.3486H19.2146V19.1191Z" fill="#136289"/>
<path d="M19.2146 1.79639H17.9851V3.02585H19.2146V1.79639Z" fill="#136289"/>
<path d="M19.2146 0.54834H17.9851V1.7778H19.2146V0.54834Z" fill="#136289"/>
<path d="M17.9852 40.1484H16.7557V41.3779H17.9852V40.1484Z" fill="#136289"/>
<path d="M17.9852 38.8999H16.7557V40.1294H17.9852V38.8999Z" fill="#136289"/>
<path d="M17.9852 37.6709H16.7557V38.9004H17.9852V37.6709Z" fill="#136289"/>
<path d="M17.9852 36.4414H16.7557V37.6709H17.9852V36.4414Z" fill="#136289"/>
<path d="M17.9852 35.1934H16.7557V36.4228H17.9852V35.1934Z" fill="#136289"/>
<path d="M17.9852 33.9639H16.7557V35.1933H17.9852V33.9639Z" fill="#136289"/>
<path d="M17.9852 30.2393H16.7557V31.4687H17.9852V30.2393Z" fill="#136289"/>
<path d="M17.9852 24.0552H16.7557V25.2846H17.9852V24.0552Z" fill="#136289"/>
<path d="M17.9852 19.1191H16.7557V20.3486H17.9852V19.1191Z" fill="#136289"/>
<path d="M17.9852 1.79639H16.7557V3.02585H17.9852V1.79639Z" fill="#136289"/>
<path d="M16.7558 33.9639H15.5264V35.1933H16.7558V33.9639Z" fill="#136289"/>
<path d="M16.7558 30.2393H15.5264V31.4687H16.7558V30.2393Z" fill="#136289"/>
<path d="M16.7558 24.0552H15.5264V25.2846H16.7558V24.0552Z" fill="#136289"/>
<path d="M16.7558 19.1191H15.5264V20.3486H16.7558V19.1191Z" fill="#136289"/>
<path d="M16.7558 1.79639H15.5264V3.02585H16.7558V1.79639Z" fill="#136289"/>
<path d="M15.5078 33.9639H14.2783V35.1933H15.5078V33.9639Z" fill="#136289"/>
<path d="M15.5078 30.2393H14.2783V31.4687H15.5078V30.2393Z" fill="#136289"/>
<path d="M15.5078 24.0552H14.2783V25.2846H15.5078V24.0552Z" fill="#136289"/>
<path d="M15.5078 19.1191H14.2783V20.3486H15.5078V19.1191Z" fill="#136289"/>
<path d="M15.5078 3.02588H14.2783V4.25534H15.5078V3.02588Z" fill="#136289"/>
<path d="M16.7558 3.02588H15.5264V4.25534H16.7558V3.02588Z" fill="#136289"/>
<path d="M14.2784 33.9639H13.049V35.1933H14.2784V33.9639Z" fill="#136289"/>
<path d="M14.2784 30.2393H13.049V31.4687H14.2784V30.2393Z" fill="#136289"/>
<path d="M14.2784 24.0552H13.049V25.2846H14.2784V24.0552Z" fill="#136289"/>
<path d="M14.2784 19.1191H13.049V20.3486H14.2784V19.1191Z" fill="#136289"/>
<path d="M14.2784 4.25537H13.049V5.48484H14.2784V4.25537Z" fill="#136289"/>
<path d="M14.2784 3.02588H13.049V4.25534H14.2784V3.02588Z" fill="#136289"/>
<path d="M13.0307 33.9639H11.8013V35.1933H13.0307V33.9639Z" fill="#136289"/>
<path d="M13.0307 30.2393H11.8013V31.4687H13.0307V30.2393Z" fill="#136289"/>
<path d="M13.0307 24.0552H11.8013V25.2846H13.0307V24.0552Z" fill="#136289"/>
<path d="M13.0307 19.1191H11.8013V20.3486H13.0307V19.1191Z" fill="#136289"/>
<path d="M13.0307 4.25537H11.8013V5.48484H13.0307V4.25537Z" fill="#136289"/>
<path d="M11.801 37.6709H10.5715V38.9004H11.801V37.6709Z" fill="#136289"/>
<path d="M11.801 36.4414H10.5715V37.6709H11.801V36.4414Z" fill="#136289"/>
<path d="M11.801 35.1934H10.5715V36.4228H11.801V35.1934Z" fill="#136289"/>
<path d="M11.801 33.9639H10.5715V35.1933H11.801V33.9639Z" fill="#136289"/>
<path d="M11.801 30.2393H10.5715V31.4687H11.801V30.2393Z" fill="#136289"/>
<path d="M11.801 24.0552H10.5715V25.2846H11.801V24.0552Z" fill="#136289"/>
<path d="M11.801 19.1191H10.5715V20.3486H11.801V19.1191Z" fill="#136289"/>
<path d="M11.801 5.50342H10.5715V6.73289H11.801V5.50342Z" fill="#136289"/>
<path d="M11.801 4.25537H10.5715V5.48484H11.801V4.25537Z" fill="#136289"/>
<path d="M10.5533 38.8999H9.32385V40.1294H10.5533V38.8999Z" fill="#136289"/>
<path d="M10.5533 37.6709H9.32385V38.9004H10.5533V37.6709Z" fill="#136289"/>
<path d="M10.5533 30.2393H9.32385V31.4687H10.5533V30.2393Z" fill="#136289"/>
<path d="M10.5533 24.0552H9.32385V25.2846H10.5533V24.0552Z" fill="#136289"/>
<path d="M10.5533 19.1191H9.32385V20.3486H10.5533V19.1191Z" fill="#136289"/>
<path d="M10.5533 5.50342H9.32385V6.73289H10.5533V5.50342Z" fill="#136289"/>
<path d="M9.32394 38.8999H8.09448V40.1294H9.32394V38.8999Z" fill="#136289"/>
<path d="M9.32394 30.2393H8.09448V31.4687H9.32394V30.2393Z" fill="#136289"/>
<path d="M9.32394 24.0552H8.09448V25.2846H9.32394V24.0552Z" fill="#136289"/>
<path d="M9.32394 19.1191H8.09448V20.3486H9.32394V19.1191Z" fill="#136289"/>
<path d="M9.32394 6.73242H8.09448V7.96188H9.32394V6.73242Z" fill="#136289"/>
<path d="M9.32394 5.50342H8.09448V6.73289H9.32394V5.50342Z" fill="#136289"/>
<path d="M8.09469 38.8999H6.86523V40.1294H8.09469V38.8999Z" fill="#136289"/>
<path d="M8.09469 37.6709H6.86523V38.9004H8.09469V37.6709Z" fill="#136289"/>
<path d="M8.09469 30.2393H6.86523V31.4687H8.09469V30.2393Z" fill="#136289"/>
<path d="M8.09469 24.0552H6.86523V25.2846H8.09469V24.0552Z" fill="#136289"/>
<path d="M8.09469 19.1191H6.86523V20.3486H8.09469V19.1191Z" fill="#136289"/>
<path d="M8.09469 6.73242H6.86523V7.96188H8.09469V6.73242Z" fill="#136289"/>
<path d="M6.84653 37.6709H5.61707V38.9004H6.84653V37.6709Z" fill="#136289"/>
<path d="M6.84653 36.4414H5.61707V37.6709H6.84653V36.4414Z" fill="#136289"/>
<path d="M6.84653 35.1934H5.61707V36.4228H6.84653V35.1934Z" fill="#136289"/>
<path d="M6.84653 33.9639H5.61707V35.1933H6.84653V33.9639Z" fill="#136289"/>
<path d="M6.84653 30.2393H5.61707V31.4687H6.84653V30.2393Z" fill="#136289"/>
<path d="M6.84653 24.0552H5.61707V25.2846H6.84653V24.0552Z" fill="#136289"/>
<path d="M6.84653 19.1191H5.61707V20.3486H6.84653V19.1191Z" fill="#136289"/>
<path d="M6.84653 7.97998H5.61707V9.20944H6.84653V7.97998Z" fill="#136289"/>
<path d="M6.84653 6.73242H5.61707V7.96188H6.84653V6.73242Z" fill="#136289"/>
<path d="M5.61717 33.9639H4.3877V35.1933H5.61717V33.9639Z" fill="#136289"/>
<path d="M5.61717 30.2393H4.3877V31.4687H5.61717V30.2393Z" fill="#136289"/>
<path d="M5.61717 24.0552H4.3877V25.2846H5.61717V24.0552Z" fill="#136289"/>
<path d="M5.61717 19.1191H4.3877V20.3486H5.61717V19.1191Z" fill="#136289"/>
<path d="M5.61717 7.97998H4.3877V9.20944H5.61717V7.97998Z" fill="#136289"/>
<path d="M4.36949 33.9639H3.14001V35.1933H4.36949V33.9639Z" fill="#136289"/>
<path d="M4.36949 30.2393H3.14001V31.4687H4.36949V30.2393Z" fill="#136289"/>
<path d="M4.36949 24.0552H3.14001V25.2846H4.36949V24.0552Z" fill="#136289"/>
<path d="M4.36949 19.1191H3.14001V20.3486H4.36949V19.1191Z" fill="#136289"/>
<path d="M4.36949 7.97998H3.14001V9.20944H4.36949V7.97998Z" fill="#136289"/>
<path d="M4.36949 9.20996H3.14001V10.4394H4.36949V9.20996Z" fill="#136289"/>
<path d="M3.13974 42.6255H1.91028V43.8549H3.13974V42.6255Z" fill="#136289"/>
<path d="M3.13974 41.3774H1.91028V42.6069H3.13974V41.3774Z" fill="#136289"/>
<path d="M3.13974 40.1484H1.91028V41.3779H3.13974V40.1484Z" fill="#136289"/>
<path d="M3.13974 38.8999H1.91028V40.1294H3.13974V38.8999Z" fill="#136289"/>
<path d="M3.13974 37.6709H1.91028V38.9004H3.13974V37.6709Z" fill="#136289"/>
<path d="M3.13974 36.4414H1.91028V37.6709H3.13974V36.4414Z" fill="#136289"/>
<path d="M3.13974 35.1934H1.91028V36.4228H3.13974V35.1934Z" fill="#136289"/>
<path d="M3.13974 33.9639H1.91028V35.1933H3.13974V33.9639Z" fill="#136289"/>
<path d="M3.13974 30.2393H1.91028V31.4687H3.13974V30.2393Z" fill="#136289"/>
<path d="M3.13974 24.0552H1.91028V25.2846H3.13974V24.0552Z" fill="#136289"/>
<path d="M3.13974 19.1191H1.91028V20.3486H3.13974V19.1191Z" fill="#136289"/>
<path d="M3.13974 17.8711H1.91028V19.1006H3.13974V17.8711Z" fill="#136289"/>
<path d="M3.13974 16.6416H1.91028V17.8711H3.13974V16.6416Z" fill="#136289"/>
<path d="M3.13974 15.3936H1.91028V16.623H3.13974V15.3936Z" fill="#136289"/>
<path d="M3.13974 14.1641H1.91028V15.3935H3.13974V14.1641Z" fill="#136289"/>
<path d="M3.13974 12.917H1.91028V14.1465H3.13974V12.917Z" fill="#136289"/>
<path d="M3.13974 11.6865H1.91028V12.916H3.13974V11.6865Z" fill="#136289"/>
<path d="M3.13974 10.4575H1.91028V11.687H3.13974V10.4575Z" fill="#136289"/>
<path d="M3.13974 9.20996H1.91028V10.4394H3.13974V9.20996Z" fill="#136289"/>
<path d="M1.89206 29.0093H0.662598V30.2387H1.89206V29.0093Z" fill="#136289"/>
<path d="M1.89206 27.7798H0.662598V29.0092H1.89206V27.7798Z" fill="#136289"/>
<path d="M1.89206 26.5327H0.662598V27.7622H1.89206V26.5327Z" fill="#136289"/>
<path d="M1.89206 25.3032H0.662598V26.5327H1.89206V25.3032Z" fill="#136289"/>
</svg>
