<svg width="79" height="79" viewBox="0 0 79 79" fill="none" xmlns="http://www.w3.org/2000/svg">
<path d="M61.9424 65.3264V66.7027H60.5661H59.1899V68.079V69.4552H57.8136V68.079H56.4373V66.7027V65.3264H55.0611V63.9502V62.5739H53.7032V61.1976H52.3269H50.9506V62.5739H49.5744V63.9502V65.3264H48.1981V66.7027V68.079H46.8218V69.4552H45.4456V68.079V66.7027H44.0693H42.6931V65.3264V63.9502H44.0693V62.5739H45.4456V61.1976V59.8214H46.8218V58.4451V55.7109H48.1981H49.5744V57.0689H50.9506H52.3269H53.7032V55.7109H55.0611H56.4373H57.8136V57.0689V58.4451V59.8214H59.1899V61.1976V62.5739H60.5661V63.9502H61.9424V65.3264Z" fill="#F19400"/>
<path d="M69.7412 53.3984H68.3649V54.7747H69.7412V53.3984Z" fill="#136289"/>
<path d="M69.7412 52.022H68.3649V53.3982H69.7412V52.022Z" fill="#136289"/>
<path d="M69.7412 50.646H68.3649V52.0223H69.7412V50.646Z" fill="#136289"/>
<path d="M69.7412 49.2695H68.3649V50.6458H69.7412V49.2695Z" fill="#136289"/>
<path d="M69.7412 47.8936H68.3649V49.2698H69.7412V47.8936Z" fill="#136289"/>
<path d="M69.7412 46.5171H68.3649V47.8934H69.7412V46.5171Z" fill="#136289"/>
<path d="M69.7412 45.1406H68.3649V46.5169H69.7412V45.1406Z" fill="#136289"/>
<path d="M69.7412 43.7646H68.3649V45.1409H69.7412V43.7646Z" fill="#136289"/>
<path d="M69.7412 42.3882H68.3649V43.7644H69.7412V42.3882Z" fill="#136289"/>
<path d="M69.7412 41.0122H68.3649V42.3885H69.7412V41.0122Z" fill="#136289"/>
<path d="M69.7412 39.6357H68.3649V41.012H69.7412V39.6357Z" fill="#136289"/>
<path d="M69.7412 38.2593H68.3649V39.6355H69.7412V38.2593Z" fill="#136289"/>
<path d="M69.7412 36.8833H68.3649V38.2596H69.7412V36.8833Z" fill="#136289"/>
<path d="M69.7412 35.5259H68.3649V36.8838H69.7412V35.5259Z" fill="#136289"/>
<path d="M69.7412 34.1494H68.3649V35.5257H69.7412V34.1494Z" fill="#136289"/>
<path d="M69.7412 32.7734H68.3649V34.1497H69.7412V32.7734Z" fill="#136289"/>
<path d="M69.7412 31.397H68.3649V32.7732H69.7412V31.397Z" fill="#136289"/>
<path d="M69.7412 30.0205H68.3649V31.3968H69.7412V30.0205Z" fill="#136289"/>
<path d="M69.7412 28.6445H68.3649V30.0208H69.7412V28.6445Z" fill="#136289"/>
<path d="M69.7412 27.2681H68.3649V28.6443H69.7412V27.2681Z" fill="#136289"/>
<path d="M69.7412 25.8921H68.3649V27.2684H69.7412V25.8921Z" fill="#136289"/>
<path d="M69.7412 24.5156H68.3649V25.8919H69.7412V24.5156Z" fill="#136289"/>
<path d="M69.7412 23.1396H68.3649V24.5159H69.7412V23.1396Z" fill="#136289"/>
<path d="M69.7412 21.7632H68.3649V23.1394H69.7412V21.7632Z" fill="#136289"/>
<path d="M69.7412 20.3867H68.3649V21.763H69.7412V20.3867Z" fill="#136289"/>
<path d="M69.7412 19.0107H68.3649V20.387H69.7412V19.0107Z" fill="#136289"/>
<path d="M69.7412 17.6343H68.3649V19.0105H69.7412V17.6343Z" fill="#136289"/>
<path d="M69.7412 16.2583H68.3649V17.6346H69.7412V16.2583Z" fill="#136289"/>
<path d="M69.7412 14.8999H68.3649V16.2578H69.7412V14.8999Z" fill="#136289"/>
<path d="M69.7412 13.5234H68.3649V14.8997H69.7412V13.5234Z" fill="#136289"/>
<path d="M69.7412 12.147H68.3649V13.5232H69.7412V12.147Z" fill="#136289"/>
<path d="M69.7412 10.771H68.3649V12.1473H69.7412V10.771Z" fill="#136289"/>
<path d="M68.3649 54.7749H66.9886V56.1328H68.3649V54.7749Z" fill="#136289"/>
<path d="M68.365 53.3985V54.7748H66.9887H65.6124H64.2362H62.8599H58.7311H57.3549V53.3985H58.7311V52.0222H60.1074V50.646H61.4837V49.2697V47.8934V46.5172V45.1409V43.7646V42.3884V41.0121V39.6359V38.2596V36.8833H62.8599V28.6441V27.2678V25.8916V24.5153V23.139H61.4837H60.1074H58.7311V21.7628H57.3549V20.3865H55.9786V19.0102V17.634H54.6023V16.2577H53.2444H51.8682H50.4919H49.1156H47.7394H46.3631H44.9868H43.6106H42.2343H40.858H39.4818H38.1055H36.7292H35.353H33.9951H32.6188H31.2425H29.8663H28.49H27.1137H25.7375H24.3612V10.771H25.7375H27.1137H28.49H29.8663H31.2425H32.6188H33.9951H35.353H36.7292H38.1055H39.4818H40.858H42.2343H43.6106H44.9868H46.3631H47.7394H49.1156H50.4919H51.8682H53.2444H54.6023H55.9786H57.3549H58.7311H60.1074H61.4837H62.8599H64.2362H65.6124H66.9887H68.365V12.1473V13.5235V14.8998V16.2577V17.634V19.0102V20.3865V21.7628V23.139V24.5153V25.8916V27.2678V28.6441V30.0203V31.3966V32.7729V34.1491V35.5254V36.8833V38.2596V39.6359V41.0121V42.3884V43.7646V45.1409V46.5172V47.8934V49.2697V50.646V52.0222V53.3985Z" fill="#136289"/>
<path d="M68.3649 9.39453H66.9886V10.7708H68.3649V9.39453Z" fill="#136289"/>
<path d="M66.9887 54.7749H65.6124V56.1328H66.9887V54.7749Z" fill="#136289"/>
<path d="M66.9887 9.39453H65.6124V10.7708H66.9887V9.39453Z" fill="#136289"/>
<path d="M65.6124 54.7749H64.2361V56.1328H65.6124V54.7749Z" fill="#136289"/>
<path d="M65.6124 9.39453H64.2361V10.7708H65.6124V9.39453Z" fill="#136289"/>
<path d="M64.2361 54.7749H62.8599V56.1328H64.2361V54.7749Z" fill="#136289"/>
<path d="M64.2361 9.39453H62.8599V10.7708H64.2361V9.39453Z" fill="#136289"/>
<path d="M62.8598 65.7671H61.4836V67.1434H62.8598V65.7671Z" fill="#136289"/>
<path d="M62.8598 64.3906H61.4836V65.7669H62.8598V64.3906Z" fill="#136289"/>
<path d="M62.8598 63.0142H61.4836V64.3904H62.8598V63.0142Z" fill="#136289"/>
<path d="M62.8599 54.7749H58.7311V56.1328H62.8599V54.7749Z" fill="#136289"/>
<path d="M62.8598 28.6445H61.4836V36.8838H62.8598V28.6445Z" fill="#136289"/>
<path d="M62.8598 27.2681H61.4836V28.6443H62.8598V27.2681Z" fill="#136289"/>
<path d="M62.8598 25.8921H61.4836V27.2684H62.8598V25.8921Z" fill="#136289"/>
<path d="M62.8598 24.5156H61.4836V25.8919H62.8598V24.5156Z" fill="#136289"/>
<path d="M62.8598 23.1396H61.4836V24.5159H62.8598V23.1396Z" fill="#136289"/>
<path d="M62.8598 9.39453H61.4836V10.7708H62.8598V9.39453Z" fill="#136289"/>
<path d="M61.4836 65.7671H60.1074V67.1434H61.4836V65.7671Z" fill="#136289"/>
<path d="M61.4836 61.6382H60.1074V63.0144H61.4836V61.6382Z" fill="#136289"/>
<path d="M61.4836 60.2617H60.1074V61.638H61.4836V60.2617Z" fill="#136289"/>
<path d="M61.4836 49.2695H60.1074V50.6458H61.4836V49.2695Z" fill="#136289"/>
<path d="M61.4836 47.8936H60.1074V49.2698H61.4836V47.8936Z" fill="#136289"/>
<path d="M61.4836 46.5171H60.1074V47.8934H61.4836V46.5171Z" fill="#136289"/>
<path d="M61.4836 45.1406H60.1074V46.5169H61.4836V45.1406Z" fill="#136289"/>
<path d="M61.4836 43.7646H60.1074V45.1409H61.4836V43.7646Z" fill="#136289"/>
<path d="M61.4836 42.3882H60.1074V43.7644H61.4836V42.3882Z" fill="#136289"/>
<path d="M61.4836 41.0122H60.1074V42.3885H61.4836V41.0122Z" fill="#136289"/>
<path d="M61.4836 39.6357H60.1074V41.012H61.4836V39.6357Z" fill="#136289"/>
<path d="M61.4836 38.2593H60.1074V39.6355H61.4836V38.2593Z" fill="#136289"/>
<path d="M61.4836 36.8833H60.1074V38.2596H61.4836V36.8833Z" fill="#136289"/>
<path d="M61.4836 23.1396H60.1074V24.5159H61.4836V23.1396Z" fill="#136289"/>
<path d="M61.4836 9.39453H60.1074V10.7708H61.4836V9.39453Z" fill="#136289"/>
<path d="M60.1073 67.1431H58.7311V68.5193H60.1073V67.1431Z" fill="#136289"/>
<path d="M60.1073 65.7671H58.7311V67.1434H60.1073V65.7671Z" fill="#136289"/>
<path d="M60.1073 60.2617H58.7311V61.638H60.1073V60.2617Z" fill="#136289"/>
<path d="M60.1073 58.8857H58.7311V60.262H60.1073V58.8857Z" fill="#136289"/>
<path d="M60.1073 57.5093H58.7311V58.8855H60.1073V57.5093Z" fill="#136289"/>
<path d="M60.1073 50.646H58.7311V52.0223H60.1073V50.646Z" fill="#136289"/>
<path d="M60.1073 49.2695H58.7311V50.6458H60.1073V49.2695Z" fill="#136289"/>
<path d="M60.5661 48.8291V50.2053H59.1899V51.5816H57.8136V52.9578H56.4373V54.3341H53.7032V55.7104H49.5744V54.3341H46.8218V52.9578H45.4456V51.5816H44.0693V50.2053H42.6931V39.1952H44.0693V37.8189H45.4456V36.461H46.8218V35.0848H49.5744V33.7085H53.7032V35.0848H56.4373V36.461H57.8136V37.8189H59.1899V39.1952H60.5661V48.8291ZM59.1899 48.8291V40.5715H57.8136V39.1952H55.0611V37.8189H48.1981V39.1952H45.4456V40.5715H44.0693V48.8291H45.4456V50.2053H48.1981V51.5816H55.0611V50.2053H57.8136V48.8291H59.1899Z" fill="#F19400"/>
<path d="M60.1073 36.8833H58.7311V38.2596H60.1073V36.8833Z" fill="#136289"/>
<path d="M60.1073 35.5259H58.7311V36.8838H60.1073V35.5259Z" fill="#136289"/>
<path d="M60.1073 23.1396H58.7311V24.5159H60.1073V23.1396Z" fill="#136289"/>
<path d="M60.1073 9.39453H58.7311V10.7708H60.1073V9.39453Z" fill="#136289"/>
<path d="M58.7311 68.5195H57.3548V69.8958H58.7311V68.5195Z" fill="#136289"/>
<path d="M58.7311 57.5093H57.3548V58.8855H58.7311V57.5093Z" fill="#136289"/>
<path d="M58.7311 56.1328H57.3548V57.5091H58.7311V56.1328Z" fill="#136289"/>
<path d="M58.7311 54.7749H57.3548V56.1328H58.7311V54.7749Z" fill="#136289"/>
<path d="M58.7311 52.022H57.3548V53.3982H58.7311V52.022Z" fill="#136289"/>
<path d="M58.7311 50.646H57.3548V52.0223H58.7311V50.646Z" fill="#136289"/>
<path d="M58.7311 46.5171H57.3548V47.8934H58.7311V46.5171Z" fill="#136289"/>
<path d="M58.7311 45.1406H57.3548V46.5169H58.7311V45.1406Z" fill="#136289"/>
<path d="M58.7311 43.7646H57.3548V45.1409H58.7311V43.7646Z" fill="#136289"/>
<path d="M58.7311 42.3882H57.3548V43.7644H58.7311V42.3882Z" fill="#136289"/>
<path d="M58.7311 41.0122H57.3548V42.3885H58.7311V41.0122Z" fill="#136289"/>
<path d="M58.7311 39.6357H57.3548V41.012H58.7311V39.6357Z" fill="#136289"/>
<path d="M58.7311 35.5259H57.3548V36.8838H58.7311V35.5259Z" fill="#136289"/>
<path d="M58.7311 34.1494H57.3548V35.5257H58.7311V34.1494Z" fill="#136289"/>
<path d="M58.7311 21.7632H57.3548V23.1394H58.7311V21.7632Z" fill="#136289"/>
<path d="M58.7311 9.39453H57.3548V10.7708H58.7311V9.39453Z" fill="#136289"/>
<path d="M57.3548 67.1431H55.9786V68.5193H57.3548V67.1431Z" fill="#136289"/>
<path d="M57.3548 53.3984H55.9786V54.7747H57.3548V53.3984Z" fill="#136289"/>
<path d="M57.3548 52.022H55.9786V53.3982H57.3548V52.022Z" fill="#136289"/>
<path d="M57.3548 47.8936H55.9786V49.2698H57.3548V47.8936Z" fill="#136289"/>
<path d="M57.3548 38.2593H55.9786V39.6355H57.3548V38.2593Z" fill="#136289"/>
<path d="M57.3548 34.1494H55.9786V35.5257H57.3548V34.1494Z" fill="#136289"/>
<path d="M57.3548 32.7734H55.9786V34.1497H57.3548V32.7734Z" fill="#136289"/>
<path d="M57.3548 21.7632H55.9786V23.1394H57.3548V21.7632Z" fill="#136289"/>
<path d="M57.3548 20.3867H55.9786V21.763H57.3548V20.3867Z" fill="#136289"/>
<path d="M57.3548 9.39453H55.9786V10.7708H57.3548V9.39453Z" fill="#136289"/>
<path d="M55.9786 65.7671H54.6023V67.1434H55.9786V65.7671Z" fill="#136289"/>
<path d="M55.9786 64.3906H54.6023V65.7669H55.9786V64.3906Z" fill="#136289"/>
<path d="M55.9786 53.3984H54.6023V54.7747H55.9786V53.3984Z" fill="#136289"/>
<path d="M55.9786 47.8936H54.6023V49.2698H55.9786V47.8936Z" fill="#136289"/>
<path d="M55.9786 41.0122H54.6023V42.3885H55.9786V41.0122Z" fill="#136289"/>
<path d="M55.9786 38.2593H54.6023V39.6355H55.9786V38.2593Z" fill="#136289"/>
<path d="M55.9786 32.7734H54.6023V34.1497H55.9786V32.7734Z" fill="#136289"/>
<path d="M55.9786 20.3867H54.6023V21.763H55.9786V20.3867Z" fill="#136289"/>
<path d="M55.9786 19.0107H54.6023V20.387H55.9786V19.0107Z" fill="#136289"/>
<path d="M55.9786 17.6343H54.6023V19.0105H55.9786V17.6343Z" fill="#136289"/>
<path d="M55.9786 9.39453H54.6023V10.7708H55.9786V9.39453Z" fill="#136289"/>
<path d="M54.6023 64.3906H53.2444V65.7669H54.6023V64.3906Z" fill="#136289"/>
<path d="M54.6023 63.0142H53.2444V64.3904H54.6023V63.0142Z" fill="#136289"/>
<path d="M54.6023 61.6382H53.2444V63.0144H54.6023V61.6382Z" fill="#136289"/>
<path d="M54.6023 53.3984H53.2444V54.7747H54.6023V53.3984Z" fill="#136289"/>
<path d="M54.6023 49.2695H53.2444V50.6458H54.6023V49.2695Z" fill="#136289"/>
<path d="M54.6023 42.3882H53.2444V43.7644H54.6023V42.3882Z" fill="#136289"/>
<path d="M54.6023 36.8833H53.2444V38.2596H54.6023V36.8833Z" fill="#136289"/>
<path d="M54.6023 32.7734H53.2444V34.1497H54.6023V32.7734Z" fill="#136289"/>
<path d="M54.6023 17.6343H53.2444V19.0105H54.6023V17.6343Z" fill="#136289"/>
<path d="M54.6023 16.2583H53.2444V17.6346H54.6023V16.2583Z" fill="#136289"/>
<path d="M54.6023 9.39453H53.2444V10.7708H54.6023V9.39453Z" fill="#136289"/>
<path d="M53.2444 60.2617H51.8681V61.638H53.2444V60.2617Z" fill="#136289"/>
<path d="M53.2444 54.7749H51.8681V56.1328H53.2444V54.7749Z" fill="#136289"/>
<path d="M53.2444 49.2695H51.8681V50.6458H53.2444V49.2695Z" fill="#136289"/>
<path d="M53.2444 43.7646H51.8681V45.1409H53.2444V43.7646Z" fill="#136289"/>
<path d="M53.2444 36.8833H51.8681V38.2596H53.2444V36.8833Z" fill="#136289"/>
<path d="M53.2444 31.397H51.8681V32.7732H53.2444V31.397Z" fill="#136289"/>
<path d="M53.2444 16.2583H51.8681V17.6346H53.2444V16.2583Z" fill="#136289"/>
<path d="M53.2444 9.39453H51.8681V10.7708H53.2444V9.39453Z" fill="#136289"/>
<path d="M51.8681 60.2617H50.4919V61.638H51.8681V60.2617Z" fill="#136289"/>
<path d="M51.8681 54.7749H50.4919V56.1328H51.8681V54.7749Z" fill="#136289"/>
<path d="M51.8681 49.2695H50.4919V50.6458H51.8681V49.2695Z" fill="#136289"/>
<path d="M51.8681 45.1406H50.4919V46.5169H51.8681V45.1406Z" fill="#136289"/>
<path d="M51.8681 36.8833H50.4919V38.2596H51.8681V36.8833Z" fill="#136289"/>
<path d="M51.8681 31.397H50.4919V32.7732H51.8681V31.397Z" fill="#136289"/>
<path d="M51.8681 16.2583H50.4919V17.6346H51.8681V16.2583Z" fill="#136289"/>
<path d="M51.8681 9.39453H50.4919V10.7708H51.8681V9.39453Z" fill="#136289"/>
<path d="M50.4919 64.3906H49.1156V65.7669H50.4919V64.3906Z" fill="#136289"/>
<path d="M50.4919 63.0142H49.1156V64.3904H50.4919V63.0142Z" fill="#136289"/>
<path d="M50.4919 61.6382H49.1156V63.0144H50.4919V61.6382Z" fill="#136289"/>
<path d="M50.4919 54.7749H49.1156V56.1328H50.4919V54.7749Z" fill="#136289"/>
<path d="M50.4919 49.2695H49.1156V50.6458H50.4919V49.2695Z" fill="#136289"/>
<path d="M50.4919 43.7646H49.1156V45.1409H50.4919V43.7646Z" fill="#136289"/>
<path d="M50.4919 36.8833H49.1156V38.2596H50.4919V36.8833Z" fill="#136289"/>
<path d="M50.4919 31.397H49.1156V32.7732H50.4919V31.397Z" fill="#136289"/>
<path d="M50.4919 28.6445H49.1156V30.0208H50.4919V28.6445Z" fill="#136289"/>
<path d="M50.4919 23.1396H49.1156V24.5159H50.4919V23.1396Z" fill="#136289"/>
<path d="M50.4919 16.2583H49.1156V17.6346H50.4919V16.2583Z" fill="#136289"/>
<path d="M50.4919 9.39453H49.1156V10.7708H50.4919V9.39453Z" fill="#136289"/>
<path d="M49.1156 65.7671H47.7393V67.1434H49.1156V65.7671Z" fill="#136289"/>
<path d="M49.1156 64.3906H47.7393V65.7669H49.1156V64.3906Z" fill="#136289"/>
<path d="M49.1156 53.3984H47.7393V54.7747H49.1156V53.3984Z" fill="#136289"/>
<path d="M49.1156 49.2695H47.7393V50.6458H49.1156V49.2695Z" fill="#136289"/>
<path d="M49.1156 42.3882H47.7393V43.7644H49.1156V42.3882Z" fill="#136289"/>
<path d="M49.1156 36.8833H47.7393V38.2596H49.1156V36.8833Z" fill="#136289"/>
<path d="M49.1156 32.7734H47.7393V34.1497H49.1156V32.7734Z" fill="#136289"/>
<path d="M49.1156 28.6445H47.7393V30.0208H49.1156V28.6445Z" fill="#136289"/>
<path d="M49.1156 23.1396H47.7393V24.5159H49.1156V23.1396Z" fill="#136289"/>
<path d="M49.1156 16.2583H47.7393V17.6346H49.1156V16.2583Z" fill="#136289"/>
<path d="M49.1156 9.39453H47.7393V10.7708H49.1156V9.39453Z" fill="#136289"/>
<path d="M47.7393 67.1431H46.363V68.5193H47.7393V67.1431Z" fill="#136289"/>
<path d="M47.7393 53.3984H46.363V54.7747H47.7393V53.3984Z" fill="#136289"/>
<path d="M47.7393 47.8936H46.363V49.2698H47.7393V47.8936Z" fill="#136289"/>
<path d="M47.7393 38.2593H46.363V39.6355H47.7393V38.2593Z" fill="#136289"/>
<path d="M47.7393 32.7734H46.363V34.1497H47.7393V32.7734Z" fill="#136289"/>
<path d="M47.7393 28.6445H46.363V30.0208H47.7393V28.6445Z" fill="#136289"/>
<path d="M47.7393 23.1396H46.363V24.5159H47.7393V23.1396Z" fill="#136289"/>
<path d="M47.7393 16.2583H46.363V17.6346H47.7393V16.2583Z" fill="#136289"/>
<path d="M47.7393 9.39453H46.363V10.7708H47.7393V9.39453Z" fill="#136289"/>
<path d="M46.3631 68.5195H44.9868V69.8958H46.3631V68.5195Z" fill="#136289"/>
<path d="M46.3631 57.5093H44.9868V58.8855H46.3631V57.5093Z" fill="#136289"/>
<path d="M46.3631 54.7749V57.5091H44.9868V56.1328V54.7749H46.3631Z" fill="#136289"/>
<path d="M46.3631 53.3984H44.9868V54.7747H46.3631V53.3984Z" fill="#136289"/>
<path d="M46.3631 52.022H44.9868V53.3982H46.3631V52.022Z" fill="#136289"/>
<path d="M46.3631 47.8936H44.9868V49.2698H46.3631V47.8936Z" fill="#136289"/>
<path d="M46.3631 38.2593H44.9868V39.6355H46.3631V38.2593Z" fill="#136289"/>
<path d="M46.3631 34.1494H44.9868V35.5257H46.3631V34.1494Z" fill="#136289"/>
<path d="M46.3631 32.7734H44.9868V34.1497H46.3631V32.7734Z" fill="#136289"/>
<path d="M46.3631 28.6445H44.9868V30.0208H46.3631V28.6445Z" fill="#136289"/>
<path d="M46.3631 23.1396H44.9868V24.5159H46.3631V23.1396Z" fill="#136289"/>
<path d="M46.3631 16.2583H44.9868V17.6346H46.3631V16.2583Z" fill="#136289"/>
<path d="M46.3631 9.39453H44.9868V10.7708H46.3631V9.39453Z" fill="#136289"/>
<path d="M44.9868 67.1431H43.6105V68.5193H44.9868V67.1431Z" fill="#136289"/>
<path d="M44.9868 65.7671H43.6105V67.1434H44.9868V65.7671Z" fill="#136289"/>
<path d="M44.9868 60.2617H43.6105V61.638H44.9868V60.2617Z" fill="#136289"/>
<path d="M44.9868 58.8857H43.6105V60.262H44.9868V58.8857Z" fill="#136289"/>
<path d="M44.9868 57.5093H43.6105V58.8855H44.9868V57.5093Z" fill="#136289"/>
<path d="M44.9868 54.7749H38.1055V56.1328H44.9868V54.7749Z" fill="#136289"/>
<path d="M44.9869 53.3985V54.7748H38.1055H36.7293H35.353H33.9951H32.6188H31.2426H29.8663H28.49H27.1138H25.7375H24.3612H22.985H21.6087H20.2324H18.8562H17.4799H16.1037H14.7274H13.3695H11.9932H10.6169V53.3985V52.0222V50.646V49.2697V47.8934V46.5172V45.1409V43.7646V42.3884V41.0121V39.6359V38.2596V36.8833V35.5254V34.1491V32.7729V31.3966V30.0203V28.6441V27.2678V25.8916V24.5153V23.139V21.7628V20.3865V19.0102V17.634V16.2577V14.8998V13.5235V12.1473V10.771H11.9932H13.3695H14.7274H16.1037H17.4799H18.8562H20.2324H21.6087H22.985H24.3612V16.2577V17.634H22.985V19.0102V20.3865H21.6087V21.7628H20.2324V23.139H18.8562H17.4799H16.1037V24.5153V25.8916V27.2678V28.6441V30.0203V31.3966V32.7729V34.1491V35.5254V36.8833V38.2596V39.6359V41.0121H17.4799H18.8562V42.3884H20.2324H21.6087V43.7646H22.985V45.1409H24.3612V46.5172V47.8934H25.7375H27.1138H28.49H29.8663H31.2426H32.6188H33.9951H35.353H40.803H40.8581V49.2697V50.646H42.2343V52.0222H43.6106V53.3985H44.9869Z" fill="#136289"/>
<path d="M44.9868 52.022H43.6105V53.3982H44.9868V52.022Z" fill="#136289"/>
<path d="M44.9868 50.646H43.6105V52.0223H44.9868V50.646Z" fill="#136289"/>
<path d="M44.9868 46.5171H43.6105V47.8934H44.9868V46.5171Z" fill="#136289"/>
<path d="M44.9868 45.1406H43.6105V46.5169H44.9868V45.1406Z" fill="#136289"/>
<path d="M44.9868 43.7646H43.6105V45.1409H44.9868V43.7646Z" fill="#136289"/>
<path d="M44.9868 42.3882H43.6105V43.7644H44.9868V42.3882Z" fill="#136289"/>
<path d="M44.9868 41.0122H43.6105V42.3885H44.9868V41.0122Z" fill="#136289"/>
<path d="M44.9868 39.6357H43.6105V41.012H44.9868V39.6357Z" fill="#136289"/>
<path d="M44.9868 35.5259H43.6105V36.8838H44.9868V35.5259Z" fill="#136289"/>
<path d="M44.9868 34.1494H43.6105V35.5257H44.9868V34.1494Z" fill="#136289"/>
<path d="M44.9868 28.6445H43.6105V30.0208H44.9868V28.6445Z" fill="#136289"/>
<path d="M44.9868 23.1396H43.6105V24.5159H44.9868V23.1396Z" fill="#136289"/>
<path d="M44.9868 16.2583H43.6105V17.6346H44.9868V16.2583Z" fill="#136289"/>
<path d="M44.9868 9.39453H43.6105V10.7708H44.9868V9.39453Z" fill="#136289"/>
<path d="M43.6105 65.7671H42.2343V67.1434H43.6105V65.7671Z" fill="#136289"/>
<path d="M43.6105 61.6382H42.2343V63.0144H43.6105V61.6382Z" fill="#136289"/>
<path d="M43.6105 60.2617H42.2343V61.638H43.6105V60.2617Z" fill="#136289"/>
<path d="M43.6105 50.646H42.2343V52.0223H43.6105V50.646Z" fill="#136289"/>
<path d="M43.6105 49.2695H42.2343V50.6458H43.6105V49.2695Z" fill="#136289"/>
<path d="M43.6105 36.8833H42.2343V38.2596H43.6105V36.8833Z" fill="#136289"/>
<path d="M43.6105 35.5259H42.2343V36.8838H43.6105V35.5259Z" fill="#136289"/>
<path d="M43.6105 28.6445H42.2343V30.0208H43.6105V28.6445Z" fill="#136289"/>
<path d="M43.6105 23.1396H42.2343V24.5159H43.6105V23.1396Z" fill="#136289"/>
<path d="M43.6105 16.2583H42.2343V17.6346H43.6105V16.2583Z" fill="#136289"/>
<path d="M43.6105 9.39453H42.2343V10.7708H43.6105V9.39453Z" fill="#136289"/>
<path d="M42.2343 65.7671H40.858V67.1434H42.2343V65.7671Z" fill="#136289"/>
<path d="M42.2343 64.3906H40.858V65.7669H42.2343V64.3906Z" fill="#136289"/>
<path d="M42.2343 63.0142H40.858V64.3904H42.2343V63.0142Z" fill="#136289"/>
<path d="M42.2343 49.2695H40.858V50.6458H42.2343V49.2695Z" fill="#136289"/>
<path d="M42.2343 47.8936H40.858V49.2698H42.2343V47.8936Z" fill="#136289"/>
<path d="M42.2343 46.5171H40.858V47.8934H42.2343V46.5171Z" fill="#136289"/>
<path d="M42.2343 45.1406H40.858V46.5169H42.2343V45.1406Z" fill="#136289"/>
<path d="M42.2343 43.7646H40.858V45.1409H42.2343V43.7646Z" fill="#136289"/>
<path d="M42.2343 42.3882H40.858V43.7644H42.2343V42.3882Z" fill="#136289"/>
<path d="M42.2343 41.0122H40.858V42.3885H42.2343V41.0122Z" fill="#136289"/>
<path d="M42.2343 39.6357H40.858V41.012H42.2343V39.6357Z" fill="#136289"/>
<path d="M42.2343 38.2593H40.858V39.6355H42.2343V38.2593Z" fill="#136289"/>
<path d="M42.2343 36.8833H40.858V38.2596H42.2343V36.8833Z" fill="#136289"/>
<path d="M42.2343 28.6445H40.858V30.0208H42.2343V28.6445Z" fill="#136289"/>
<path d="M42.2343 23.1396H40.858V24.5159H42.2343V23.1396Z" fill="#136289"/>
<path d="M42.2343 16.2583H40.858V17.6346H42.2343V16.2583Z" fill="#136289"/>
<path d="M42.2343 9.39453H40.858V10.7708H42.2343V9.39453Z" fill="#136289"/>
<path d="M40.858 28.6445H39.4818V30.0208H40.858V28.6445Z" fill="#136289"/>
<path d="M40.858 23.1396H39.4818V24.5159H40.858V23.1396Z" fill="#136289"/>
<path d="M40.858 16.2583H39.4818V17.6346H40.858V16.2583Z" fill="#136289"/>
<path d="M40.858 9.39453H39.4818V10.7708H40.858V9.39453Z" fill="#136289"/>
<path d="M40.803 46.5171H35.353V47.8934H40.803V46.5171Z" fill="#136289"/>
<path d="M39.4817 28.6445H38.1055V30.0208H39.4817V28.6445Z" fill="#136289"/>
<path d="M39.4817 23.1396H38.1055V24.5159H39.4817V23.1396Z" fill="#136289"/>
<path d="M39.4817 16.2583H38.1055V17.6346H39.4817V16.2583Z" fill="#136289"/>
<path d="M39.4817 9.39453H38.1055V10.7708H39.4817V9.39453Z" fill="#136289"/>
<path d="M38.1055 54.7749H36.7292V56.1328H38.1055V54.7749Z" fill="#136289"/>
<path d="M38.1055 28.6445H36.7292V30.0208H38.1055V28.6445Z" fill="#136289"/>
<path d="M38.1055 23.1396H36.7292V24.5159H38.1055V23.1396Z" fill="#136289"/>
<path d="M38.1055 16.2583H36.7292V17.6346H38.1055V16.2583Z" fill="#136289"/>
<path d="M38.1055 9.39453H36.7292V10.7708H38.1055V9.39453Z" fill="#136289"/>
<path d="M36.7292 54.7749H35.353V56.1328H36.7292V54.7749Z" fill="#136289"/>
<path d="M36.7292 28.6445H35.353V30.0208H36.7292V28.6445Z" fill="#136289"/>
<path d="M36.7292 23.1396H35.353V24.5159H36.7292V23.1396Z" fill="#136289"/>
<path d="M36.7292 16.2583H35.353V17.6346H36.7292V16.2583Z" fill="#136289"/>
<path d="M36.7292 9.39453H35.353V10.7708H36.7292V9.39453Z" fill="#136289"/>
<path d="M35.353 54.7749H33.9951V56.1328H35.353V54.7749Z" fill="#136289"/>
<path d="M35.353 46.5171H33.9951V47.8934H35.353V46.5171Z" fill="#136289"/>
<path d="M35.353 28.6445H33.9951V30.0208H35.353V28.6445Z" fill="#136289"/>
<path d="M35.353 23.1396H33.9951V24.5159H35.353V23.1396Z" fill="#136289"/>
<path d="M35.353 16.2583H33.9951V17.6346H35.353V16.2583Z" fill="#136289"/>
<path d="M35.353 9.39453H33.9951V10.7708H35.353V9.39453Z" fill="#136289"/>
<path d="M33.995 54.7749H32.6188V56.1328H33.995V54.7749Z" fill="#136289"/>
<path d="M33.995 46.5171H32.6188V47.8934H33.995V46.5171Z" fill="#136289"/>
<path d="M33.995 28.6445H32.6188V30.0208H33.995V28.6445Z" fill="#136289"/>
<path d="M33.995 23.1396H32.6188V24.5159H33.995V23.1396Z" fill="#136289"/>
<path d="M33.995 16.2583H32.6188V17.6346H33.995V16.2583Z" fill="#136289"/>
<path d="M33.995 9.39453H32.6188V10.7708H33.995V9.39453Z" fill="#136289"/>
<path d="M32.6188 54.7749H31.2426V56.1328H32.6188V54.7749Z" fill="#136289"/>
<path d="M32.6188 46.5171H31.2426V47.8934H32.6188V46.5171Z" fill="#136289"/>
<path d="M32.6188 28.6445H31.2426V30.0208H32.6188V28.6445Z" fill="#136289"/>
<path d="M32.6188 23.1396H31.2426V24.5159H32.6188V23.1396Z" fill="#136289"/>
<path d="M32.6188 16.2583H31.2426V17.6346H32.6188V16.2583Z" fill="#136289"/>
<path d="M32.6188 9.39453H31.2426V10.7708H32.6188V9.39453Z" fill="#136289"/>
<path d="M31.2425 54.7749H29.8663V56.1328H31.2425V54.7749Z" fill="#136289"/>
<path d="M31.2425 46.5171H29.8663V47.8934H31.2425V46.5171Z" fill="#136289"/>
<path d="M31.2425 28.6445H29.8663V30.0208H31.2425V28.6445Z" fill="#136289"/>
<path d="M31.2425 23.1396H29.8663V24.5159H31.2425V23.1396Z" fill="#136289"/>
<path d="M31.2425 16.2583H29.8663V17.6346H31.2425V16.2583Z" fill="#136289"/>
<path d="M31.2425 9.39453H29.8663V10.7708H31.2425V9.39453Z" fill="#136289"/>
<path d="M29.8663 54.7749H28.49V56.1328H29.8663V54.7749Z" fill="#136289"/>
<path d="M29.8663 46.5171H28.49V47.8934H29.8663V46.5171Z" fill="#136289"/>
<path d="M29.8663 28.6445H28.49V30.0208H29.8663V28.6445Z" fill="#136289"/>
<path d="M29.8663 23.1396H28.49V24.5159H29.8663V23.1396Z" fill="#136289"/>
<path d="M29.8663 16.2583H28.49V17.6346H29.8663V16.2583Z" fill="#136289"/>
<path d="M29.8663 9.39453H28.49V10.7708H29.8663V9.39453Z" fill="#136289"/>
<path d="M28.49 54.7749H27.1137V56.1328H28.49V54.7749Z" fill="#136289"/>
<path d="M28.49 46.5171H27.1137V47.8934H28.49V46.5171Z" fill="#136289"/>
<path d="M28.49 16.2583H27.1137V17.6346H28.49V16.2583Z" fill="#136289"/>
<path d="M28.49 9.39453H27.1137V10.7708H28.49V9.39453Z" fill="#136289"/>
<path d="M27.1138 54.7749H25.7375V56.1328H27.1138V54.7749Z" fill="#136289"/>
<path d="M27.1138 46.5171H25.7375V47.8934H27.1138V46.5171Z" fill="#136289"/>
<path d="M27.1138 16.2583H25.7375V17.6346H27.1138V16.2583Z" fill="#136289"/>
<path d="M27.1138 9.39453H25.7375V10.7708H27.1138V9.39453Z" fill="#136289"/>
<path d="M25.7375 54.7749H24.3612V56.1328H25.7375V54.7749Z" fill="#136289"/>
<path d="M25.7375 46.5171H24.3612V47.8934H25.7375V46.5171Z" fill="#136289"/>
<path d="M25.7375 45.1406H24.3612V46.5169H25.7375V45.1406Z" fill="#136289"/>
<path d="M25.7375 43.7646H24.3612V45.1409H25.7375V43.7646Z" fill="#136289"/>
<path d="M25.7375 17.6343H24.3612V19.0105H25.7375V17.6343Z" fill="#136289"/>
<path d="M25.7375 16.2583H24.3612V17.6346H25.7375V16.2583Z" fill="#136289"/>
<path d="M25.7375 9.39453H24.3612V10.7708H25.7375V9.39453Z" fill="#136289"/>
<path d="M24.3612 54.7749H22.9849V56.1328H24.3612V54.7749Z" fill="#136289"/>
<path d="M24.3612 43.7646H22.9849V45.1409H24.3612V43.7646Z" fill="#136289"/>
<path d="M24.3612 42.3882H22.9849V43.7644H24.3612V42.3882Z" fill="#136289"/>
<path d="M24.3612 20.3867H22.9849V21.763H24.3612V20.3867Z" fill="#136289"/>
<path d="M24.3612 19.0107H22.9849V20.387H24.3612V19.0107Z" fill="#136289"/>
<path d="M24.3612 17.6343H22.9849V19.0105H24.3612V17.6343Z" fill="#136289"/>
<path d="M24.3612 9.39453H22.9849V10.7708H24.3612V9.39453Z" fill="#136289"/>
<path d="M22.9849 54.7749H21.6086V56.1328H22.9849V54.7749Z" fill="#136289"/>
<path d="M22.9849 42.3882H21.6086V43.7644H22.9849V42.3882Z" fill="#136289"/>
<path d="M22.9849 41.0122H21.6086V42.3885H22.9849V41.0122Z" fill="#136289"/>
<path d="M22.9849 21.7632H21.6086V23.1394H22.9849V21.7632Z" fill="#136289"/>
<path d="M22.9849 20.3867H21.6086V21.763H22.9849V20.3867Z" fill="#136289"/>
<path d="M22.9849 9.39453H21.6086V10.7708H22.9849V9.39453Z" fill="#136289"/>
<path d="M21.6087 54.7749H20.2324V56.1328H21.6087V54.7749Z" fill="#136289"/>
<path d="M21.6087 41.0122H20.2324V42.3885H21.6087V41.0122Z" fill="#136289"/>
<path d="M21.6087 21.7632H20.2324V23.1394H21.6087V21.7632Z" fill="#136289"/>
<path d="M21.6087 9.39453H20.2324V10.7708H21.6087V9.39453Z" fill="#136289"/>
<path d="M20.2324 54.7749H18.8561V56.1328H20.2324V54.7749Z" fill="#136289"/>
<path d="M20.2324 41.0122H18.8561V42.3885H20.2324V41.0122Z" fill="#136289"/>
<path d="M20.2324 39.6357H18.8561V41.012H20.2324V39.6357Z" fill="#136289"/>
<path d="M20.2324 23.1396H18.8561V24.5159H20.2324V23.1396Z" fill="#136289"/>
<path d="M20.2324 9.39453H18.8561V10.7708H20.2324V9.39453Z" fill="#136289"/>
<path d="M18.8561 54.7749H17.4799V56.1328H18.8561V54.7749Z" fill="#136289"/>
<path d="M18.8561 39.6357H17.4799V41.012H18.8561V39.6357Z" fill="#136289"/>
<path d="M18.8561 23.1396H17.4799V24.5159H18.8561V23.1396Z" fill="#136289"/>
<path d="M18.8561 9.39453H17.4799V10.7708H18.8561V9.39453Z" fill="#136289"/>
<path d="M17.4799 54.7749H16.1036V56.1328H17.4799V54.7749Z" fill="#136289"/>
<path d="M17.4799 39.6357H16.1036V41.012H17.4799V39.6357Z" fill="#136289"/>
<path d="M17.4799 38.2593H16.1036V39.6355H17.4799V38.2593Z" fill="#136289"/>
<path d="M17.4799 36.8833H16.1036V38.2596H17.4799V36.8833Z" fill="#136289"/>
<path d="M17.4799 35.5259H16.1036V36.8838H17.4799V35.5259Z" fill="#136289"/>
<path d="M17.4799 34.1494H16.1036V35.5257H17.4799V34.1494Z" fill="#136289"/>
<path d="M17.4799 32.7734H16.1036V34.1497H17.4799V32.7734Z" fill="#136289"/>
<path d="M17.4799 31.397H16.1036V32.7732H17.4799V31.397Z" fill="#136289"/>
<path d="M17.4799 30.0205H16.1036V31.3968H17.4799V30.0205Z" fill="#136289"/>
<path d="M17.4799 28.6445H16.1036V30.0208H17.4799V28.6445Z" fill="#136289"/>
<path d="M17.4799 27.2681H16.1036V28.6443H17.4799V27.2681Z" fill="#136289"/>
<path d="M17.4799 25.8921H16.1036V27.2684H17.4799V25.8921Z" fill="#136289"/>
<path d="M17.4799 24.5156H16.1036V25.8919H17.4799V24.5156Z" fill="#136289"/>
<path d="M17.4799 23.1396H16.1036V24.5159H17.4799V23.1396Z" fill="#136289"/>
<path d="M17.4799 9.39453H16.1036V10.7708H17.4799V9.39453Z" fill="#136289"/>
<path d="M16.1036 54.7749H14.7274V56.1328H16.1036V54.7749Z" fill="#136289"/>
<path d="M16.1036 9.39453H14.7274V10.7708H16.1036V9.39453Z" fill="#136289"/>
<path d="M14.7274 54.7749H13.3694V56.1328H14.7274V54.7749Z" fill="#136289"/>
<path d="M14.7274 9.39453H13.3694V10.7708H14.7274V9.39453Z" fill="#136289"/>
<path d="M13.3694 54.7749H11.9932V56.1328H13.3694V54.7749Z" fill="#136289"/>
<path d="M13.3694 9.39453H11.9932V10.7708H13.3694V9.39453Z" fill="#136289"/>
<path d="M11.9932 54.7749H10.6169V56.1328H11.9932V54.7749Z" fill="#136289"/>
<path d="M11.9932 9.39453H10.6169V10.7708H11.9932V9.39453Z" fill="#136289"/>
<path d="M10.6169 53.3984H9.24066V54.7747H10.6169V53.3984Z" fill="#136289"/>
<path d="M10.6169 52.022H9.24066V53.3982H10.6169V52.022Z" fill="#136289"/>
<path d="M10.6169 50.646H9.24066V52.0223H10.6169V50.646Z" fill="#136289"/>
<path d="M10.6169 49.2695H9.24066V50.6458H10.6169V49.2695Z" fill="#136289"/>
<path d="M10.6169 47.8936H9.24066V49.2698H10.6169V47.8936Z" fill="#136289"/>
<path d="M10.6169 46.5171H9.24066V47.8934H10.6169V46.5171Z" fill="#136289"/>
<path d="M10.6169 45.1406H9.24066V46.5169H10.6169V45.1406Z" fill="#136289"/>
<path d="M10.6169 43.7646H9.24066V45.1409H10.6169V43.7646Z" fill="#136289"/>
<path d="M10.6169 42.3882H9.24066V43.7644H10.6169V42.3882Z" fill="#136289"/>
<path d="M10.6169 41.0122H9.24066V42.3885H10.6169V41.0122Z" fill="#136289"/>
<path d="M10.6169 39.6357H9.24066V41.012H10.6169V39.6357Z" fill="#136289"/>
<path d="M10.6169 38.2593H9.24066V39.6355H10.6169V38.2593Z" fill="#136289"/>
<path d="M10.6169 36.8833H9.24066V38.2596H10.6169V36.8833Z" fill="#136289"/>
<path d="M10.6169 35.5259H9.24066V36.8838H10.6169V35.5259Z" fill="#136289"/>
<path d="M10.6169 34.1494H9.24066V35.5257H10.6169V34.1494Z" fill="#136289"/>
<path d="M10.6169 32.7734H9.24066V34.1497H10.6169V32.7734Z" fill="#136289"/>
<path d="M10.6169 31.397H9.24066V32.7732H10.6169V31.397Z" fill="#136289"/>
<path d="M10.6169 30.0205H9.24066V31.3968H10.6169V30.0205Z" fill="#136289"/>
<path d="M10.6169 28.6445H9.24066V30.0208H10.6169V28.6445Z" fill="#136289"/>
<path d="M10.6169 27.2681H9.24066V28.6443H10.6169V27.2681Z" fill="#136289"/>
<path d="M10.6169 25.8921H9.24066V27.2684H10.6169V25.8921Z" fill="#136289"/>
<path d="M10.6169 24.5156H9.24066V25.8919H10.6169V24.5156Z" fill="#136289"/>
<path d="M10.6169 23.1396H9.24066V24.5159H10.6169V23.1396Z" fill="#136289"/>
<path d="M10.6169 21.7632H9.24066V23.1394H10.6169V21.7632Z" fill="#136289"/>
<path d="M10.6169 20.3867H9.24066V21.763H10.6169V20.3867Z" fill="#136289"/>
<path d="M10.6169 19.0107H9.24066V20.387H10.6169V19.0107Z" fill="#136289"/>
<path d="M10.6169 17.6343H9.24066V19.0105H10.6169V17.6343Z" fill="#136289"/>
<path d="M10.6169 16.2583H9.24066V17.6346H10.6169V16.2583Z" fill="#136289"/>
<path d="M10.6169 14.8999H9.24066V16.2578H10.6169V14.8999Z" fill="#136289"/>
<path d="M10.6169 13.5234H9.24066V14.8997H10.6169V13.5234Z" fill="#136289"/>
<path d="M10.6169 12.147H9.24066V13.5232H10.6169V12.147Z" fill="#136289"/>
<path d="M10.6169 10.771H9.24066V12.1473H10.6169V10.771Z" fill="#136289"/>
</svg>
