<svg width="79" height="79" viewBox="0 0 79 79" fill="none" xmlns="http://www.w3.org/2000/svg">
<path d="M11.4972 13.9824V41.2141H16.4518H21.4063H35.0038H37.2425H65.9422V13.9824H11.4972Z" fill="#F19400"/>
<path d="M21.9936 49.5454H15.8096V55.7294H21.9936V49.5454Z" fill="#136289"/>
<path d="M34.3797 37.1772H23.2411V40.884H34.3797V37.1772Z" fill="#136289"/>
<path d="M45.5183 63.1611H34.3798V66.8679H45.5183V63.1611Z" fill="#136289"/>
<path d="M62.8228 49.5454H56.6388V55.7294H62.8228V49.5454Z" fill="#136289"/>
<path d="M43.0229 49.5454H36.8389V55.7294H43.0229V49.5454Z" fill="#136289"/>
<path d="M65.2998 63.1611H54.1613V66.8679H65.2998V63.1611Z" fill="#136289"/>
<path d="M24.4707 63.1611H13.3322V66.8679H24.4707V63.1611Z" fill="#136289"/>
<path d="M31.9025 23.5615H25.7185V29.7455H31.9025V23.5615Z" fill="#136289"/>
<path d="M23.2781 66.8672H12.1395V68.0966H23.2781V66.8672Z" fill="#136289"/>
<path d="M12.1397 63.1602H10.9103V68.1147H12.1397V63.1602Z" fill="#136289"/>
<path d="M24.5077 63.1602H23.2782V68.1147H24.5077V63.1602Z" fill="#136289"/>
<path d="M23.2781 61.9312H12.1395V63.1606H23.2781V61.9312Z" fill="#136289"/>
<path d="M20.801 55.7471H14.6169V56.9765H20.801V55.7471Z" fill="#136289"/>
<path d="M20.801 48.3154H14.6169V49.5449H20.801V48.3154Z" fill="#136289"/>
<path d="M22.0302 49.5449H20.8008V55.7289H22.0302V49.5449Z" fill="#136289"/>
<path d="M14.6172 49.5449H13.3877V55.7289H14.6172V49.5449Z" fill="#136289"/>
<path d="M44.3256 66.8672H33.187V68.0966H44.3256V66.8672Z" fill="#136289"/>
<path d="M33.1688 63.1602H31.9393V68.1147H33.1688V63.1602Z" fill="#136289"/>
<path d="M45.5368 63.1602H44.3074V68.1147H45.5368V63.1602Z" fill="#136289"/>
<path d="M44.3256 61.9312H33.187V63.1606H44.3256V61.9312Z" fill="#136289"/>
<path d="M41.8301 55.7471H35.6461V56.9765H41.8301V55.7471Z" fill="#136289"/>
<path d="M41.8301 48.3154H35.6461V49.5449H41.8301V48.3154Z" fill="#136289"/>
<path d="M43.0777 49.5449H41.8483V55.7289H43.0777V49.5449Z" fill="#136289"/>
<path d="M35.6463 49.5449H34.4169V55.7289H35.6463V49.5449Z" fill="#136289"/>
<path d="M64.1073 66.8672H52.9688V68.0966H64.1073V66.8672Z" fill="#136289"/>
<path d="M52.9688 63.1602H51.7394V68.1147H52.9688V63.1602Z" fill="#136289"/>
<path d="M65.3369 63.1602H64.1074V68.1147H65.3369V63.1602Z" fill="#136289"/>
<path d="M64.1073 61.9312H52.9688V63.1606H64.1073V61.9312Z" fill="#136289"/>
<path d="M61.6302 55.7471H55.4462V56.9765H61.6302V55.7471Z" fill="#136289"/>
<path d="M61.6302 48.3154H55.4462V49.5449H61.6302V48.3154Z" fill="#136289"/>
<path d="M62.8595 49.5449H61.63V55.7289H62.8595V49.5449Z" fill="#136289"/>
<path d="M55.4464 49.5449H54.2169V55.7289H55.4464V49.5449Z" fill="#136289"/>
<path d="M33.1877 40.8828H22.0491V42.1123H33.1877V40.8828Z" fill="#136289"/>
<path d="M22.0309 37.1763H20.8014V42.1308H22.0309V37.1763Z" fill="#136289"/>
<path d="M34.4172 37.1763H33.1877V42.1308H34.4172V37.1763Z" fill="#136289"/>
<path d="M33.1877 35.9468H22.0491V37.1762H33.1877V35.9468Z" fill="#136289"/>
<path d="M30.7105 29.7627H24.5265V30.9922H30.7105V29.7627Z" fill="#136289"/>
<path d="M30.7105 22.3311H24.5265V23.5605H30.7105V22.3311Z" fill="#136289"/>
<path d="M31.9398 23.5605H30.7103V29.7446H31.9398V23.5605Z" fill="#136289"/>
<path d="M24.5083 23.5605H23.2788V29.7446H24.5083V23.5605Z" fill="#136289"/>
<path d="M20.801 39.6538H10.9103V40.8833H20.801V39.6538Z" fill="#136289"/>
<path d="M10.8921 12.4409H9.6626V39.6543H10.8921V12.4409Z" fill="#136289"/>
<path d="M66.5851 12.4409H65.3556V39.6543H66.5851V12.4409Z" fill="#136289"/>
<path d="M65.3554 39.6538H34.417V40.8833H65.3554V39.6538Z" fill="#136289"/>
<path d="M65.3553 11.1929H10.9103V12.4223H65.3553V11.1929Z" fill="#136289"/>
</svg>
