<svg width="55" height="31" viewBox="0 0 55 31" fill="none" xmlns="http://www.w3.org/2000/svg">
<path d="M53.6677 3.51953H52.4382H51.2088H49.961H48.7315H47.4837H46.2542H45.0064H43.7769H42.5475H41.2997H40.0702H38.8224H37.5929H36.3451H35.1156H33.8862H32.6384H31.4089H30.1611H28.9316H27.6838H26.4544H25.2249H23.9771H22.7476H21.4998H20.2703H19.0225H17.7931H16.5636H15.3158H14.0863H12.8385H11.609H10.3612H9.13177H7.9023H6.65449H5.42503H4.17722H2.94775V4.74902V5.99682V7.22628V8.45574V9.70357V10.933V12.1808V13.4103H4.17722H5.42503V14.6581H6.65449V15.8876V17.117V18.3649V19.5943H5.42503V20.8421H4.17722H2.94775V22.0716V23.3194V24.5489V25.7783V27.0262V28.2556V29.5034V30.7329H4.17722H5.42503H6.65449H7.9023H9.13177H10.3612H11.609H12.8385H14.0863H15.3158H16.5636H17.7931H19.0225H20.2703H21.4998H22.7476H23.9771H25.2249H26.4544H27.6838H28.9316H30.1611H31.4089H32.6384H33.8862H35.1156H36.3451H37.5929H38.8224H40.0702H41.2997H42.5475H43.7769H45.0064H46.2542H47.4837H48.7315H49.961H51.2088H52.4382H53.6677H54.9155V29.5034V28.2556V27.0262V25.7783V24.5489V23.3194V22.0716V20.8421H53.6677H52.4382V19.5943H51.2088V18.3649V17.117V15.8876V14.6581H52.4382V13.4103H53.6677H54.9155V12.1808V10.933V9.70357V8.45574V7.22628V5.99682V4.74902V3.51953H53.6677Z" fill="#F19400"/>
<path d="M42.1436 25.4292H40.9142V26.6587H42.1436V25.4292Z" fill="#136289"/>
<path d="M42.1436 24.2002H40.9142V25.4297H42.1436V24.2002Z" fill="#136289"/>
<path d="M42.1436 22.9521H40.9142V24.1816H42.1436V22.9521Z" fill="#136289"/>
<path d="M40.896 22.9521H39.6665V24.1816H40.896V22.9521Z" fill="#136289"/>
<path d="M40.896 24.1265H39.6665V26.6771H40.896V24.1265Z" fill="#136289"/>
<path d="M39.6662 24.2002H38.4368V25.4297H39.6662V24.2002Z" fill="#136289"/>
<path d="M39.6662 22.9521H38.4368V24.1816H39.6662V22.9521Z" fill="#136289"/>
<path d="M39.6662 25.4292H38.4368V26.6587H39.6662V25.4292Z" fill="#136289"/>
<path d="M40.896 16.7676H39.6665V17.997H40.896V16.7676Z" fill="#136289"/>
<path d="M40.896 17.9243H39.6665V20.4933H40.896V17.9243Z" fill="#136289"/>
<path d="M42.1436 19.2451H40.9142V20.4746H42.1436V19.2451Z" fill="#136289"/>
<path d="M42.1436 18.0156H40.9142V19.2451H42.1436V18.0156Z" fill="#136289"/>
<path d="M42.1436 16.7676H40.9142V17.997H42.1436V16.7676Z" fill="#136289"/>
<path d="M39.6662 16.7676H38.4368V17.997H39.6662V16.7676Z" fill="#136289"/>
<path d="M39.6662 18.0156H38.4368V19.2451H39.6662V18.0156Z" fill="#136289"/>
<path d="M39.6662 19.2451H38.4368V20.4746H39.6662V19.2451Z" fill="#136289"/>
<path d="M40.896 10.5845H39.6665V11.8139H40.896V10.5845Z" fill="#136289"/>
<path d="M42.1436 10.5845H40.9142V11.8139H42.1436V10.5845Z" fill="#136289"/>
<path d="M40.896 11.7036H39.6665V14.291H40.896V11.7036Z" fill="#136289"/>
<path d="M42.1436 13.062H40.9142V14.2915H42.1436V13.062Z" fill="#136289"/>
<path d="M42.1436 11.8315H40.9142V13.061H42.1436V11.8315Z" fill="#136289"/>
<path d="M39.6662 11.8315H38.4368V13.061H39.6662V11.8315Z" fill="#136289"/>
<path d="M39.6662 13.062H38.4368V14.2915H39.6662V13.062Z" fill="#136289"/>
<path d="M39.6662 10.5845H38.4368V11.8139H39.6662V10.5845Z" fill="#136289"/>
<path d="M54.5117 27.9067H53.2822V29.1362H54.5117V27.9067Z" fill="#136289"/>
<path d="M54.5117 26.6777H53.2822V27.9072H54.5117V26.6777Z" fill="#136289"/>
<path d="M54.5117 25.4292H53.2822V26.6587H54.5117V25.4292Z" fill="#136289"/>
<path d="M54.5117 24.2002H53.2822V25.4297H54.5117V24.2002Z" fill="#136289"/>
<path d="M54.5117 22.9521H53.2822V24.1816H54.5117V22.9521Z" fill="#136289"/>
<path d="M54.5117 21.7227H53.2822V22.9521H54.5117V21.7227Z" fill="#136289"/>
<path d="M54.5117 20.4932H53.2822V21.7227H54.5117V20.4932Z" fill="#136289"/>
<path d="M54.5117 19.2451H53.2822V20.4746H54.5117V19.2451Z" fill="#136289"/>
<path d="M54.5117 18.0156H53.2822V19.2451H54.5117V18.0156Z" fill="#136289"/>
<path d="M54.5117 11.8315H53.2822V13.061H54.5117V11.8315Z" fill="#136289"/>
<path d="M54.5117 10.5845H53.2822V11.8139H54.5117V10.5845Z" fill="#136289"/>
<path d="M54.5117 9.35498H53.2822V10.5844H54.5117V9.35498Z" fill="#136289"/>
<path d="M54.5117 8.10693H53.2822V9.33642H54.5117V8.10693Z" fill="#136289"/>
<path d="M54.5117 6.87744H53.2822V8.1069H54.5117V6.87744Z" fill="#136289"/>
<path d="M54.5117 5.62939H53.2822V6.85885H54.5117V5.62939Z" fill="#136289"/>
<path d="M54.5117 4.40039H53.2822V5.62985H54.5117V4.40039Z" fill="#136289"/>
<path d="M54.5117 3.1709H53.2822V4.40036H54.5117V3.1709Z" fill="#136289"/>
<path d="M54.5117 1.92285H53.2822V3.15231H54.5117V1.92285Z" fill="#136289"/>
<path d="M53.2824 29.1543H52.0529V30.3838H53.2824V29.1543Z" fill="#136289"/>
<path d="M53.2824 18.0156H52.0529V19.2451H53.2824V18.0156Z" fill="#136289"/>
<path d="M53.2824 11.8315H52.0529V13.061H53.2824V11.8315Z" fill="#136289"/>
<path d="M53.2824 0.693359H52.0529V1.92282H53.2824V0.693359Z" fill="#136289"/>
<path d="M52.0342 29.1543H50.8047V30.3838H52.0342V29.1543Z" fill="#136289"/>
<path d="M52.0342 18.0156H50.8047V19.2451H52.0342V18.0156Z" fill="#136289"/>
<path d="M52.0342 11.8315H50.8047V13.061H52.0342V11.8315Z" fill="#136289"/>
<path d="M52.0342 0.693359H50.8047V1.92282H52.0342V0.693359Z" fill="#136289"/>
<path d="M50.8049 29.1543H49.5754V30.3838H50.8049V29.1543Z" fill="#136289"/>
<path d="M50.8049 16.7676H49.5754V17.997H50.8049V16.7676Z" fill="#136289"/>
<path d="M50.8049 15.5386H49.5754V16.768H50.8049V15.5386Z" fill="#136289"/>
<path d="M50.8049 14.291H49.5754V15.5205H50.8049V14.291Z" fill="#136289"/>
<path d="M50.8049 13.062H49.5754V14.2915H50.8049V13.062Z" fill="#136289"/>
<path d="M50.8049 0.693359H49.5754V1.92282H50.8049V0.693359Z" fill="#136289"/>
<path d="M49.5572 29.1543H48.3278V30.3838H49.5572V29.1543Z" fill="#136289"/>
<path d="M49.5572 0.693359H48.3278V1.92282H49.5572V0.693359Z" fill="#136289"/>
<path d="M48.3279 29.1543H47.0984V30.3838H48.3279V29.1543Z" fill="#136289"/>
<path d="M48.3279 0.693359H47.0984V1.92282H48.3279V0.693359Z" fill="#136289"/>
<path d="M47.0797 29.1543H45.8503V30.3838H47.0797V29.1543Z" fill="#136289"/>
<path d="M47.0797 0.693359H45.8503V1.92282H47.0797V0.693359Z" fill="#136289"/>
<path d="M45.8504 29.1543H44.621V30.3838H45.8504V29.1543Z" fill="#136289"/>
<path d="M45.8504 0.693359H44.621V1.92282H45.8504V0.693359Z" fill="#136289"/>
<path d="M44.6211 29.1543H43.3917V30.3838H44.6211V29.1543Z" fill="#136289"/>
<path d="M44.6211 0.693359H43.3917V1.92282H44.6211V0.693359Z" fill="#136289"/>
<path d="M43.373 29.1543H42.1436V30.3838H43.373V29.1543Z" fill="#136289"/>
<path d="M43.373 0.693359H42.1436V1.92282H43.373V0.693359Z" fill="#136289"/>
<path d="M42.1436 29.1543H40.9142V30.3838H42.1436V29.1543Z" fill="#136289"/>
<path d="M42.1436 6.87744H40.9142V8.1069H42.1436V6.87744Z" fill="#136289"/>
<path d="M42.1436 5.62939H40.9142V6.85885H42.1436V5.62939Z" fill="#136289"/>
<path d="M42.1436 4.40039H40.9142V5.62985H42.1436V4.40039Z" fill="#136289"/>
<path d="M42.1436 0.693359H40.9142V1.92282H42.1436V0.693359Z" fill="#136289"/>
<path d="M40.896 29.1543H39.6665V30.3838H40.896V29.1543Z" fill="#136289"/>
<path d="M40.896 5.62939H39.6665V8.10665H40.896V5.62939Z" fill="#136289"/>
<path d="M40.896 4.40039H39.6665V5.62985H40.896V4.40039Z" fill="#136289"/>
<path d="M40.896 0.693359H39.6665V1.92282H40.896V0.693359Z" fill="#136289"/>
<path d="M39.6662 29.1543H38.4368V30.3838H39.6662V29.1543Z" fill="#136289"/>
<path d="M39.6662 6.87744H38.4368V8.1069H39.6662V6.87744Z" fill="#136289"/>
<path d="M39.6662 5.62939H38.4368V6.85885H39.6662V5.62939Z" fill="#136289"/>
<path d="M39.6662 4.40039H38.4368V5.62985H39.6662V4.40039Z" fill="#136289"/>
<path d="M39.6662 0.693359H38.4368V1.92282H39.6662V0.693359Z" fill="#136289"/>
<path d="M38.4186 29.1543H37.1891V30.3838H38.4186V29.1543Z" fill="#136289"/>
<path d="M38.4186 0.693359H37.1891V1.92282H38.4186V0.693359Z" fill="#136289"/>
<path d="M37.1892 29.1543H35.9597V30.3838H37.1892V29.1543Z" fill="#136289"/>
<path d="M37.1892 0.693359H35.9597V1.92282H37.1892V0.693359Z" fill="#136289"/>
<path d="M35.9594 29.1543H34.73V30.3838H35.9594V29.1543Z" fill="#136289"/>
<path d="M35.9594 0.693359H34.73V1.92282H35.9594V0.693359Z" fill="#136289"/>
<path d="M34.7118 29.1543H33.4823V30.3838H34.7118V29.1543Z" fill="#136289"/>
<path d="M34.7118 0.693359H33.4823V1.92282H34.7118V0.693359Z" fill="#136289"/>
<path d="M33.4825 29.1543H32.253V30.3838H33.4825V29.1543Z" fill="#136289"/>
<path d="M33.4825 0.693359H32.253V1.92282H33.4825V0.693359Z" fill="#136289"/>
<path d="M32.2348 29.1543H31.0053V30.3838H32.2348V29.1543Z" fill="#136289"/>
<path d="M32.2348 0.693359H31.0053V1.92282H32.2348V0.693359Z" fill="#136289"/>
<path d="M31.005 29.1543H29.7755V30.3838H31.005V29.1543Z" fill="#136289"/>
<path d="M31.005 0.693359H29.7755V1.92282H31.005V0.693359Z" fill="#136289"/>
<path d="M29.7573 29.1543H28.5278V30.3838H29.7573V29.1543Z" fill="#136289"/>
<path d="M29.7573 0.693359H28.5278V1.92282H29.7573V0.693359Z" fill="#136289"/>
<path d="M28.528 29.1543H27.2985V30.3838H28.528V29.1543Z" fill="#136289"/>
<path d="M28.528 0.693359H27.2985V1.92282H28.528V0.693359Z" fill="#136289"/>
<path d="M27.2982 29.1543H26.0687V30.3838H27.2982V29.1543Z" fill="#136289"/>
<path d="M27.2982 0.693359H26.0687V1.92282H27.2982V0.693359Z" fill="#136289"/>
<path d="M26.0505 29.1543H24.821V30.3838H26.0505V29.1543Z" fill="#136289"/>
<path d="M26.0505 0.693359H24.821V1.92282H26.0505V0.693359Z" fill="#136289"/>
<path d="M24.8212 29.1543H23.5917V30.3838H24.8212V29.1543Z" fill="#136289"/>
<path d="M24.8212 0.693359H23.5917V1.92282H24.8212V0.693359Z" fill="#136289"/>
<path d="M23.5731 29.1543H22.3436V30.3838H23.5731V29.1543Z" fill="#136289"/>
<path d="M23.5731 0.693359H22.3436V1.92282H23.5731V0.693359Z" fill="#136289"/>
<path d="M22.3437 29.1543H21.1143V30.3838H22.3437V29.1543Z" fill="#136289"/>
<path d="M22.3437 0.693359H21.1143V1.92282H22.3437V0.693359Z" fill="#136289"/>
<path d="M21.096 29.1543H19.8666V30.3838H21.096V29.1543Z" fill="#136289"/>
<path d="M21.096 0.693359H19.8666V1.92282H21.096V0.693359Z" fill="#136289"/>
<path d="M19.8667 29.1543H18.6373V30.3838H19.8667V29.1543Z" fill="#136289"/>
<path d="M19.8667 0.693359H18.6373V1.92282H19.8667V0.693359Z" fill="#136289"/>
<path d="M18.637 29.1543H17.4075V30.3838H18.637V29.1543Z" fill="#136289"/>
<path d="M18.637 0.693359H17.4075V1.92282H18.637V0.693359Z" fill="#136289"/>
<path d="M17.3893 29.1543H16.1598V30.3838H17.3893V29.1543Z" fill="#136289"/>
<path d="M17.3893 0.693359H16.1598V1.92282H17.3893V0.693359Z" fill="#136289"/>
<path d="M16.1599 29.1543H14.9305V30.3838H16.1599V29.1543Z" fill="#136289"/>
<path d="M16.1599 0.693359H14.9305V1.92282H16.1599V0.693359Z" fill="#136289"/>
<path d="M14.9118 29.1543H13.6824V30.3838H14.9118V29.1543Z" fill="#136289"/>
<path d="M14.9118 0.693359H13.6824V1.92282H14.9118V0.693359Z" fill="#136289"/>
<path d="M13.6825 29.1543H12.4531V30.3838H13.6825V29.1543Z" fill="#136289"/>
<path d="M13.6825 0.693359H12.4531V1.92282H13.6825V0.693359Z" fill="#136289"/>
<path d="M12.4348 29.1543H11.2054V30.3838H12.4348V29.1543Z" fill="#136289"/>
<path d="M12.4348 0.693359H11.2054V1.92282H12.4348V0.693359Z" fill="#136289"/>
<path d="M11.205 29.1543H9.97559V30.3838H11.205V29.1543Z" fill="#136289"/>
<path d="M11.205 0.693359H9.97559V1.92282H11.205V0.693359Z" fill="#136289"/>
<path d="M9.97574 29.1543H8.74628V30.3838H9.97574V29.1543Z" fill="#136289"/>
<path d="M9.97574 0.693359H8.74628V1.92282H9.97574V0.693359Z" fill="#136289"/>
<path d="M8.72806 29.1543H7.4986V30.3838H8.72806V29.1543Z" fill="#136289"/>
<path d="M8.72806 0.693359H7.4986V1.92282H8.72806V0.693359Z" fill="#136289"/>
<path d="M7.49875 29.1543H6.26929V30.3838H7.49875V29.1543Z" fill="#136289"/>
<path d="M7.49875 0.693359H6.26929V1.92282H7.49875V0.693359Z" fill="#136289"/>
<path d="M6.25058 29.1543H5.02112V30.3838H6.25058V29.1543Z" fill="#136289"/>
<path d="M6.25058 0.693359H5.02112V1.92282H6.25058V0.693359Z" fill="#136289"/>
<path d="M5.02127 29.1543H3.79181V30.3838H5.02127V29.1543Z" fill="#136289"/>
<path d="M5.02127 16.7676H3.79181V17.997H5.02127V16.7676Z" fill="#136289"/>
<path d="M5.02127 15.5386H3.79181V16.768H5.02127V15.5386Z" fill="#136289"/>
<path d="M5.02127 14.291H3.79181V15.5205H5.02127V14.291Z" fill="#136289"/>
<path d="M5.02127 13.062H3.79181V14.2915H5.02127V13.062Z" fill="#136289"/>
<path d="M5.02127 0.693359H3.79181V1.92282H5.02127V0.693359Z" fill="#136289"/>
<path d="M3.77359 29.1543H2.54413V30.3838H3.77359V29.1543Z" fill="#136289"/>
<path d="M3.77359 18.0156H2.54413V19.2451H3.77359V18.0156Z" fill="#136289"/>
<path d="M3.77359 11.8315H2.54413V13.061H3.77359V11.8315Z" fill="#136289"/>
<path d="M3.77359 0.693359H2.54413V1.92282H3.77359V0.693359Z" fill="#136289"/>
<path d="M2.54379 29.1543H1.31433V30.3838H2.54379V29.1543Z" fill="#136289"/>
<path d="M2.54379 18.0156H1.31433V19.2451H2.54379V18.0156Z" fill="#136289"/>
<path d="M2.54379 11.8315H1.31433V13.061H2.54379V11.8315Z" fill="#136289"/>
<path d="M2.54379 0.693359H1.31433V1.92282H2.54379V0.693359Z" fill="#136289"/>
<path d="M1.31448 27.9067H0.085022V29.1362H1.31448V27.9067Z" fill="#136289"/>
<path d="M1.31448 26.6777H0.085022V27.9072H1.31448V26.6777Z" fill="#136289"/>
<path d="M1.31448 25.4292H0.085022V26.6587H1.31448V25.4292Z" fill="#136289"/>
<path d="M1.31448 24.2002H0.085022V25.4297H1.31448V24.2002Z" fill="#136289"/>
<path d="M1.31448 22.9521H0.085022V24.1816H1.31448V22.9521Z" fill="#136289"/>
<path d="M1.31448 21.7227H0.085022V22.9521H1.31448V21.7227Z" fill="#136289"/>
<path d="M1.31448 20.4932H0.085022V21.7227H1.31448V20.4932Z" fill="#136289"/>
<path d="M1.31448 19.2451H0.085022V20.4746H1.31448V19.2451Z" fill="#136289"/>
<path d="M1.31448 18.0156H0.085022V19.2451H1.31448V18.0156Z" fill="#136289"/>
<path d="M1.31448 11.8315H0.085022V13.061H1.31448V11.8315Z" fill="#136289"/>
<path d="M1.31448 10.5845H0.085022V11.8139H1.31448V10.5845Z" fill="#136289"/>
<path d="M1.31448 9.35498H0.085022V10.5844H1.31448V9.35498Z" fill="#136289"/>
<path d="M1.31448 8.10693H0.085022V9.33642H1.31448V8.10693Z" fill="#136289"/>
<path d="M1.31448 6.87744H0.085022V8.1069H1.31448V6.87744Z" fill="#136289"/>
<path d="M1.31448 5.62939H0.085022V6.85885H1.31448V5.62939Z" fill="#136289"/>
<path d="M1.31448 4.40039H0.085022V5.62985H1.31448V4.40039Z" fill="#136289"/>
<path d="M1.31448 3.1709H0.085022V4.40036H1.31448V3.1709Z" fill="#136289"/>
<path d="M1.31448 1.92285H0.085022V3.15231H1.31448V1.92285Z" fill="#136289"/>
</svg>
