<svg width="79" height="79" viewBox="0 0 79 79" fill="none" xmlns="http://www.w3.org/2000/svg">
<path d="M37.445 45.5464V60.3917H23.8475V59.1623H22.5997V45.5464H37.445Z" fill="#F19400"/>
<path d="M58.364 21.7827V35.3985H43.5187V20.5532H57.1345V21.7827H58.364Z" fill="#F19400"/>
<path d="M54.0333 18.6816H41.6653V19.9111H54.0333V18.6816Z" fill="#136289"/>
<path d="M57.7403 22.4062H56.5109V34.7743H57.7403V22.4062Z" fill="#136289"/>
<path d="M55.2812 19.9297H54.0334V21.1591H55.2812V19.9297Z" fill="#136289"/>
<path d="M56.5105 21.1592H55.2811V22.3886H56.5105V21.1592Z" fill="#136289"/>
<path d="M36.7107 59.5107H24.3427V60.7402H36.7107V59.5107Z" fill="#136289"/>
<path d="M21.8655 44.666H20.636V57.0341H21.8655V44.666Z" fill="#136289"/>
<path d="M24.3429 58.2812H23.1134V59.5107H24.3429V58.2812Z" fill="#136289"/>
<path d="M23.113 57.0342H21.8652V58.282H23.113V57.0342Z" fill="#136289"/>
<path d="M33.0039 37.2524H21.8654V38.4819H33.0039V37.2524Z" fill="#136289"/>
<path d="M21.8655 33.5269H20.636V38.4814H21.8655V33.5269Z" fill="#136289"/>
<path d="M34.2336 33.5269H33.0041V38.4814H34.2336V33.5269Z" fill="#136289"/>
<path d="M33.0039 32.2974H21.8654V37.362H33.0039V32.2974Z" fill="#136289"/>
<path d="M30.5269 26.1133H24.3428V27.3427H30.5269V26.1133Z" fill="#136289"/>
<path d="M30.5269 18.6816H24.3428V26.1135H30.5269V18.6816Z" fill="#136289"/>
<path d="M31.7561 19.9297H30.5266V26.1137H31.7561V19.9297Z" fill="#136289"/>
<path d="M24.3246 19.9297H23.0952V26.1137H24.3246V19.9297Z" fill="#136289"/>
<path d="M56.5106 59.5107H45.3721V60.7402H56.5106V59.5107Z" fill="#136289"/>
<path d="M45.3722 55.8042H44.1428V60.7588H45.3722V55.8042Z" fill="#136289"/>
<path d="M57.7403 55.8042H56.5108V60.7588H57.7403V55.8042Z" fill="#136289"/>
<path d="M56.5106 54.5747H45.3721V59.8412H56.5106V54.5747Z" fill="#136289"/>
<path d="M54.0336 48.3906H47.8495V49.6201H54.0336V48.3906Z" fill="#136289"/>
<path d="M54.0336 40.959H47.8495V48.3908H54.0336V40.959Z" fill="#136289"/>
<path d="M55.2628 42.1885H54.0333V48.3725H55.2628V42.1885Z" fill="#136289"/>
<path d="M47.8497 42.1885H46.6202V48.3725H47.8497V42.1885Z" fill="#136289"/>
</svg>
