<svg width="60" height="31" viewBox="0 0 60 31" fill="none" xmlns="http://www.w3.org/2000/svg">
<path d="M17.2603 28.5239V27.2761V26.0467V24.7989V23.5694V22.3399V21.0921V19.8626V18.6148V17.3854V16.1559V14.9081V13.6786V12.4308V11.2014V9.95354V8.72408V7.49462V6.2468V5.01735V3.76953H16.0308H14.783V5.01735V6.2468V7.49462V8.72408V9.95354V11.2014V12.4308V13.6786V14.9081V16.1559V17.3854V18.6148V19.8626V21.0921V22.3399V23.5694V24.7989V26.0467V27.2761V28.5239V29.7534V31.0012H16.0308H17.2603V29.7534V28.5239Z" fill="#F19400"/>
<path d="M43.2441 13.8989H41.9779H40.7117H39.4456H38.1794H36.8949H35.6287H34.3626H33.0964H31.8302H30.5641H29.2979H28.0318H26.7472H25.4811H24.2149H22.9487H21.6826H20.4164H19.1503H17.8841V15.789V17.6791H19.1503H20.4164H21.6826H22.9487H24.2149H25.4811H26.7472H28.0318H29.2979H30.5641H31.8302H33.0964H34.3626H35.6287H36.8949H38.1794H39.4456H40.7117H41.9779H43.2441V15.789V13.8989Z" fill="#136289"/>
<path d="M46.9508 28.5239V27.2761V26.0467V24.7989V23.5694V22.3399V21.0921V19.8626V18.6148V17.3854V16.1559V14.9081V13.6786V12.4308V11.2014V9.95354V8.72408V7.49462V6.2468V5.01735V3.76953H45.7213H44.4735V5.01735V6.2468V7.49462V8.72408V9.95354V11.2014V12.4308V13.6786V14.9081V16.1559V17.3854V18.6148V19.8626V21.0921V22.3399V23.5694V24.7989V26.0467V27.2761V28.5239V29.7534V31.0012H45.7213H46.9508V29.7534V28.5239Z" fill="#F19400"/>
<path d="M4.58018 17.6604H5.9748H7.36941V15.7887V13.917H5.9748H4.58018H3.18557H1.79095V15.7887V17.6604H3.18557H4.58018Z" fill="#136289"/>
<path d="M13.5532 13.8076H11.6998V15.7527V17.6979H13.5532V15.7527V13.8076Z" fill="#136289"/>
<path d="M49.428 13.9536H47.5746V15.8253V17.6787H49.428V15.8253V13.9536Z" fill="#136289"/>
<path d="M11.076 23.5699V22.3405V21.0926V19.8632V18.6154V17.3859V16.1564V14.9086V13.6792V12.4313V11.2019V9.95407V8.72461H9.82822H8.59875V9.95407V11.2019V12.4313V13.6792V14.9086V16.1564V17.3859V18.6154V19.8632V21.0926V22.3405V23.5699V24.7994V26.0472H9.82822H11.076V24.7994V23.5699Z" fill="#F19400"/>
<path d="M53.1346 23.5699V22.3405V21.0926V19.8632V18.6154V17.3859V16.1564V14.9086V13.6792V12.4313V11.2019V9.95407V8.72461H51.9051H50.6757V9.95407V11.2019V12.4313V13.6792V14.9086V16.1564V17.3859V18.6154V19.8632V21.0926V22.3405V23.5699V24.7994V26.0472H51.9051H53.1346V24.7994V23.5699Z" fill="#F19400"/>
<path d="M58.7133 13.8804H57.4655H56.2361H55.0066H53.7588V15.7888V17.6789H55.0066H56.2361H57.4655H58.7133V15.7888V13.8804Z" fill="#136289"/>
<path d="M12.9297 16.4312H11.7002V17.6606H12.9297V16.4312Z" fill="#136289"/>
<path d="M12.9297 12.7251H11.7002V13.9546H12.9297V12.7251Z" fill="#136289"/>
<path d="M48.8043 16.4312H47.5749V17.6606H48.8043V16.4312Z" fill="#136289"/>
<path d="M48.8043 12.7251H47.5749V13.9546H48.8043V12.7251Z" fill="#136289"/>
<path d="M59.9426 15.2017H58.7131V16.4311H59.9426V15.2017Z" fill="#136289"/>
<path d="M59.9426 13.9546H58.7131V15.184H59.9426V13.9546Z" fill="#136289"/>
<path d="M58.6949 16.4312H57.4655V17.6606H58.6949V16.4312Z" fill="#136289"/>
<path d="M58.6949 12.7251H57.4655V13.9546H58.6949V12.7251Z" fill="#136289"/>
<path d="M57.4656 16.4312H56.2361V17.6606H57.4656V16.4312Z" fill="#136289"/>
<path d="M57.4656 12.7251H56.2361V13.9546H57.4656V12.7251Z" fill="#136289"/>
<path d="M56.2358 16.4312H55.0063V17.6606H56.2358V16.4312Z" fill="#136289"/>
<path d="M56.2358 12.7251H55.0063V13.9546H56.2358V12.7251Z" fill="#136289"/>
<path d="M54.9881 16.4312H53.7587V17.6606H54.9881V16.4312Z" fill="#136289"/>
<path d="M54.9881 12.7251H53.7587V13.9546H54.9881V12.7251Z" fill="#136289"/>
<path d="M53.7588 22.6152H52.5294V23.8447H53.7588V22.6152Z" fill="#136289"/>
<path d="M53.7588 21.3862H52.5294V22.6157H53.7588V21.3862Z" fill="#136289"/>
<path d="M53.7588 20.1377H52.5294V21.3672H53.7588V20.1377Z" fill="#136289"/>
<path d="M53.7588 18.9087H52.5294V20.1382H53.7588V18.9087Z" fill="#136289"/>
<path d="M53.7588 17.6792H52.5294V18.9087H53.7588V17.6792Z" fill="#136289"/>
<path d="M53.7588 16.4312H52.5294V17.6606H53.7588V16.4312Z" fill="#136289"/>
<path d="M53.7588 15.2017H52.5294V16.4311H53.7588V15.2017Z" fill="#136289"/>
<path d="M53.7588 13.9546H52.5294V15.184H53.7588V13.9546Z" fill="#136289"/>
<path d="M53.7588 12.7251H52.5294V13.9546H53.7588V12.7251Z" fill="#136289"/>
<path d="M53.7588 11.4771H52.5294V12.7065H53.7588V11.4771Z" fill="#136289"/>
<path d="M53.7588 10.2476H52.5294V11.477H53.7588V10.2476Z" fill="#136289"/>
<path d="M53.7588 9.01855H52.5294V10.248H53.7588V9.01855Z" fill="#136289"/>
<path d="M53.7588 7.77051H52.5294V8.99997H53.7588V7.77051Z" fill="#136289"/>
<path d="M53.7588 6.54102H52.5294V7.77049H53.7588V6.54102Z" fill="#136289"/>
<path d="M52.5107 23.8633H51.2812V25.0927H52.5107V23.8633Z" fill="#136289"/>
<path d="M52.5107 5.29297H51.2812V6.52244H52.5107V5.29297Z" fill="#136289"/>
<path d="M51.2813 23.8633H50.0519V25.0927H51.2813V23.8633Z" fill="#136289"/>
<path d="M51.2813 5.29297H50.0519V6.52244H51.2813V5.29297Z" fill="#136289"/>
<path d="M50.0337 22.6152H48.8042V23.8447H50.0337V22.6152Z" fill="#136289"/>
<path d="M50.0337 21.3862H48.8042V22.6157H50.0337V21.3862Z" fill="#136289"/>
<path d="M50.0337 20.1377H48.8042V21.3672H50.0337V20.1377Z" fill="#136289"/>
<path d="M50.0337 18.9087H48.8042V20.1382H50.0337V18.9087Z" fill="#136289"/>
<path d="M50.0337 17.6792H48.8042V18.9087H50.0337V17.6792Z" fill="#136289"/>
<path d="M50.0337 16.4312H48.8042V17.6606H50.0337V16.4312Z" fill="#136289"/>
<path d="M50.0337 15.2017H48.8042V16.4311H50.0337V15.2017Z" fill="#136289"/>
<path d="M50.0337 13.9546H48.8042V15.184H50.0337V13.9546Z" fill="#136289"/>
<path d="M50.0337 12.7251H48.8042V13.9546H50.0337V12.7251Z" fill="#136289"/>
<path d="M50.0337 11.4771H48.8042V12.7065H50.0337V11.4771Z" fill="#136289"/>
<path d="M50.0337 10.2476H48.8042V11.477H50.0337V10.2476Z" fill="#136289"/>
<path d="M50.0337 9.01855H48.8042V10.248H50.0337V9.01855Z" fill="#136289"/>
<path d="M50.0337 7.77051H48.8042V8.99997H50.0337V7.77051Z" fill="#136289"/>
<path d="M50.0337 6.54102H48.8042V7.77049H50.0337V6.54102Z" fill="#136289"/>
<path d="M47.5746 27.5703H46.3452V28.7998H47.5746V27.5703Z" fill="#136289"/>
<path d="M47.5746 26.3408H46.3452V27.5703H47.5746V26.3408Z" fill="#136289"/>
<path d="M47.5746 25.0928H46.3452V26.3222H47.5746V25.0928Z" fill="#136289"/>
<path d="M47.5746 23.8633H46.3452V25.0927H47.5746V23.8633Z" fill="#136289"/>
<path d="M47.5746 22.6152H46.3452V23.8447H47.5746V22.6152Z" fill="#136289"/>
<path d="M47.5746 21.3862H46.3452V22.6157H47.5746V21.3862Z" fill="#136289"/>
<path d="M47.5746 20.1377H46.3452V21.3672H47.5746V20.1377Z" fill="#136289"/>
<path d="M47.5746 18.9087H46.3452V20.1382H47.5746V18.9087Z" fill="#136289"/>
<path d="M47.5746 17.6792H46.3452V18.9087H47.5746V17.6792Z" fill="#136289"/>
<path d="M47.5746 16.4312H46.3452V17.6606H47.5746V16.4312Z" fill="#136289"/>
<path d="M47.5746 15.2017H46.3452V16.4311H47.5746V15.2017Z" fill="#136289"/>
<path d="M47.5746 13.9546H46.3452V15.184H47.5746V13.9546Z" fill="#136289"/>
<path d="M47.5746 12.7251H46.3452V13.9546H47.5746V12.7251Z" fill="#136289"/>
<path d="M47.5746 11.4771H46.3452V12.7065H47.5746V11.4771Z" fill="#136289"/>
<path d="M47.5746 10.2476H46.3452V11.477H47.5746V10.2476Z" fill="#136289"/>
<path d="M47.5746 9.01855H46.3452V10.248H47.5746V9.01855Z" fill="#136289"/>
<path d="M47.5746 7.77051H46.3452V8.99997H47.5746V7.77051Z" fill="#136289"/>
<path d="M47.5746 6.54102H46.3452V7.77049H47.5746V6.54102Z" fill="#136289"/>
<path d="M47.5746 5.29297H46.3452V6.52244H47.5746V5.29297Z" fill="#136289"/>
<path d="M47.5746 4.06348H46.3452V5.29294H47.5746V4.06348Z" fill="#136289"/>
<path d="M47.5746 2.81543H46.3452V4.04489H47.5746V2.81543Z" fill="#136289"/>
<path d="M47.5746 1.58594H46.3452V2.8154H47.5746V1.58594Z" fill="#136289"/>
<path d="M46.3269 28.7993H45.0975V30.0288H46.3269V28.7993Z" fill="#136289"/>
<path d="M46.3269 0.356934H45.0975V1.58639H46.3269V0.356934Z" fill="#136289"/>
<path d="M45.0976 28.7993H43.8681V30.0288H45.0976V28.7993Z" fill="#136289"/>
<path d="M45.0976 0.356934H43.8681V1.58639H45.0976V0.356934Z" fill="#136289"/>
<path d="M43.8495 27.5703H42.62V28.7998H43.8495V27.5703Z" fill="#136289"/>
<path d="M43.8495 26.3408H42.62V27.5703H43.8495V26.3408Z" fill="#136289"/>
<path d="M43.8495 25.0928H42.62V26.3222H43.8495V25.0928Z" fill="#136289"/>
<path d="M43.8495 23.8633H42.62V25.0927H43.8495V23.8633Z" fill="#136289"/>
<path d="M43.8495 22.6152H42.62V23.8447H43.8495V22.6152Z" fill="#136289"/>
<path d="M43.8495 21.3862H42.62V22.6157H43.8495V21.3862Z" fill="#136289"/>
<path d="M43.8495 20.1377H42.62V21.3672H43.8495V20.1377Z" fill="#136289"/>
<path d="M43.8495 18.9087H42.62V20.1382H43.8495V18.9087Z" fill="#136289"/>
<path d="M43.8495 17.6792H42.62V18.9087H43.8495V17.6792Z" fill="#136289"/>
<path d="M43.8495 16.4312H42.62V17.6606H43.8495V16.4312Z" fill="#136289"/>
<path d="M43.8495 15.2017H42.62V16.4311H43.8495V15.2017Z" fill="#136289"/>
<path d="M43.8495 13.9546H42.62V15.184H43.8495V13.9546Z" fill="#136289"/>
<path d="M43.8495 12.7251H42.62V13.9546H43.8495V12.7251Z" fill="#136289"/>
<path d="M43.8495 11.4771H42.62V12.7065H43.8495V11.4771Z" fill="#136289"/>
<path d="M43.8495 10.2476H42.62V11.477H43.8495V10.2476Z" fill="#136289"/>
<path d="M43.8495 9.01855H42.62V10.248H43.8495V9.01855Z" fill="#136289"/>
<path d="M43.8495 7.77051H42.62V8.99997H43.8495V7.77051Z" fill="#136289"/>
<path d="M43.8495 6.54102H42.62V7.77049H43.8495V6.54102Z" fill="#136289"/>
<path d="M43.8495 5.29297H42.62V6.52244H43.8495V5.29297Z" fill="#136289"/>
<path d="M43.8495 4.06348H42.62V5.29294H43.8495V4.06348Z" fill="#136289"/>
<path d="M43.8495 2.81543H42.62V4.04489H43.8495V2.81543Z" fill="#136289"/>
<path d="M43.8495 1.58594H42.62V2.8154H43.8495V1.58594Z" fill="#136289"/>
<path d="M42.6202 16.4312H41.3907V17.6606H42.6202V16.4312Z" fill="#136289"/>
<path d="M42.6202 12.7251H41.3907V13.9546H42.6202V12.7251Z" fill="#136289"/>
<path d="M41.3725 16.4312H40.143V17.6606H41.3725V16.4312Z" fill="#136289"/>
<path d="M41.3725 12.7251H40.143V13.9546H41.3725V12.7251Z" fill="#136289"/>
<path d="M40.1427 16.4312H38.9132V17.6606H40.1427V16.4312Z" fill="#136289"/>
<path d="M40.1427 12.7251H38.9132V13.9546H40.1427V12.7251Z" fill="#136289"/>
<path d="M38.9134 16.4312H37.6839V17.6606H38.9134V16.4312Z" fill="#136289"/>
<path d="M38.9134 12.7251H37.6839V13.9546H38.9134V12.7251Z" fill="#136289"/>
<path d="M37.6657 16.4312H36.4362V17.6606H37.6657V16.4312Z" fill="#136289"/>
<path d="M37.6657 12.7251H36.4362V13.9546H37.6657V12.7251Z" fill="#136289"/>
<path d="M36.4359 16.4312H35.2064V17.6606H36.4359V16.4312Z" fill="#136289"/>
<path d="M36.4359 12.7251H35.2064V13.9546H36.4359V12.7251Z" fill="#136289"/>
<path d="M35.1882 16.4312H33.9587V17.6606H35.1882V16.4312Z" fill="#136289"/>
<path d="M35.1882 12.7251H33.9587V13.9546H35.1882V12.7251Z" fill="#136289"/>
<path d="M33.9589 16.4312H32.7294V17.6606H33.9589V16.4312Z" fill="#136289"/>
<path d="M33.9589 12.7251H32.7294V13.9546H33.9589V12.7251Z" fill="#136289"/>
<path d="M32.7112 16.4312H31.4818V17.6606H32.7112V16.4312Z" fill="#136289"/>
<path d="M32.7112 12.7251H31.4818V13.9546H32.7112V12.7251Z" fill="#136289"/>
<path d="M31.4814 16.4312H30.252V17.6606H31.4814V16.4312Z" fill="#136289"/>
<path d="M31.4814 12.7251H30.252V13.9546H31.4814V12.7251Z" fill="#136289"/>
<path d="M30.2521 16.4312H29.0226V17.6606H30.2521V16.4312Z" fill="#136289"/>
<path d="M30.2521 12.7251H29.0226V13.9546H30.2521V12.7251Z" fill="#136289"/>
<path d="M29.0044 16.4312H27.775V17.6606H29.0044V16.4312Z" fill="#136289"/>
<path d="M29.0044 12.7251H27.775V13.9546H29.0044V12.7251Z" fill="#136289"/>
<path d="M27.7747 16.4312H26.5452V17.6606H27.7747V16.4312Z" fill="#136289"/>
<path d="M27.7747 12.7251H26.5452V13.9546H27.7747V12.7251Z" fill="#136289"/>
<path d="M26.527 16.4312H25.2975V17.6606H26.527V16.4312Z" fill="#136289"/>
<path d="M26.527 12.7251H25.2975V13.9546H26.527V12.7251Z" fill="#136289"/>
<path d="M25.2976 16.4312H24.0682V17.6606H25.2976V16.4312Z" fill="#136289"/>
<path d="M25.2976 12.7251H24.0682V13.9546H25.2976V12.7251Z" fill="#136289"/>
<path d="M24.0495 16.4312H22.8201V17.6606H24.0495V16.4312Z" fill="#136289"/>
<path d="M24.0495 12.7251H22.8201V13.9546H24.0495V12.7251Z" fill="#136289"/>
<path d="M22.8202 16.4312H21.5908V17.6606H22.8202V16.4312Z" fill="#136289"/>
<path d="M22.8202 12.7251H21.5908V13.9546H22.8202V12.7251Z" fill="#136289"/>
<path d="M21.5909 16.4312H20.3614V17.6606H21.5909V16.4312Z" fill="#136289"/>
<path d="M21.5909 12.7251H20.3614V13.9546H21.5909V12.7251Z" fill="#136289"/>
<path d="M20.3432 16.4312H19.1137V17.6606H20.3432V16.4312Z" fill="#136289"/>
<path d="M20.3432 12.7251H19.1137V13.9546H20.3432V12.7251Z" fill="#136289"/>
<path d="M19.1134 16.4312H17.884V17.6606H19.1134V16.4312Z" fill="#136289"/>
<path d="M19.1134 12.7251H17.884V13.9546H19.1134V12.7251Z" fill="#136289"/>
<path d="M17.8658 27.5703H16.6363V28.7998H17.8658V27.5703Z" fill="#136289"/>
<path d="M17.8658 26.3408H16.6363V27.5703H17.8658V26.3408Z" fill="#136289"/>
<path d="M17.8658 25.0928H16.6363V26.3222H17.8658V25.0928Z" fill="#136289"/>
<path d="M17.8658 23.8633H16.6363V25.0927H17.8658V23.8633Z" fill="#136289"/>
<path d="M17.8658 22.6152H16.6363V23.8447H17.8658V22.6152Z" fill="#136289"/>
<path d="M17.8658 21.3862H16.6363V22.6157H17.8658V21.3862Z" fill="#136289"/>
<path d="M17.8658 20.1377H16.6363V21.3672H17.8658V20.1377Z" fill="#136289"/>
<path d="M17.8658 18.9087H16.6363V20.1382H17.8658V18.9087Z" fill="#136289"/>
<path d="M17.8658 17.6792H16.6363V18.9087H17.8658V17.6792Z" fill="#136289"/>
<path d="M17.8658 16.4312H16.6363V17.6606H17.8658V16.4312Z" fill="#136289"/>
<path d="M17.8658 15.2017H16.6363V16.4311H17.8658V15.2017Z" fill="#136289"/>
<path d="M17.8658 13.9546H16.6363V15.184H17.8658V13.9546Z" fill="#136289"/>
<path d="M17.8658 12.7251H16.6363V13.9546H17.8658V12.7251Z" fill="#136289"/>
<path d="M17.8658 11.4771H16.6363V12.7065H17.8658V11.4771Z" fill="#136289"/>
<path d="M17.8658 10.2476H16.6363V11.477H17.8658V10.2476Z" fill="#136289"/>
<path d="M17.8658 9.01855H16.6363V10.248H17.8658V9.01855Z" fill="#136289"/>
<path d="M17.8658 7.77051H16.6363V8.99997H17.8658V7.77051Z" fill="#136289"/>
<path d="M17.8658 6.54102H16.6363V7.77049H17.8658V6.54102Z" fill="#136289"/>
<path d="M17.8658 5.29297H16.6363V6.52244H17.8658V5.29297Z" fill="#136289"/>
<path d="M17.8658 4.06348H16.6363V5.29294H17.8658V4.06348Z" fill="#136289"/>
<path d="M17.8658 2.81543H16.6363V4.04489H17.8658V2.81543Z" fill="#136289"/>
<path d="M17.8658 1.58594H16.6363V2.8154H17.8658V1.58594Z" fill="#136289"/>
<path d="M16.6364 28.7993H15.407V30.0288H16.6364V28.7993Z" fill="#136289"/>
<path d="M16.6364 0.356934H15.407V1.58639H16.6364V0.356934Z" fill="#136289"/>
<path d="M15.3883 28.7993H14.1588V30.0288H15.3883V28.7993Z" fill="#136289"/>
<path d="M15.3883 0.356934H14.1588V1.58639H15.3883V0.356934Z" fill="#136289"/>
<path d="M14.159 27.5703H12.9295V28.7998H14.159V27.5703Z" fill="#136289"/>
<path d="M14.159 26.3408H12.9295V27.5703H14.159V26.3408Z" fill="#136289"/>
<path d="M14.159 25.0928H12.9295V26.3222H14.159V25.0928Z" fill="#136289"/>
<path d="M14.159 23.8633H12.9295V25.0927H14.159V23.8633Z" fill="#136289"/>
<path d="M14.159 22.6152H12.9295V23.8447H14.159V22.6152Z" fill="#136289"/>
<path d="M14.159 21.3862H12.9295V22.6157H14.159V21.3862Z" fill="#136289"/>
<path d="M14.159 20.1377H12.9295V21.3672H14.159V20.1377Z" fill="#136289"/>
<path d="M14.159 18.9087H12.9295V20.1382H14.159V18.9087Z" fill="#136289"/>
<path d="M14.159 17.6792H12.9295V18.9087H14.159V17.6792Z" fill="#136289"/>
<path d="M14.159 16.4312H12.9295V17.6606H14.159V16.4312Z" fill="#136289"/>
<path d="M14.159 15.2017H12.9295V16.4311H14.159V15.2017Z" fill="#136289"/>
<path d="M14.159 13.9546H12.9295V15.184H14.159V13.9546Z" fill="#136289"/>
<path d="M14.159 12.7251H12.9295V13.9546H14.159V12.7251Z" fill="#136289"/>
<path d="M14.159 11.4771H12.9295V12.7065H14.159V11.4771Z" fill="#136289"/>
<path d="M14.159 10.2476H12.9295V11.477H14.159V10.2476Z" fill="#136289"/>
<path d="M14.159 9.01855H12.9295V10.248H14.159V9.01855Z" fill="#136289"/>
<path d="M14.159 7.77051H12.9295V8.99997H14.159V7.77051Z" fill="#136289"/>
<path d="M14.159 6.54102H12.9295V7.77049H14.159V6.54102Z" fill="#136289"/>
<path d="M14.159 5.29297H12.9295V6.52244H14.159V5.29297Z" fill="#136289"/>
<path d="M14.159 4.06348H12.9295V5.29294H14.159V4.06348Z" fill="#136289"/>
<path d="M14.159 2.81543H12.9295V4.04489H14.159V2.81543Z" fill="#136289"/>
<path d="M14.159 1.58594H12.9295V2.8154H14.159V1.58594Z" fill="#136289"/>
<path d="M11.6815 22.6152H10.452V23.8447H11.6815V22.6152Z" fill="#136289"/>
<path d="M11.6815 21.3862H10.452V22.6157H11.6815V21.3862Z" fill="#136289"/>
<path d="M11.6815 20.1377H10.452V21.3672H11.6815V20.1377Z" fill="#136289"/>
<path d="M11.6815 18.9087H10.452V20.1382H11.6815V18.9087Z" fill="#136289"/>
<path d="M11.6815 17.6792H10.452V18.9087H11.6815V17.6792Z" fill="#136289"/>
<path d="M11.6815 16.4312H10.452V17.6606H11.6815V16.4312Z" fill="#136289"/>
<path d="M11.6815 15.2017H10.452V16.4311H11.6815V15.2017Z" fill="#136289"/>
<path d="M11.6815 13.9546H10.452V15.184H11.6815V13.9546Z" fill="#136289"/>
<path d="M11.6815 12.7251H10.452V13.9546H11.6815V12.7251Z" fill="#136289"/>
<path d="M11.6815 11.4771H10.452V12.7065H11.6815V11.4771Z" fill="#136289"/>
<path d="M11.6815 10.2476H10.452V11.477H11.6815V10.2476Z" fill="#136289"/>
<path d="M11.6815 9.01855H10.452V10.248H11.6815V9.01855Z" fill="#136289"/>
<path d="M11.6815 7.77051H10.452V8.99997H11.6815V7.77051Z" fill="#136289"/>
<path d="M11.6815 6.54102H10.452V7.77049H11.6815V6.54102Z" fill="#136289"/>
<path d="M10.4522 23.8633H9.22272V25.0927H10.4522V23.8633Z" fill="#136289"/>
<path d="M10.4522 5.29297H9.22272V6.52244H10.4522V5.29297Z" fill="#136289"/>
<path d="M9.2045 23.8633H7.97504V25.0927H9.2045V23.8633Z" fill="#136289"/>
<path d="M9.2045 5.29297H7.97504V6.52244H9.2045V5.29297Z" fill="#136289"/>
<path d="M7.97519 22.6152H6.74573V23.8447H7.97519V22.6152Z" fill="#136289"/>
<path d="M7.97519 21.3862H6.74573V22.6157H7.97519V21.3862Z" fill="#136289"/>
<path d="M7.97519 20.1377H6.74573V21.3672H7.97519V20.1377Z" fill="#136289"/>
<path d="M7.97519 18.9087H6.74573V20.1382H7.97519V18.9087Z" fill="#136289"/>
<path d="M7.97519 17.6792H6.74573V18.9087H7.97519V17.6792Z" fill="#136289"/>
<path d="M7.97519 16.4312H6.74573V17.6606H7.97519V16.4312Z" fill="#136289"/>
<path d="M7.97519 15.2017H6.74573V16.4311H7.97519V15.2017Z" fill="#136289"/>
<path d="M7.97519 13.9546H6.74573V15.184H7.97519V13.9546Z" fill="#136289"/>
<path d="M7.97519 12.7251H6.74573V13.9546H7.97519V12.7251Z" fill="#136289"/>
<path d="M7.97519 11.4771H6.74573V12.7065H7.97519V11.4771Z" fill="#136289"/>
<path d="M7.97519 10.2476H6.74573V11.477H7.97519V10.2476Z" fill="#136289"/>
<path d="M7.97519 9.01855H6.74573V10.248H7.97519V9.01855Z" fill="#136289"/>
<path d="M7.97519 7.77051H6.74573V8.99997H7.97519V7.77051Z" fill="#136289"/>
<path d="M7.97519 6.54102H6.74573V7.77049H7.97519V6.54102Z" fill="#136289"/>
<path d="M6.72702 16.4312H5.49756V17.6606H6.72702V16.4312Z" fill="#136289"/>
<path d="M6.72702 12.7251H5.49756V13.9546H6.72702V12.7251Z" fill="#136289"/>
<path d="M5.49771 16.4312H4.26825V17.6606H5.49771V16.4312Z" fill="#136289"/>
<path d="M5.49771 12.7251H4.26825V13.9546H5.49771V12.7251Z" fill="#136289"/>
<path d="M4.2684 16.4312H3.03894V17.6606H4.2684V16.4312Z" fill="#136289"/>
<path d="M4.2684 12.7251H3.03894V13.9546H4.2684V12.7251Z" fill="#136289"/>
<path d="M3.02029 16.4312H1.79083V17.6606H3.02029V16.4312Z" fill="#136289"/>
<path d="M3.02029 12.7251H1.79083V13.9546H3.02029V12.7251Z" fill="#136289"/>
<path d="M1.79093 15.2017H0.561462V16.4311H1.79093V15.2017Z" fill="#136289"/>
<path d="M1.79093 13.9546H0.561462V15.184H1.79093V13.9546Z" fill="#136289"/>
</svg>
