<svg width="79" height="79" viewBox="0 0 79 79" fill="none" xmlns="http://www.w3.org/2000/svg">
<path d="M46.6558 58.9043H47.8852V67.5656H46.6558V68.8134H21.9013V67.5656H20.6719V58.9043H21.9013V57.6748H46.6558V58.9043Z" fill="#136289"/>
<path d="M50.3625 45.2885H51.6104V53.9498H50.3625V55.1976H25.6265V53.9498H24.3787V45.2885H25.6265V44.0591H50.3625V45.2885Z" fill="#136289"/>
<path d="M56.5465 31.6912V40.3525H55.317V41.5819H30.5626V40.3525H29.3331V31.6912H30.5626V30.4434H55.317V31.6912H56.5465Z" fill="#136289"/>
<path d="M52.84 21.1955V19.9476H51.5922V18.7182H50.3628V17.4887H49.115V16.2409H47.8855V15.0114H46.656V13.7636H45.4082V12.5342H42.9309V13.7636H41.7015V15.0114H40.4537V16.2409H39.2242V17.4887H37.9764V18.7182H36.7469V19.9476H35.5175V21.1955H37.9764V29.8568H50.3628V21.1955H52.84Z" fill="#F19400"/>
<path d="M46.6559 67.5659H21.9015V68.7953H46.6559V67.5659Z" fill="#136289"/>
<path d="M46.6559 57.6758H21.9015V58.9053H46.6559V57.6758Z" fill="#136289"/>
<path d="M21.9016 58.9053H20.6721V67.5666H21.9016V58.9053Z" fill="#136289"/>
<path d="M47.8853 58.9053H46.6559V67.5666H47.8853V58.9053Z" fill="#136289"/>
<path d="M50.3627 53.9692H25.6083V55.1987H50.3627V53.9692Z" fill="#136289"/>
<path d="M50.3627 44.0601H25.6083V45.2895H50.3627V44.0601Z" fill="#136289"/>
<path d="M25.6084 45.3071H24.3789V53.9684H25.6084V45.3071Z" fill="#136289"/>
<path d="M51.5921 45.3071H50.3627V53.9684H51.5921V45.3071Z" fill="#136289"/>
<path d="M55.3171 40.3535H30.5627V41.583H55.3171V40.3535Z" fill="#136289"/>
<path d="M55.3171 30.4434H30.5627V31.6728H55.3171V30.4434Z" fill="#136289"/>
<path d="M30.5628 31.6914H29.3334V40.3527H30.5628V31.6914Z" fill="#136289"/>
<path d="M56.5466 31.6914H55.3171V40.3527H56.5466V31.6914Z" fill="#136289"/>
<path d="M36.747 21.7827H35.5176V29.2145H36.747V21.7827Z" fill="#136289"/>
<path d="M50.3628 21.7827H49.1333V29.2145H50.3628V21.7827Z" fill="#136289"/>
<path d="M36.7469 20.5532H33.0402V21.7827H36.7469V20.5532Z" fill="#136289"/>
<path d="M52.84 20.5532H49.1333V21.7827H52.84V20.5532Z" fill="#136289"/>
<path d="M34.2696 19.3242H33.0402V20.5537H34.2696V19.3242Z" fill="#136289"/>
<path d="M35.499 18.0757H34.2695V19.3052H35.499V18.0757Z" fill="#136289"/>
<path d="M36.747 16.8467H35.5176V18.0761H36.747V16.8467Z" fill="#136289"/>
<path d="M37.9764 15.5986H36.7469V16.8281H37.9764V15.5986Z" fill="#136289"/>
<path d="M39.2241 14.3691H37.9946V15.5986H39.2241V14.3691Z" fill="#136289"/>
<path d="M40.4538 13.1211H39.2244V14.3506H40.4538V13.1211Z" fill="#136289"/>
<path d="M41.7015 11.8916H40.472V13.1211H41.7015V11.8916Z" fill="#136289"/>
<path d="M42.9309 10.6626H41.7014V11.8921H42.9309V10.6626Z" fill="#136289"/>
<path d="M51.5921 18.0757H50.3627V19.3052H51.5921V18.0757Z" fill="#136289"/>
<path d="M50.3628 16.8467H49.1333V18.0761H50.3628V16.8467Z" fill="#136289"/>
<path d="M49.1151 15.5986H47.8856V16.8281H49.1151V15.5986Z" fill="#136289"/>
<path d="M47.8853 14.3691H46.6559V15.5986H47.8853V14.3691Z" fill="#136289"/>
<path d="M46.6377 13.1211H45.4082V14.3506H46.6377V13.1211Z" fill="#136289"/>
<path d="M45.4083 11.8916H44.1788V13.1211H45.4083V11.8916Z" fill="#136289"/>
<path d="M44.1603 10.6626H42.9308V11.8921H44.1603V10.6626Z" fill="#136289"/>
<path d="M52.8219 19.3242H51.5924V20.5537H52.8219V19.3242Z" fill="#136289"/>
</svg>
