<svg width="59" height="39" viewBox="0 0 59 39" fill="none" xmlns="http://www.w3.org/2000/svg">
<path d="M3.74626 26.0432V35.9339H4.97572V37.1634H6.20519V38.3928H8.68245V37.1634H9.91191V35.9339H11.1414V34.7045H12.3709V33.475H13.6003V32.2455H14.8298V31.0161H16.0592V29.7866H17.2887V28.5572H44.502V29.7866H45.7315V31.0161H46.961V32.2455H48.1904V33.475H49.4199V34.7045H50.6494V35.9339H51.8788V37.1634H53.1083V38.3928H55.5856V37.1634H56.815V35.9339H58.0445V23.5659H56.815V18.6113H55.5856V16.1341L54.2827 15.1982L54.3377 14.9046V12.4273H53.1083V9.95003H51.8788V8.72057H50.6494V7.49111H49.4199V6.26165H48.1904V5.03219H45.7132V3.80273H42.0064V5.03219H39.5292V6.26165H38.2997V7.49111H23.4544V6.26165H22.2249V5.03219H19.7476V3.80273H16.0409V5.03219H13.5636V6.26165H12.3342V7.49111H11.1047V8.72057H9.87523V9.95003H8.64576V12.4273H7.4163V14.9046H6.18684V18.6113H4.95738V23.5659H3.72791V26.0432H3.74626Z" fill="#F19400"/>
<path d="M43.9698 18.0244H42.7404V19.2539H43.9698V18.0244Z" fill="#136289"/>
<path d="M43.9698 16.7759H42.7404V18.0054H43.9698V16.7759Z" fill="#136289"/>
<path d="M42.7406 19.2534H41.5111V20.4829H42.7406V19.2534Z" fill="#136289"/>
<path d="M42.7406 16.7759H41.5111V18.0054H42.7406V16.7759Z" fill="#136289"/>
<path d="M43.9698 19.2534H42.7404V20.4829H43.9698V19.2534Z" fill="#136289"/>
<path d="M41.4929 19.2534H40.2634V20.4829H41.4929V19.2534Z" fill="#136289"/>
<path d="M43.4013 18.0244H40.2634V19.2539H43.4013V18.0244Z" fill="#136289"/>
<path d="M41.4929 16.7759H40.2634V18.0054H41.4929V16.7759Z" fill="#136289"/>
<path d="M47.6766 15.5469H46.4471V16.7763H47.6766V15.5469Z" fill="#136289"/>
<path d="M47.6766 13.0703H46.4471V14.2998H47.6766V13.0703Z" fill="#136289"/>
<path d="M47.6766 14.3174H46.4471V15.5468H47.6766V14.3174Z" fill="#136289"/>
<path d="M46.4474 13.0703H45.2179V14.2998H46.4474V13.0703Z" fill="#136289"/>
<path d="M46.4474 13.3633H45.2179V16.7764H46.4474V13.3633Z" fill="#136289"/>
<path d="M45.1997 13.0703H43.9702V14.2998H45.1997V13.0703Z" fill="#136289"/>
<path d="M45.1997 15.5469H43.9702V16.7763H45.1997V15.5469Z" fill="#136289"/>
<path d="M45.1997 14.3174H43.9702V15.5468H45.1997V14.3174Z" fill="#136289"/>
<path d="M43.9698 9.36328H42.7404V10.5927H43.9698V9.36328Z" fill="#136289"/>
<path d="M42.7406 9.36328H41.5111V11.547H42.7406V9.36328Z" fill="#136289"/>
<path d="M43.9698 11.8398H42.7404V13.0693H43.9698V11.8398Z" fill="#136289"/>
<path d="M43.9698 10.5928H42.7404V11.8222H43.9698V10.5928Z" fill="#136289"/>
<path d="M42.7406 11.5283H41.5111V13.0698H42.7406V11.5283Z" fill="#136289"/>
<path d="M41.4929 11.8398H40.2634V13.0693H41.4929V11.8398Z" fill="#136289"/>
<path d="M41.4929 10.5928H40.2634V11.8222H41.4929V10.5928Z" fill="#136289"/>
<path d="M41.4929 9.36328H40.2634V10.5927H41.4929V9.36328Z" fill="#136289"/>
<path d="M57.586 34.0996H56.3566V35.3291H57.586V34.0996Z" fill="#136289"/>
<path d="M57.586 32.8691H56.3566V34.0986H57.586V32.8691Z" fill="#136289"/>
<path d="M57.586 31.6401H56.3566V32.8696H57.586V31.6401Z" fill="#136289"/>
<path d="M57.586 30.3926H56.3566V31.622H57.586V30.3926Z" fill="#136289"/>
<path d="M57.586 29.1626H56.3566V30.3921H57.586V29.1626Z" fill="#136289"/>
<path d="M57.586 27.915H56.3566V29.1445H57.586V27.915Z" fill="#136289"/>
<path d="M57.586 26.686H56.3566V27.9155H57.586V26.686Z" fill="#136289"/>
<path d="M57.586 25.438H56.3566V26.6674H57.586V25.438Z" fill="#136289"/>
<path d="M57.586 24.2085H56.3566V25.438H57.586V24.2085Z" fill="#136289"/>
<path d="M57.586 22.979H56.3566V24.2085H57.586V22.979Z" fill="#136289"/>
<path d="M57.586 21.731H56.3566V22.9604H57.586V21.731Z" fill="#136289"/>
<path d="M56.3379 35.3467H55.1084V36.5761H56.3379V35.3467Z" fill="#136289"/>
<path d="M56.3379 34.0996H55.1084V35.3291H56.3379V34.0996Z" fill="#136289"/>
<path d="M56.3379 20.5015H55.1084V21.731H56.3379V20.5015Z" fill="#136289"/>
<path d="M56.3379 19.2534H55.1084V20.4829H56.3379V19.2534Z" fill="#136289"/>
<path d="M56.3379 18.0244H55.1084V19.2539H56.3379V18.0244Z" fill="#136289"/>
<path d="M56.3379 16.7759H55.1084V18.0054H56.3379V16.7759Z" fill="#136289"/>
<path d="M55.1086 36.5762H53.8792V37.8056H55.1086V36.5762Z" fill="#136289"/>
<path d="M55.1086 35.3467H53.8792V36.5761H55.1086V35.3467Z" fill="#136289"/>
<path d="M55.1086 15.5469H53.8792V16.7763H55.1086V15.5469Z" fill="#136289"/>
<path d="M55.1086 14.3174H53.8792V15.5468H55.1086V14.3174Z" fill="#136289"/>
<path d="M55.1086 13.0703H53.8792V14.2998H55.1086V13.0703Z" fill="#136289"/>
<path d="M53.8608 36.5762H52.6313V37.8056H53.8608V36.5762Z" fill="#136289"/>
<path d="M53.8608 11.8398H52.6313V13.0693H53.8608V11.8398Z" fill="#136289"/>
<path d="M53.8608 10.5928H52.6313V11.8222H53.8608V10.5928Z" fill="#136289"/>
<path d="M52.6311 36.5762H51.4016V37.8056H52.6311V36.5762Z" fill="#136289"/>
<path d="M51.4018 36.5762H50.1724V37.8056H51.4018V36.5762Z" fill="#136289"/>
<path d="M52.6311 9.36328H51.4016V10.5927H52.6311V9.36328Z" fill="#136289"/>
<path d="M52.6311 8.11523H51.4016V9.34472H52.6311V8.11523Z" fill="#136289"/>
<path d="M51.4018 35.3467H50.1724V36.5761H51.4018V35.3467Z" fill="#136289"/>
<path d="M51.4018 6.88574H50.1724V8.1152H51.4018V6.88574Z" fill="#136289"/>
<path d="M51.4018 5.65674H50.1724V6.8862H51.4018V5.65674Z" fill="#136289"/>
<path d="M50.1541 35.3467H48.9247V36.5761H50.1541V35.3467Z" fill="#136289"/>
<path d="M50.1541 34.0996H48.9247V35.3291H50.1541V34.0996Z" fill="#136289"/>
<path d="M50.1541 5.65674H48.9247V6.8862H50.1541V5.65674Z" fill="#136289"/>
<path d="M50.1541 4.40869H48.9247V5.63815H50.1541V4.40869Z" fill="#136289"/>
<path d="M48.9248 34.0996H47.6953V35.3291H48.9248V34.0996Z" fill="#136289"/>
<path d="M48.9248 32.8691H47.6953V34.0986H48.9248V32.8691Z" fill="#136289"/>
<path d="M48.9248 4.40869H47.6953V5.63815H48.9248V4.40869Z" fill="#136289"/>
<path d="M48.9248 3.1792H47.6953V4.40866H48.9248V3.1792Z" fill="#136289"/>
<path d="M47.6766 32.8691H46.4471V34.0986H47.6766V32.8691Z" fill="#136289"/>
<path d="M47.6766 31.6401H46.4471V32.8696H47.6766V31.6401Z" fill="#136289"/>
<path d="M47.6766 3.1792H46.4471V4.40866H47.6766V3.1792Z" fill="#136289"/>
<path d="M47.6766 1.93115H46.4471V3.16061H47.6766V1.93115Z" fill="#136289"/>
<path d="M46.4474 31.6401H45.2179V32.8696H46.4474V31.6401Z" fill="#136289"/>
<path d="M46.4474 30.3926H45.2179V31.622H46.4474V30.3926Z" fill="#136289"/>
<path d="M46.4474 1.93115H45.2179V3.16061H46.4474V1.93115Z" fill="#136289"/>
<path d="M45.1997 30.3926H43.9702V31.622H45.1997V30.3926Z" fill="#136289"/>
<path d="M45.1997 29.1626H43.9702V30.3921H45.1997V29.1626Z" fill="#136289"/>
<path d="M45.1997 1.93115H43.9702V3.16061H45.1997V1.93115Z" fill="#136289"/>
<path d="M45.1997 0.70166H43.9702V1.93112H45.1997V0.70166Z" fill="#136289"/>
<path d="M43.9698 29.1626H42.7404V30.3921H43.9698V29.1626Z" fill="#136289"/>
<path d="M43.9698 27.915H42.7404V29.1445H43.9698V27.915Z" fill="#136289"/>
<path d="M43.9698 0.70166H42.7404V1.93112H43.9698V0.70166Z" fill="#136289"/>
<path d="M42.7406 27.915H41.5111V29.1445H42.7406V27.915Z" fill="#136289"/>
<path d="M42.7406 26.686H41.5111V27.9155H42.7406V26.686Z" fill="#136289"/>
<path d="M42.7406 0.70166H41.5111V1.93112H42.7406V0.70166Z" fill="#136289"/>
<path d="M41.4929 26.686H40.2634V27.9155H41.4929V26.686Z" fill="#136289"/>
<path d="M41.4929 0.70166H40.2634V1.93112H41.4929V0.70166Z" fill="#136289"/>
<path d="M40.263 26.686H39.0336V27.9155H40.263V26.686Z" fill="#136289"/>
<path d="M40.263 1.93115H39.0336V3.16061H40.263V1.93115Z" fill="#136289"/>
<path d="M39.0153 26.686H37.7859V27.9155H39.0153V26.686Z" fill="#136289"/>
<path d="M40.263 15.5469H39.0336V16.7763H40.263V15.5469Z" fill="#136289"/>
<path d="M40.263 14.3174H39.0336V15.5468H40.263V14.3174Z" fill="#136289"/>
<path d="M40.263 13.0703H39.0336V14.2998H40.263V13.0703Z" fill="#136289"/>
<path d="M39.0153 1.93115H37.7859V3.16061H39.0153V1.93115Z" fill="#136289"/>
<path d="M37.7861 26.686H36.5566V27.9155H37.7861V26.686Z" fill="#136289"/>
<path d="M39.0153 15.5469H37.7859V16.7763H39.0153V15.5469Z" fill="#136289"/>
<path d="M39.0153 13.0703H37.7859V14.2998H39.0153V13.0703Z" fill="#136289"/>
<path d="M37.7861 3.1792H36.5566V4.40866H37.7861V3.1792Z" fill="#136289"/>
<path d="M36.5384 26.686H35.309V27.9155H36.5384V26.686Z" fill="#136289"/>
<path d="M37.7861 15.5469H36.5566V16.7763H37.7861V15.5469Z" fill="#136289"/>
<path d="M39.7312 14.3174H36.5566V15.5468H39.7312V14.3174Z" fill="#136289"/>
<path d="M37.7861 13.0703H36.5566V14.2998H37.7861V13.0703Z" fill="#136289"/>
<path d="M36.5384 4.40869H35.309V5.63815H36.5384V4.40869Z" fill="#136289"/>
<path d="M36.5384 3.1792H35.309V4.40866H36.5384V3.1792Z" fill="#136289"/>
<path d="M35.3086 26.686H34.0791V27.9155H35.3086V26.686Z" fill="#136289"/>
<path d="M35.3086 4.40869H34.0791V5.63815H35.3086V4.40869Z" fill="#136289"/>
<path d="M34.0793 26.686H32.8499V27.9155H34.0793V26.686Z" fill="#136289"/>
<path d="M34.0793 4.40869H32.8499V5.63815H34.0793V4.40869Z" fill="#136289"/>
<path d="M32.8316 26.686H31.6022V27.9155H32.8316V26.686Z" fill="#136289"/>
<path d="M32.8316 4.40869H31.6022V5.63815H32.8316V4.40869Z" fill="#136289"/>
<path d="M31.6019 26.686H30.3724V27.9155H31.6019V26.686Z" fill="#136289"/>
<path d="M31.6019 4.40869H30.3724V5.63815H31.6019V4.40869Z" fill="#136289"/>
<path d="M30.3542 26.686H29.1248V27.9155H30.3542V26.686Z" fill="#136289"/>
<path d="M30.3542 4.40869H29.1248V5.63815H30.3542V4.40869Z" fill="#136289"/>
<path d="M29.1248 26.686H27.8954V27.9155H29.1248V26.686Z" fill="#136289"/>
<path d="M29.1248 4.40869H27.8954V5.63815H29.1248V4.40869Z" fill="#136289"/>
<path d="M27.8767 26.686H26.6472V27.9155H27.8767V26.686Z" fill="#136289"/>
<path d="M27.8767 4.40869H26.6472V5.63815H27.8767V4.40869Z" fill="#136289"/>
<path d="M26.6474 26.686H25.418V27.9155H26.6474V26.686Z" fill="#136289"/>
<path d="M26.6474 4.40869H25.418V5.63815H26.6474V4.40869Z" fill="#136289"/>
<path d="M25.4181 26.686H24.1886V27.9155H25.4181V26.686Z" fill="#136289"/>
<path d="M25.4181 4.40869H24.1886V5.63815H25.4181V4.40869Z" fill="#136289"/>
<path d="M24.1699 26.686H22.9404V27.9155H24.1699V26.686Z" fill="#136289"/>
<path d="M24.1699 4.40869H22.9404V5.63815H24.1699V4.40869Z" fill="#136289"/>
<path d="M22.9406 26.686H21.7112V27.9155H22.9406V26.686Z" fill="#136289"/>
<path d="M22.9406 4.40869H21.7112V5.63815H22.9406V4.40869Z" fill="#136289"/>
<path d="M22.9406 3.1792H21.7112V4.40866H22.9406V3.1792Z" fill="#136289"/>
<path d="M21.693 26.686H20.4635V27.9155H21.693V26.686Z" fill="#136289"/>
<path d="M21.693 3.1792H20.4635V4.40866H21.693V3.1792Z" fill="#136289"/>
<path d="M20.4631 26.686H19.2336V27.9155H20.4631V26.686Z" fill="#136289"/>
<path d="M20.4631 1.93115H19.2336V3.16061H20.4631V1.93115Z" fill="#136289"/>
<path d="M19.2154 26.686H17.986V27.9155H19.2154V26.686Z" fill="#136289"/>
<path d="M19.2154 1.93115H17.986V3.16061H19.2154V1.93115Z" fill="#136289"/>
<path d="M17.9862 26.686H16.7567V27.9155H17.9862V26.686Z" fill="#136289"/>
<path d="M17.9862 0.70166H16.7567V1.93112H17.9862V0.70166Z" fill="#136289"/>
<path d="M16.7568 27.915H15.5273V29.1445H16.7568V27.915Z" fill="#136289"/>
<path d="M16.7568 26.686H15.5273V27.9155H16.7568V26.686Z" fill="#136289"/>
<path d="M16.7568 0.70166H15.5273V1.93112H16.7568V0.70166Z" fill="#136289"/>
<path d="M15.5086 29.1626H14.2792V30.3921H15.5086V29.1626Z" fill="#136289"/>
<path d="M15.5086 27.915H14.2792V29.1445H15.5086V27.915Z" fill="#136289"/>
<path d="M9.94885 17.4006H23.216V16.1711V14.9233V13.6938H9.94885" fill="#136289"/>
<path d="M18.4448 22.1903V8.90479H17.197H15.9675H14.738V22.1903" fill="#136289"/>
<path d="M15.5086 0.70166H14.2792V1.93112H15.5086V0.70166Z" fill="#136289"/>
<path d="M14.2794 30.3926H13.0499V31.622H14.2794V30.3926Z" fill="#136289"/>
<path d="M14.2794 29.1626H13.0499V30.3921H14.2794V29.1626Z" fill="#136289"/>
<path d="M14.2794 1.93115H13.0499V3.16061H14.2794V1.93115Z" fill="#136289"/>
<path d="M14.2794 0.70166H13.0499V1.93112H14.2794V0.70166Z" fill="#136289"/>
<path d="M13.0317 31.6401H11.8022V32.8696H13.0317V31.6401Z" fill="#136289"/>
<path d="M13.0317 30.3926H11.8022V31.622H13.0317V30.3926Z" fill="#136289"/>
<path d="M13.0317 1.93115H11.8022V3.16061H13.0317V1.93115Z" fill="#136289"/>
<path d="M11.802 32.8691H10.5725V34.0986H11.802V32.8691Z" fill="#136289"/>
<path d="M11.802 31.6401H10.5725V32.8696H11.802V31.6401Z" fill="#136289"/>
<path d="M11.802 3.1792H10.5725V4.40866H11.802V3.1792Z" fill="#136289"/>
<path d="M11.802 1.93115H10.5725V3.16061H11.802V1.93115Z" fill="#136289"/>
<path d="M10.5543 34.0996H9.32483V35.3291H10.5543V34.0996Z" fill="#136289"/>
<path d="M10.5543 32.8691H9.32483V34.0986H10.5543V32.8691Z" fill="#136289"/>
<path d="M10.5543 4.40869H9.32483V5.63815H10.5543V4.40869Z" fill="#136289"/>
<path d="M10.5543 3.1792H9.32483V4.40866H10.5543V3.1792Z" fill="#136289"/>
<path d="M9.32492 34.0996H8.09546V35.3291H9.32492V34.0996Z" fill="#136289"/>
<path d="M9.32492 5.65674H8.09546V6.8862H9.32492V5.65674Z" fill="#136289"/>
<path d="M9.32492 4.40869H8.09546V5.63815H9.32492V4.40869Z" fill="#136289"/>
<path d="M9.32492 35.3467H8.09546V36.5761H9.32492V35.3467Z" fill="#136289"/>
<path d="M8.0952 6.88574H6.86572V8.1152H8.0952V6.88574Z" fill="#136289"/>
<path d="M8.0952 5.65674H6.86572V6.8862H8.0952V5.65674Z" fill="#136289"/>
<path d="M6.84752 36.5762H5.61804V37.8056H6.84752V36.5762Z" fill="#136289"/>
<path d="M8.0952 35.3467H6.86572V36.5761H8.0952V35.3467Z" fill="#136289"/>
<path d="M8.0952 36.5762H6.86572V37.8056H8.0952V36.5762Z" fill="#136289"/>
<path d="M6.84752 9.36328H5.61804V10.5927H6.84752V9.36328Z" fill="#136289"/>
<path d="M6.84752 8.11523H5.61804V9.34472H6.84752V8.11523Z" fill="#136289"/>
<path d="M5.61813 36.5762H4.38867V37.8056H5.61813V36.5762Z" fill="#136289"/>
<path d="M5.61813 11.8398H4.38867V13.0693H5.61813V11.8398Z" fill="#136289"/>
<path d="M5.61813 10.5928H4.38867V11.8222H5.61813V10.5928Z" fill="#136289"/>
<path d="M4.37046 36.5762H3.14099V37.8056H4.37046V36.5762Z" fill="#136289"/>
<path d="M4.37046 35.3467H3.14099V36.5761H4.37046V35.3467Z" fill="#136289"/>
<path d="M4.37046 15.5469H3.14099V16.7763H4.37046V15.5469Z" fill="#136289"/>
<path d="M4.37046 14.3174H3.14099V15.5468H4.37046V14.3174Z" fill="#136289"/>
<path d="M4.37046 13.0703H3.14099V14.2998H4.37046V13.0703Z" fill="#136289"/>
<path d="M3.14071 35.3467H1.91125V36.5761H3.14071V35.3467Z" fill="#136289"/>
<path d="M3.14071 34.0996H1.91125V35.3291H3.14071V34.0996Z" fill="#136289"/>
<path d="M3.14071 20.5015H1.91125V21.731H3.14071V20.5015Z" fill="#136289"/>
<path d="M3.14071 19.2534H1.91125V20.4829H3.14071V19.2534Z" fill="#136289"/>
<path d="M3.14071 18.0244H1.91125V19.2539H3.14071V18.0244Z" fill="#136289"/>
<path d="M3.14071 16.7759H1.91125V18.0054H3.14071V16.7759Z" fill="#136289"/>
<path d="M1.89303 34.0996H0.663574V35.3291H1.89303V34.0996Z" fill="#136289"/>
<path d="M1.89303 32.8691H0.663574V34.0986H1.89303V32.8691Z" fill="#136289"/>
<path d="M1.89303 31.6401H0.663574V32.8696H1.89303V31.6401Z" fill="#136289"/>
<path d="M1.89303 30.3926H0.663574V31.622H1.89303V30.3926Z" fill="#136289"/>
<path d="M1.89303 29.1626H0.663574V30.3921H1.89303V29.1626Z" fill="#136289"/>
<path d="M1.89303 27.915H0.663574V29.1445H1.89303V27.915Z" fill="#136289"/>
<path d="M1.89303 26.686H0.663574V27.9155H1.89303V26.686Z" fill="#136289"/>
<path d="M1.89303 25.438H0.663574V26.6674H1.89303V25.438Z" fill="#136289"/>
<path d="M1.89303 24.2085H0.663574V25.438H1.89303V24.2085Z" fill="#136289"/>
<path d="M1.89303 22.979H0.663574V24.2085H1.89303V22.979Z" fill="#136289"/>
<path d="M1.89303 21.731H0.663574V22.9604H1.89303V21.731Z" fill="#136289"/>
</svg>
