<svg width="79" height="79" viewBox="0 0 79 79" fill="none" xmlns="http://www.w3.org/2000/svg">
<path d="M56.8953 38.5425V39.772H55.6659H54.4548H53.2253H51.9958H50.7664V38.5425H51.9958H53.2253H54.73H55.9411H56.8953Z" fill="#136289"/>
<path d="M37.5362 13.9722V15.2016H36.3251H35.0956H33.8661H32.6367H31.4072V13.9722H32.6367V12.7427H33.8661H35.0956H36.3251V13.9722H37.5362Z" fill="#136289"/>
<path d="M64.5476 59.4072V60.6367H63.3181V61.8661H62.0886V63.0956H60.8592V64.3067H59.6297V65.5362H58.4002V66.7656H55.9413V67.9951H52.2713V66.7656H49.8124V65.5362H48.5829V64.3067H47.3534V63.0956H46.124V61.8661H44.8945V60.6367H43.665V41.002H64.5292V59.4072H64.5476ZM62.0886 55.7188V50.801H57.1708V45.8831H51.0418V50.801H46.124V55.7188H51.0418V60.6367H57.1708V55.7188H62.0886Z" fill="#F19400"/>
<path d="M46.1237 20.119V21.3485H44.8943H43.6648H42.4537H41.2242H39.9948H38.7653H37.5359H36.3247H35.0953H33.8658H32.6364H31.4069H30.1774H28.948H27.7185H26.489H25.2596H24.0301H22.8007V20.119V18.8896V17.6601V16.4307H24.0301H25.2596H26.489H27.7185H28.948H30.1774H31.4069H32.6364H33.8658H35.0953H36.3247H37.5359H38.7653H39.9948H41.2242H42.4537H43.6648H44.8943H46.1237V17.6601V18.8896V20.119Z" fill="#F19400"/>
<path d="M64.8777 58.7832H63.6482V60.0127H64.8777V58.7832Z" fill="#136289"/>
<path d="M64.8777 57.5537H63.6482V58.7831H64.8777V57.5537Z" fill="#136289"/>
<path d="M64.8777 56.3242H63.6482V57.5537H64.8777V56.3242Z" fill="#136289"/>
<path d="M64.8777 55.0942H63.6482V56.3237H64.8777V55.0942Z" fill="#136289"/>
<path d="M64.8777 53.8647H63.6482V55.0942H64.8777V53.8647Z" fill="#136289"/>
<path d="M64.8777 52.6357H63.6482V53.8652H64.8777V52.6357Z" fill="#136289"/>
<path d="M64.8777 51.4062H63.6482V52.6357H64.8777V51.4062Z" fill="#136289"/>
<path d="M64.8777 50.1768H63.6482V51.4062H64.8777V50.1768Z" fill="#136289"/>
<path d="M64.8777 48.9478H63.6482V50.1772H64.8777V48.9478Z" fill="#136289"/>
<path d="M64.8777 47.7173H63.6482V48.9468H64.8777V47.7173Z" fill="#136289"/>
<path d="M64.8777 46.4878H63.6482V47.7172H64.8777V46.4878Z" fill="#136289"/>
<path d="M64.8777 45.2588H63.6482V46.4883H64.8777V45.2588Z" fill="#136289"/>
<path d="M64.8777 44.0474H63.6482V45.2585H64.8777V44.0474Z" fill="#136289"/>
<path d="M64.8777 42.8179H63.6482V44.0473H64.8777V42.8179Z" fill="#136289"/>
<path d="M64.8777 41.5889H63.6482V42.8184H64.8777V41.5889Z" fill="#136289"/>
<path d="M64.8777 40.3774H63.6482V41.6069H64.8777V40.3774Z" fill="#136289"/>
<path d="M63.6484 60.0122H62.4189V61.2416H63.6484V60.0122Z" fill="#136289"/>
<path d="M63.6484 39.1479H62.4189V40.3774H63.6484V39.1479Z" fill="#136289"/>
<path d="M62.419 61.2417H61.1896V62.4712H62.419V61.2417Z" fill="#136289"/>
<path d="M62.419 39.1479H61.1896V40.3774H62.419V39.1479Z" fill="#136289"/>
<path d="M61.1893 62.4712H59.9598V63.6823H61.1893V62.4712Z" fill="#136289"/>
<path d="M61.1893 53.8647H59.9598V55.0942H61.1893V53.8647Z" fill="#136289"/>
<path d="M61.1893 52.6357H59.9598V53.8652H61.1893V52.6357Z" fill="#136289"/>
<path d="M61.1893 51.4062H59.9598V52.6357H61.1893V51.4062Z" fill="#136289"/>
<path d="M61.1893 50.1768H59.9598V51.4062H61.1893V50.1768Z" fill="#136289"/>
<path d="M61.1893 39.1479H59.9598V40.3774H61.1893V39.1479Z" fill="#136289"/>
<path d="M59.9599 63.6821H58.7305V64.9116H59.9599V63.6821Z" fill="#136289"/>
<path d="M59.9599 53.8647H58.7305V55.0942H59.9599V53.8647Z" fill="#136289"/>
<path d="M59.9601 52.6351V53.8646H58.7306H57.5011H56.2717H55.0422V55.094V56.3235V57.553V58.7824H53.8311H52.6016H51.3722V57.553V56.3235V55.094V53.8646H50.1611H48.9316H47.7021H46.4727V52.6351V51.4056H47.7021H48.9316H50.1611H51.3722V50.1761V48.9467V47.7172V46.4878H52.6016H53.8311H55.0422V47.7172V48.9467V50.1761V51.4056H56.2717H57.5011H58.7306H59.9601V52.6351Z" fill="#136289"/>
<path d="M59.9599 50.1768H58.7305V51.4062H59.9599V50.1768Z" fill="#136289"/>
<path d="M59.9599 39.1479H58.7305V40.3774H59.9599V39.1479Z" fill="#136289"/>
<path d="M58.7307 64.9116H57.5012V66.1411H58.7307V64.9116Z" fill="#136289"/>
<path d="M58.7307 53.8647H57.5012V55.0942H58.7307V53.8647Z" fill="#136289"/>
<path d="M58.7307 50.1768H57.5012V51.4062H58.7307V50.1768Z" fill="#136289"/>
<path d="M58.7307 39.1479H57.5012V40.3774H58.7307V39.1479Z" fill="#136289"/>
<path d="M57.501 66.1411H56.2715V67.3705H57.501V66.1411Z" fill="#136289"/>
<path d="M57.501 53.8647H56.2715V55.0942H57.501V53.8647Z" fill="#136289"/>
<path d="M57.501 50.1768H56.2715V51.4062H57.501V50.1768Z" fill="#136289"/>
<path d="M57.501 39.1479H56.2715V40.3774H57.501V39.1479Z" fill="#136289"/>
<path d="M57.501 37.9185H56.2715V39.1479H57.501V37.9185Z" fill="#136289"/>
<path d="M56.2716 66.1411H55.0421V67.3705H56.2716V66.1411Z" fill="#136289"/>
<path d="M56.2716 58.7832H55.0421V60.0127H56.2716V58.7832Z" fill="#136289"/>
<path d="M56.2716 57.5537H55.0421V58.7831H56.2716V57.5537Z" fill="#136289"/>
<path d="M56.2716 56.3242H55.0421V57.5537H56.2716V56.3242Z" fill="#136289"/>
<path d="M56.2716 55.0942H55.0421V56.3237H56.2716V55.0942Z" fill="#136289"/>
<path d="M56.2716 53.8647H55.0421V55.0942H56.2716V53.8647Z" fill="#136289"/>
<path d="M56.2716 50.1768H55.0421V51.4062H56.2716V50.1768Z" fill="#136289"/>
<path d="M56.2716 48.9478H55.0421V50.1772H56.2716V48.9478Z" fill="#136289"/>
<path d="M56.2716 47.7173H55.0421V48.9468H56.2716V47.7173Z" fill="#136289"/>
<path d="M56.2716 46.4878H55.0421V47.7172H56.2716V46.4878Z" fill="#136289"/>
<path d="M56.2716 45.2588H55.0421V46.4883H56.2716V45.2588Z" fill="#136289"/>
<path d="M56.2716 39.1479H55.0421V40.3774H56.2716V39.1479Z" fill="#136289"/>
<path d="M56.2716 36.6895H55.0421V37.9189H56.2716V36.6895Z" fill="#136289"/>
<path d="M55.0423 67.3701H53.8312V68.5996H55.0423V67.3701Z" fill="#136289"/>
<path d="M55.0423 58.7832H53.8312V60.0127H55.0423V58.7832Z" fill="#136289"/>
<path d="M55.0423 45.2588H53.8312V46.4883H55.0423V45.2588Z" fill="#136289"/>
<path d="M55.0423 39.1479H53.8312V40.3774H55.0423V39.1479Z" fill="#136289"/>
<path d="M55.0423 36.6895H53.8312V37.9189H55.0423V36.6895Z" fill="#136289"/>
<path d="M53.8309 67.3701H52.6014V68.5996H53.8309V67.3701Z" fill="#136289"/>
<path d="M53.8309 58.7832H52.6014V60.0127H53.8309V58.7832Z" fill="#136289"/>
<path d="M53.8309 45.2588H52.6014V46.4883H53.8309V45.2588Z" fill="#136289"/>
<path d="M53.8309 39.1479H52.6014V40.3774H53.8309V39.1479Z" fill="#136289"/>
<path d="M53.8309 36.6895H52.6014V37.9189H53.8309V36.6895Z" fill="#136289"/>
<path d="M53.8309 34.2305H52.6014V36.6894H53.8309V34.2305Z" fill="#136289"/>
<path d="M53.8309 33.0005H52.6014V34.2299H53.8309V33.0005Z" fill="#136289"/>
<path d="M53.8309 31.771H52.6014V33.0005H53.8309V31.771Z" fill="#136289"/>
<path d="M53.8309 30.542H52.6014V31.7714H53.8309V30.542Z" fill="#136289"/>
<path d="M53.8309 29.3125H52.6014V30.542H53.8309V29.3125Z" fill="#136289"/>
<path d="M53.8309 28.083H52.6014V29.3124H53.8309V28.083Z" fill="#136289"/>
<path d="M53.8309 26.8716H52.6014V28.0827H53.8309V26.8716Z" fill="#136289"/>
<path d="M53.8309 25.6426H52.6014V26.8721H53.8309V25.6426Z" fill="#136289"/>
<path d="M53.8309 24.4131H52.6014V25.6425H53.8309V24.4131Z" fill="#136289"/>
<path d="M53.8309 23.1836H52.6014V24.4131H53.8309V23.1836Z" fill="#136289"/>
<path d="M53.8309 21.9536H52.6014V23.1831H53.8309V21.9536Z" fill="#136289"/>
<path d="M53.8309 20.7241H52.6014V21.9536H53.8309V20.7241Z" fill="#136289"/>
<path d="M53.8309 19.4951H52.6014V20.7246H53.8309V19.4951Z" fill="#136289"/>
<path d="M52.6015 67.3701H51.3721V68.5996H52.6015V67.3701Z" fill="#136289"/>
<path d="M52.6015 58.7832H51.3721V60.0127H52.6015V58.7832Z" fill="#136289"/>
<path d="M52.6015 45.2588H51.3721V46.4883H52.6015V45.2588Z" fill="#136289"/>
<path d="M52.6015 39.1479H51.3721V40.3774H52.6015V39.1479Z" fill="#136289"/>
<path d="M52.6015 36.6895H51.3721V37.9189H52.6015V36.6895Z" fill="#136289"/>
<path d="M52.6015 19.4951H51.3721V20.7246H52.6015V19.4951Z" fill="#136289"/>
<path d="M52.6015 18.2656H51.3721V19.4951H52.6015V18.2656Z" fill="#136289"/>
<path d="M51.3906 66.1411H50.1611V67.3705H51.3906V66.1411Z" fill="#136289"/>
<path d="M51.3906 58.7832H50.1611V60.0127H51.3906V58.7832Z" fill="#136289"/>
<path d="M51.3906 57.5537H50.1611V58.7831H51.3906V57.5537Z" fill="#136289"/>
<path d="M51.3906 56.3242H50.1611V57.5537H51.3906V56.3242Z" fill="#136289"/>
<path d="M51.3906 55.0942H50.1611V56.3237H51.3906V55.0942Z" fill="#136289"/>
<path d="M51.3906 53.8647H50.1611V55.0942H51.3906V53.8647Z" fill="#136289"/>
<path d="M51.3906 50.1768H50.1611V51.4062H51.3906V50.1768Z" fill="#136289"/>
<path d="M51.3906 48.9478H50.1611V50.1772H51.3906V48.9478Z" fill="#136289"/>
<path d="M51.3906 47.7173H50.1611V48.9468H51.3906V47.7173Z" fill="#136289"/>
<path d="M51.3906 46.4878H50.1611V47.7172H51.3906V46.4878Z" fill="#136289"/>
<path d="M51.3906 45.2588H50.1611V46.4883H51.3906V45.2588Z" fill="#136289"/>
<path d="M51.3906 39.1479H50.1611V40.3774H51.3906V39.1479Z" fill="#136289"/>
<path d="M51.3906 36.6895H50.1611V37.9189H51.3906V36.6895Z" fill="#136289"/>
<path d="M51.3906 18.2656H50.1611V19.4951H51.3906V18.2656Z" fill="#136289"/>
<path d="M50.1609 66.1411H48.9314V67.3705H50.1609V66.1411Z" fill="#136289"/>
<path d="M50.1609 53.8647H48.9314V55.0942H50.1609V53.8647Z" fill="#136289"/>
<path d="M50.1609 50.1768H48.9314V51.4062H50.1609V50.1768Z" fill="#136289"/>
<path d="M50.1609 39.1479H48.9314V40.3774H50.1609V39.1479Z" fill="#136289"/>
<path d="M50.1609 37.9185H48.9314V39.1479H50.1609V37.9185Z" fill="#136289"/>
<path d="M50.1609 18.2656H48.9314V19.4951H50.1609V18.2656Z" fill="#136289"/>
<path d="M48.9316 67.3701H46.4727V68.5996H48.9316V67.3701Z" fill="#136289"/>
<path d="M48.9315 64.9116H47.702V66.1411H48.9315V64.9116Z" fill="#136289"/>
<path d="M48.9315 53.8647H47.702V55.0942H48.9315V53.8647Z" fill="#136289"/>
<path d="M48.9315 50.1768H47.702V51.4062H48.9315V50.1768Z" fill="#136289"/>
<path d="M48.9315 39.1479H47.702V40.3774H48.9315V39.1479Z" fill="#136289"/>
<path d="M48.9315 30.542H47.702V31.7714H48.9315V30.542Z" fill="#136289"/>
<path d="M48.9315 18.2656H47.702V19.4951H48.9315V18.2656Z" fill="#136289"/>
<path d="M47.7021 63.6821H46.4727V64.9116H47.7021V63.6821Z" fill="#136289"/>
<path d="M47.7021 53.8647H46.4727V55.0942H47.7021V53.8647Z" fill="#136289"/>
<path d="M47.7021 50.1768H46.4727V51.4062H47.7021V50.1768Z" fill="#136289"/>
<path d="M47.7021 39.1479H46.4727V40.3774H47.7021V39.1479Z" fill="#136289"/>
<path d="M47.7021 30.542H46.4727V31.7714H47.7021V30.542Z" fill="#136289"/>
<path d="M47.7021 18.2656H46.4727V19.4951H47.7021V18.2656Z" fill="#136289"/>
<path d="M46.4724 67.3701H45.2429V68.5996H46.4724V67.3701Z" fill="#136289"/>
<path d="M46.4724 62.4712H45.2429V63.6823H46.4724V62.4712Z" fill="#136289"/>
<path d="M46.4724 53.8647H45.2429V55.0942H46.4724V53.8647Z" fill="#136289"/>
<path d="M46.4724 52.6357H45.2429V53.8652H46.4724V52.6357Z" fill="#136289"/>
<path d="M46.4724 51.4062H45.2429V52.6357H46.4724V51.4062Z" fill="#136289"/>
<path d="M46.4724 50.1768H45.2429V51.4062H46.4724V50.1768Z" fill="#136289"/>
<path d="M46.4724 39.1479H45.2429V40.3774H46.4724V39.1479Z" fill="#136289"/>
<path d="M46.4724 30.542H45.2429V31.7714H46.4724V30.542Z" fill="#136289"/>
<path d="M46.4724 19.4951H45.2429V20.7246H46.4724V19.4951Z" fill="#136289"/>
<path d="M46.4724 18.2656H45.2429V19.4951H46.4724V18.2656Z" fill="#136289"/>
<path d="M46.4724 17.0361H45.2429V18.2656H46.4724V17.0361Z" fill="#136289"/>
<path d="M46.4724 15.8071H45.2429V17.0366H46.4724V15.8071Z" fill="#136289"/>
<path d="M45.2431 67.3701H44.0137V68.5996H45.2431V67.3701Z" fill="#136289"/>
<path d="M45.2431 61.2417H44.0137V62.4712H45.2431V61.2417Z" fill="#136289"/>
<path d="M45.2431 39.1479H44.0137V40.3774H45.2431V39.1479Z" fill="#136289"/>
<path d="M45.2431 30.542H44.0137V31.7714H45.2431V30.542Z" fill="#136289"/>
<path d="M45.2431 20.7241H44.0137V21.9536H45.2431V20.7241Z" fill="#136289"/>
<path d="M45.2431 14.5776H44.0137V15.8071H45.2431V14.5776Z" fill="#136289"/>
<path d="M44.0138 67.3701H42.7843V68.5996H44.0138V67.3701Z" fill="#136289"/>
<path d="M44.0138 60.0122H42.7843V61.2416H44.0138V60.0122Z" fill="#136289"/>
<path d="M44.0138 39.1479H42.7843V40.3774H44.0138V39.1479Z" fill="#136289"/>
<path d="M44.0138 30.542H42.7843V31.7714H44.0138V30.542Z" fill="#136289"/>
<path d="M44.0138 20.7241H42.7843V21.9536H44.0138V20.7241Z" fill="#136289"/>
<path d="M44.0138 14.5776H42.7843V15.8071H44.0138V14.5776Z" fill="#136289"/>
<path d="M42.784 67.3701H41.5546V68.5996H42.784V67.3701Z" fill="#136289"/>
<path d="M42.784 58.7832H41.5546V60.0127H42.784V58.7832Z" fill="#136289"/>
<path d="M42.784 57.5537H41.5546V58.7831H42.784V57.5537Z" fill="#136289"/>
<path d="M42.784 56.3242H41.5546V57.5537H42.784V56.3242Z" fill="#136289"/>
<path d="M42.784 55.0942H41.5546V56.3237H42.784V55.0942Z" fill="#136289"/>
<path d="M42.784 53.8647H41.5546V55.0942H42.784V53.8647Z" fill="#136289"/>
<path d="M42.784 52.6357H41.5546V53.8652H42.784V52.6357Z" fill="#136289"/>
<path d="M42.784 51.4062H41.5546V52.6357H42.784V51.4062Z" fill="#136289"/>
<path d="M42.784 50.1768H41.5546V51.4062H42.784V50.1768Z" fill="#136289"/>
<path d="M42.784 48.9478H41.5546V50.1772H42.784V48.9478Z" fill="#136289"/>
<path d="M42.784 47.7173H41.5546V48.9468H42.784V47.7173Z" fill="#136289"/>
<path d="M42.784 46.4878H41.5546V47.7172H42.784V46.4878Z" fill="#136289"/>
<path d="M42.784 45.2588H41.5546V46.4883H42.784V45.2588Z" fill="#136289"/>
<path d="M42.784 44.0474H41.5546V45.2585H42.784V44.0474Z" fill="#136289"/>
<path d="M42.784 42.8179H41.5546V44.0473H42.784V42.8179Z" fill="#136289"/>
<path d="M42.784 41.5889H41.5546V42.8184H42.784V41.5889Z" fill="#136289"/>
<path d="M42.784 40.3774H41.5546V41.6069H42.784V40.3774Z" fill="#136289"/>
<path d="M42.784 30.542H41.5546V31.7714H42.784V30.542Z" fill="#136289"/>
<path d="M42.784 20.7241H41.5546V21.9536H42.784V20.7241Z" fill="#136289"/>
<path d="M42.784 14.5776H41.5546V15.8071H42.784V14.5776Z" fill="#136289"/>
<path d="M41.5547 67.3701H40.3252V68.5996H41.5547V67.3701Z" fill="#136289"/>
<path d="M41.5547 30.542H40.3252V31.7714H41.5547V30.542Z" fill="#136289"/>
<path d="M41.5547 20.7241H40.3252V21.9536H41.5547V20.7241Z" fill="#136289"/>
<path d="M41.5547 14.5776H40.3252V15.8071H41.5547V14.5776Z" fill="#136289"/>
<path d="M40.3254 67.3701H39.0959V68.5996H40.3254V67.3701Z" fill="#136289"/>
<path d="M40.3254 30.542H39.0959V31.7714H40.3254V30.542Z" fill="#136289"/>
<path d="M40.3254 20.7241H39.0959V21.9536H40.3254V20.7241Z" fill="#136289"/>
<path d="M40.3254 14.5776H39.0959V15.8071H40.3254V14.5776Z" fill="#136289"/>
<path d="M39.096 67.3701H37.8666V68.5996H39.096V67.3701Z" fill="#136289"/>
<path d="M39.096 58.7832H37.8666V60.0127H39.096V58.7832Z" fill="#136289"/>
<path d="M39.096 50.1768H37.8666V51.4062H39.096V50.1768Z" fill="#136289"/>
<path d="M39.096 40.3774H37.8666V41.6069H39.096V40.3774Z" fill="#136289"/>
<path d="M39.096 30.542H37.8666V31.7714H39.096V30.542Z" fill="#136289"/>
<path d="M39.096 20.7241H37.8666V21.9536H39.096V20.7241Z" fill="#136289"/>
<path d="M39.096 14.5776H37.8666V15.8071H39.096V14.5776Z" fill="#136289"/>
<path d="M37.8663 67.3701H36.6368V68.5996H37.8663V67.3701Z" fill="#136289"/>
<path d="M37.8663 58.7832H36.6368V60.0127H37.8663V58.7832Z" fill="#136289"/>
<path d="M37.8663 50.1768H36.6368V51.4062H37.8663V50.1768Z" fill="#136289"/>
<path d="M37.8663 40.3774H36.6368V41.6069H37.8663V40.3774Z" fill="#136289"/>
<path d="M37.8663 30.542H36.6368V31.7714H37.8663V30.542Z" fill="#136289"/>
<path d="M37.8663 20.7241H36.6368V21.9536H37.8663V20.7241Z" fill="#136289"/>
<path d="M37.8663 14.5776H36.6368V15.8071H37.8663V14.5776Z" fill="#136289"/>
<path d="M37.8663 13.3477H36.6368V14.5771H37.8663V13.3477Z" fill="#136289"/>
<path d="M36.637 67.3701H35.4259V68.5996H36.637V67.3701Z" fill="#136289"/>
<path d="M36.637 58.7832H35.4259V60.0127H36.637V58.7832Z" fill="#136289"/>
<path d="M36.637 50.1768H35.4259V51.4062H36.637V50.1768Z" fill="#136289"/>
<path d="M36.637 40.3774H35.4259V41.6069H36.637V40.3774Z" fill="#136289"/>
<path d="M36.637 30.542H35.4259V31.7714H36.637V30.542Z" fill="#136289"/>
<path d="M36.637 20.7241H35.4259V21.9536H36.637V20.7241Z" fill="#136289"/>
<path d="M36.637 14.5776H35.4259V15.8071H36.637V14.5776Z" fill="#136289"/>
<path d="M36.637 12.1182H35.4259V13.3476H36.637V12.1182Z" fill="#136289"/>
<path d="M35.426 67.3701H34.1965V68.5996H35.426V67.3701Z" fill="#136289"/>
<path d="M35.426 58.7832H34.1965V60.0127H35.426V58.7832Z" fill="#136289"/>
<path d="M35.426 50.1768H34.1965V51.4062H35.426V50.1768Z" fill="#136289"/>
<path d="M35.426 40.3774H34.1965V41.6069H35.426V40.3774Z" fill="#136289"/>
<path d="M35.426 30.542H34.1965V31.7714H35.426V30.542Z" fill="#136289"/>
<path d="M35.426 20.7241H34.1965V21.9536H35.426V20.7241Z" fill="#136289"/>
<path d="M35.426 14.5776H34.1965V15.8071H35.426V14.5776Z" fill="#136289"/>
<path d="M35.426 10.8887H34.1965V12.1182H35.426V10.8887Z" fill="#136289"/>
<path d="M34.1963 67.3701H32.9668V68.5996H34.1963V67.3701Z" fill="#136289"/>
<path d="M34.1963 58.7832H32.9668V60.0127H34.1963V58.7832Z" fill="#136289"/>
<path d="M34.1963 50.1768H32.9668V51.4062H34.1963V50.1768Z" fill="#136289"/>
<path d="M34.1963 40.3774H32.9668V41.6069H34.1963V40.3774Z" fill="#136289"/>
<path d="M34.1963 30.542H32.9668V31.7714H34.1963V30.542Z" fill="#136289"/>
<path d="M34.1963 20.7241H32.9668V21.9536H34.1963V20.7241Z" fill="#136289"/>
<path d="M34.1963 14.5776H32.9668V15.8071H34.1963V14.5776Z" fill="#136289"/>
<path d="M34.1963 10.8887H32.9668V12.1182H34.1963V10.8887Z" fill="#136289"/>
<path d="M32.9669 67.3701H31.7374V68.5996H32.9669V67.3701Z" fill="#136289"/>
<path d="M32.9669 58.7832H31.7374V60.0127H32.9669V58.7832Z" fill="#136289"/>
<path d="M32.9669 50.1768H31.7374V51.4062H32.9669V50.1768Z" fill="#136289"/>
<path d="M32.9669 40.3774H31.7374V41.6069H32.9669V40.3774Z" fill="#136289"/>
<path d="M32.9669 30.542H31.7374V31.7714H32.9669V30.542Z" fill="#136289"/>
<path d="M32.9669 20.7241H31.7374V21.9536H32.9669V20.7241Z" fill="#136289"/>
<path d="M32.9669 14.5776H31.7374V15.8071H32.9669V14.5776Z" fill="#136289"/>
<path d="M32.9669 10.8887H31.7374V12.1182H32.9669V10.8887Z" fill="#136289"/>
<path d="M31.7376 67.3701H30.5082V68.5996H31.7376V67.3701Z" fill="#136289"/>
<path d="M31.7376 20.7241H30.5082V21.9536H31.7376V20.7241Z" fill="#136289"/>
<path d="M31.7376 14.5776H30.5082V15.8071H31.7376V14.5776Z" fill="#136289"/>
<path d="M31.7376 12.1182H30.5082V13.3476H31.7376V12.1182Z" fill="#136289"/>
<path d="M30.5078 67.3701H29.2783V68.5996H30.5078V67.3701Z" fill="#136289"/>
<path d="M30.5078 20.7241H29.2783V21.9536H30.5078V20.7241Z" fill="#136289"/>
<path d="M30.5078 14.5776H29.2783V15.8071H30.5078V14.5776Z" fill="#136289"/>
<path d="M30.5078 13.3477H29.2783V14.5771H30.5078V13.3477Z" fill="#136289"/>
<path d="M29.2785 67.3701H28.0491V68.5996H29.2785V67.3701Z" fill="#136289"/>
<path d="M29.2785 20.7241H28.0491V21.9536H29.2785V20.7241Z" fill="#136289"/>
<path d="M29.2785 14.5776H28.0491V15.8071H29.2785V14.5776Z" fill="#136289"/>
<path d="M28.0492 67.3701H26.8197V68.5996H28.0492V67.3701Z" fill="#136289"/>
<path d="M28.0492 55.0942H26.8197V56.3237H28.0492V55.0942Z" fill="#136289"/>
<path d="M28.0492 46.4878H26.8197V47.7172H28.0492V46.4878Z" fill="#136289"/>
<path d="M28.0492 36.6895H26.8197V37.9189H28.0492V36.6895Z" fill="#136289"/>
<path d="M28.0492 28.083H26.8197V29.3124H28.0492V28.083Z" fill="#136289"/>
<path d="M28.0492 20.7241H26.8197V21.9536H28.0492V20.7241Z" fill="#136289"/>
<path d="M28.0492 14.5776H26.8197V15.8071H28.0492V14.5776Z" fill="#136289"/>
<path d="M26.8194 67.3701H25.59V68.5996H26.8194V67.3701Z" fill="#136289"/>
<path d="M26.8194 56.3242H25.59V57.5537H26.8194V56.3242Z" fill="#136289"/>
<path d="M26.8194 47.7173H25.59V48.9468H26.8194V47.7173Z" fill="#136289"/>
<path d="M26.8194 37.9185H25.59V39.1479H26.8194V37.9185Z" fill="#136289"/>
<path d="M26.8194 29.3125H25.59V30.542H26.8194V29.3125Z" fill="#136289"/>
<path d="M26.8194 20.7241H25.59V21.9536H26.8194V20.7241Z" fill="#136289"/>
<path d="M26.8194 14.5776H25.59V15.8071H26.8194V14.5776Z" fill="#136289"/>
<path d="M25.5901 67.3701H24.3606V68.5996H25.5901V67.3701Z" fill="#136289"/>
<path d="M25.5901 57.5537H24.3606V58.7831H25.5901V57.5537Z" fill="#136289"/>
<path d="M25.5901 48.9478H24.3606V50.1772H25.5901V48.9478Z" fill="#136289"/>
<path d="M25.5901 39.1479H24.3606V40.3774H25.5901V39.1479Z" fill="#136289"/>
<path d="M25.5901 30.542H24.3606V31.7714H25.5901V30.542Z" fill="#136289"/>
<path d="M25.5901 20.7241H24.3606V21.9536H25.5901V20.7241Z" fill="#136289"/>
<path d="M25.5901 14.5776H24.3606V15.8071H25.5901V14.5776Z" fill="#136289"/>
<path d="M24.3608 67.3701H23.1313V68.5996H24.3608V67.3701Z" fill="#136289"/>
<path d="M24.3608 58.7832H23.1313V60.0127H24.3608V58.7832Z" fill="#136289"/>
<path d="M24.3608 50.1768H23.1313V51.4062H24.3608V50.1768Z" fill="#136289"/>
<path d="M24.3608 40.3774H23.1313V41.6069H24.3608V40.3774Z" fill="#136289"/>
<path d="M24.3608 31.771H23.1313V33.0005H24.3608V31.771Z" fill="#136289"/>
<path d="M24.3608 20.7241H23.1313V21.9536H24.3608V20.7241Z" fill="#136289"/>
<path d="M24.3608 14.5776H23.1313V15.8071H24.3608V14.5776Z" fill="#136289"/>
<path d="M23.1309 67.3701H21.9015V68.5996H23.1309V67.3701Z" fill="#136289"/>
<path d="M23.1309 60.0122H21.9015V61.2416H23.1309V60.0122Z" fill="#136289"/>
<path d="M23.1309 51.4062H21.9015V52.6357H23.1309V51.4062Z" fill="#136289"/>
<path d="M23.1309 41.5889H21.9015V42.8184H23.1309V41.5889Z" fill="#136289"/>
<path d="M23.1309 33.0005H21.9015V34.2299H23.1309V33.0005Z" fill="#136289"/>
<path d="M23.1309 20.7241H21.9015V21.9536H23.1309V20.7241Z" fill="#136289"/>
<path d="M23.1309 14.5776H21.9015V15.8071H23.1309V14.5776Z" fill="#136289"/>
<path d="M21.9017 67.3701H20.6722V68.5996H21.9017V67.3701Z" fill="#136289"/>
<path d="M21.9017 60.0122H20.6722V61.2416H21.9017V60.0122Z" fill="#136289"/>
<path d="M21.9017 51.4062H20.6722V52.6357H21.9017V51.4062Z" fill="#136289"/>
<path d="M21.9017 41.5889H20.6722V42.8184H21.9017V41.5889Z" fill="#136289"/>
<path d="M21.9017 33.0005H20.6722V34.2299H21.9017V33.0005Z" fill="#136289"/>
<path d="M21.9017 19.4951H20.6722V20.7246H21.9017V19.4951Z" fill="#136289"/>
<path d="M21.9017 18.2656H20.6722V19.4951H21.9017V18.2656Z" fill="#136289"/>
<path d="M21.9017 17.0361H20.6722V18.2656H21.9017V17.0361Z" fill="#136289"/>
<path d="M21.9017 15.8071H20.6722V17.0366H21.9017V15.8071Z" fill="#136289"/>
<path d="M20.6908 67.3701H19.4613V68.5996H20.6908V67.3701Z" fill="#136289"/>
<path d="M20.6908 58.7832H19.4613V60.0127H20.6908V58.7832Z" fill="#136289"/>
<path d="M20.6908 50.1768H19.4613V51.4062H20.6908V50.1768Z" fill="#136289"/>
<path d="M20.6908 40.3774H19.4613V41.6069H20.6908V40.3774Z" fill="#136289"/>
<path d="M20.6908 31.771H19.4613V33.0005H20.6908V31.771Z" fill="#136289"/>
<path d="M20.6908 18.2656H19.4613V19.4951H20.6908V18.2656Z" fill="#136289"/>
<path d="M19.4426 67.3701H18.2314V68.5996H19.4426V67.3701Z" fill="#136289"/>
<path d="M19.4426 57.5537H18.2314V58.7831H19.4426V57.5537Z" fill="#136289"/>
<path d="M19.4426 48.9478H18.2314V50.1772H19.4426V48.9478Z" fill="#136289"/>
<path d="M19.4426 39.1479H18.2314V40.3774H19.4426V39.1479Z" fill="#136289"/>
<path d="M19.4426 30.542H18.2314V31.7714H19.4426V30.542Z" fill="#136289"/>
<path d="M19.4426 18.2656H18.2314V19.4951H19.4426V18.2656Z" fill="#136289"/>
<path d="M18.2317 67.3701H17.0022V68.5996H18.2317V67.3701Z" fill="#136289"/>
<path d="M18.2317 18.2656H17.0022V19.4951H18.2317V18.2656Z" fill="#136289"/>
<path d="M17.0207 67.3701H15.7913V68.5996H17.0207V67.3701Z" fill="#136289"/>
<path d="M17.0207 18.2656H15.7913V19.4951H17.0207V18.2656Z" fill="#136289"/>
<path d="M15.791 67.3701H14.5615V68.5996H15.791V67.3701Z" fill="#136289"/>
<path d="M15.791 19.4951H14.5615V20.7246H15.791V19.4951Z" fill="#136289"/>
<path d="M15.791 18.2656H14.5615V19.4951H15.791V18.2656Z" fill="#136289"/>
<path d="M14.5616 66.1411H13.3322V67.3705H14.5616V66.1411Z" fill="#136289"/>
<path d="M14.5616 64.9116H13.3322V66.1411H14.5616V64.9116Z" fill="#136289"/>
<path d="M14.5616 63.6821H13.3322V64.9116H14.5616V63.6821Z" fill="#136289"/>
<path d="M14.5616 62.4712H13.3322V63.6823H14.5616V62.4712Z" fill="#136289"/>
<path d="M14.5616 61.2417H13.3322V62.4712H14.5616V61.2417Z" fill="#136289"/>
<path d="M14.5616 60.0122H13.3322V61.2416H14.5616V60.0122Z" fill="#136289"/>
<path d="M14.5616 58.7832H13.3322V60.0127H14.5616V58.7832Z" fill="#136289"/>
<path d="M14.5616 57.5537H13.3322V58.7831H14.5616V57.5537Z" fill="#136289"/>
<path d="M14.5616 56.3242H13.3322V57.5537H14.5616V56.3242Z" fill="#136289"/>
<path d="M14.5616 55.0942H13.3322V56.3237H14.5616V55.0942Z" fill="#136289"/>
<path d="M14.5616 53.8647H13.3322V55.0942H14.5616V53.8647Z" fill="#136289"/>
<path d="M14.5616 52.6357H13.3322V53.8652H14.5616V52.6357Z" fill="#136289"/>
<path d="M14.5616 51.4062H13.3322V52.6357H14.5616V51.4062Z" fill="#136289"/>
<path d="M14.5616 50.1768H13.3322V51.4062H14.5616V50.1768Z" fill="#136289"/>
<path d="M14.5616 48.9478H13.3322V50.1772H14.5616V48.9478Z" fill="#136289"/>
<path d="M14.5616 47.7173H13.3322V48.9468H14.5616V47.7173Z" fill="#136289"/>
<path d="M14.5616 46.4878H13.3322V47.7172H14.5616V46.4878Z" fill="#136289"/>
<path d="M14.5616 45.2588H13.3322V46.4883H14.5616V45.2588Z" fill="#136289"/>
<path d="M14.5616 44.0474H13.3322V45.2585H14.5616V44.0474Z" fill="#136289"/>
<path d="M14.5616 42.8179H13.3322V44.0473H14.5616V42.8179Z" fill="#136289"/>
<path d="M14.5616 41.5889H13.3322V42.8184H14.5616V41.5889Z" fill="#136289"/>
<path d="M14.5616 40.3774H13.3322V41.6069H14.5616V40.3774Z" fill="#136289"/>
<path d="M14.5616 39.1479H13.3322V40.3774H14.5616V39.1479Z" fill="#136289"/>
<path d="M14.5616 37.9185H13.3322V39.1479H14.5616V37.9185Z" fill="#136289"/>
<path d="M14.5616 36.6895H13.3322V37.9189H14.5616V36.6895Z" fill="#136289"/>
<path d="M14.5616 35.46H13.3322V36.6894H14.5616V35.46Z" fill="#136289"/>
<path d="M14.5616 34.2305H13.3322V35.46H14.5616V34.2305Z" fill="#136289"/>
<path d="M14.5616 33.0005H13.3322V34.2299H14.5616V33.0005Z" fill="#136289"/>
<path d="M14.5616 31.771H13.3322V33.0005H14.5616V31.771Z" fill="#136289"/>
<path d="M14.5616 30.542H13.3322V31.7714H14.5616V30.542Z" fill="#136289"/>
<path d="M14.5616 29.3125H13.3322V30.542H14.5616V29.3125Z" fill="#136289"/>
<path d="M14.5616 28.083H13.3322V29.3124H14.5616V28.083Z" fill="#136289"/>
<path d="M14.5616 26.8716H13.3322V28.0827H14.5616V26.8716Z" fill="#136289"/>
<path d="M14.5616 25.6426H13.3322V26.8721H14.5616V25.6426Z" fill="#136289"/>
<path d="M14.5616 24.4131H13.3322V25.6425H14.5616V24.4131Z" fill="#136289"/>
<path d="M14.5616 23.1836H13.3322V24.4131H14.5616V23.1836Z" fill="#136289"/>
<path d="M14.5616 21.9536H13.3322V23.1831H14.5616V21.9536Z" fill="#136289"/>
<path d="M14.5616 20.7241H13.3322V21.9536H14.5616V20.7241Z" fill="#136289"/>
<path d="M14.5616 19.4951H13.3322V20.7246H14.5616V19.4951Z" fill="#136289"/>
</svg>
